<?xml version="1.0" encoding="utf-8" standalone="no"?>
<!DOCTYPE svg PUBLIC "-//W3C//DTD SVG 1.1//EN"
  "http://www.w3.org/Graphics/SVG/1.1/DTD/svg11.dtd">
<svg xmlns:xlink="http://www.w3.org/1999/xlink" width="490.704687pt" height="262.19625pt" viewBox="0 0 490.704687 262.19625" xmlns="http://www.w3.org/2000/svg" version="1.1">
 <metadata>
  <rdf:RDF xmlns:dc="http://purl.org/dc/elements/1.1/" xmlns:cc="http://creativecommons.org/ns#" xmlns:rdf="http://www.w3.org/1999/02/22-rdf-syntax-ns#">
   <cc:Work>
    <dc:type rdf:resource="http://purl.org/dc/dcmitype/StillImage"/>
    <dc:date>2022-11-11T03:22:07.463972</dc:date>
    <dc:format>image/svg+xml</dc:format>
    <dc:creator>
     <cc:Agent>
      <dc:title>Matplotlib v3.5.1, https://matplotlib.org/</dc:title>
     </cc:Agent>
    </dc:creator>
   </cc:Work>
  </rdf:RDF>
 </metadata>
 <defs>
  <style type="text/css">*{stroke-linejoin: round; stroke-linecap: butt}</style>
 </defs>
 <g id="figure_1">
  <g id="patch_1">
   <path d="M 0 262.19625 
L 490.704687 262.19625 
L 490.704687 0 
L 0 0 
L 0 262.19625 
z
" style="fill: none"/>
  </g>
  <g id="axes_1">
   <g id="patch_2">
    <path d="M 52.160938 224.64 
L 386.960938 224.64 
L 386.960938 7.2 
L 52.160938 7.2 
z
" style="fill: #ffffff"/>
   </g>
   <g id="matplotlib.axis_1">
    <g id="xtick_1">
     <g id="line2d_1">
      <defs>
       <path id="ma58cc2663b" d="M 0 0 
L 0 3.5 
" style="stroke: #000000; stroke-width: 0.8"/>
      </defs>
      <g>
       <use xlink:href="#ma58cc2663b" x="67.379119" y="224.64" style="stroke: #000000; stroke-width: 0.8"/>
      </g>
     </g>
     <g id="text_1">
      <!-- 0 -->
      <g transform="translate(64.197869 239.238437)scale(0.1 -0.1)">
       <defs>
        <path id="DejaVuSans-30" d="M 2034 4250 
Q 1547 4250 1301 3770 
Q 1056 3291 1056 2328 
Q 1056 1369 1301 889 
Q 1547 409 2034 409 
Q 2525 409 2770 889 
Q 3016 1369 3016 2328 
Q 3016 3291 2770 3770 
Q 2525 4250 2034 4250 
z
M 2034 4750 
Q 2819 4750 3233 4129 
Q 3647 3509 3647 2328 
Q 3647 1150 3233 529 
Q 2819 -91 2034 -91 
Q 1250 -91 836 529 
Q 422 1150 422 2328 
Q 422 3509 836 4129 
Q 1250 4750 2034 4750 
z
" transform="scale(0.015625)"/>
       </defs>
       <use xlink:href="#DejaVuSans-30"/>
      </g>
     </g>
    </g>
    <g id="xtick_2">
     <g id="line2d_2">
      <g>
       <use xlink:href="#ma58cc2663b" x="128.251847" y="224.64" style="stroke: #000000; stroke-width: 0.8"/>
      </g>
     </g>
     <g id="text_2">
      <!-- 2 -->
      <g transform="translate(125.070597 239.238437)scale(0.1 -0.1)">
       <defs>
        <path id="DejaVuSans-32" d="M 1228 531 
L 3431 531 
L 3431 0 
L 469 0 
L 469 531 
Q 828 903 1448 1529 
Q 2069 2156 2228 2338 
Q 2531 2678 2651 2914 
Q 2772 3150 2772 3378 
Q 2772 3750 2511 3984 
Q 2250 4219 1831 4219 
Q 1534 4219 1204 4116 
Q 875 4013 500 3803 
L 500 4441 
Q 881 4594 1212 4672 
Q 1544 4750 1819 4750 
Q 2544 4750 2975 4387 
Q 3406 4025 3406 3419 
Q 3406 3131 3298 2873 
Q 3191 2616 2906 2266 
Q 2828 2175 2409 1742 
Q 1991 1309 1228 531 
z
" transform="scale(0.015625)"/>
       </defs>
       <use xlink:href="#DejaVuSans-32"/>
      </g>
     </g>
    </g>
    <g id="xtick_3">
     <g id="line2d_3">
      <g>
       <use xlink:href="#ma58cc2663b" x="189.124574" y="224.64" style="stroke: #000000; stroke-width: 0.8"/>
      </g>
     </g>
     <g id="text_3">
      <!-- 4 -->
      <g transform="translate(185.943324 239.238437)scale(0.1 -0.1)">
       <defs>
        <path id="DejaVuSans-34" d="M 2419 4116 
L 825 1625 
L 2419 1625 
L 2419 4116 
z
M 2253 4666 
L 3047 4666 
L 3047 1625 
L 3713 1625 
L 3713 1100 
L 3047 1100 
L 3047 0 
L 2419 0 
L 2419 1100 
L 313 1100 
L 313 1709 
L 2253 4666 
z
" transform="scale(0.015625)"/>
       </defs>
       <use xlink:href="#DejaVuSans-34"/>
      </g>
     </g>
    </g>
    <g id="xtick_4">
     <g id="line2d_4">
      <g>
       <use xlink:href="#ma58cc2663b" x="249.997301" y="224.64" style="stroke: #000000; stroke-width: 0.8"/>
      </g>
     </g>
     <g id="text_4">
      <!-- 6 -->
      <g transform="translate(246.816051 239.238437)scale(0.1 -0.1)">
       <defs>
        <path id="DejaVuSans-36" d="M 2113 2584 
Q 1688 2584 1439 2293 
Q 1191 2003 1191 1497 
Q 1191 994 1439 701 
Q 1688 409 2113 409 
Q 2538 409 2786 701 
Q 3034 994 3034 1497 
Q 3034 2003 2786 2293 
Q 2538 2584 2113 2584 
z
M 3366 4563 
L 3366 3988 
Q 3128 4100 2886 4159 
Q 2644 4219 2406 4219 
Q 1781 4219 1451 3797 
Q 1122 3375 1075 2522 
Q 1259 2794 1537 2939 
Q 1816 3084 2150 3084 
Q 2853 3084 3261 2657 
Q 3669 2231 3669 1497 
Q 3669 778 3244 343 
Q 2819 -91 2113 -91 
Q 1303 -91 875 529 
Q 447 1150 447 2328 
Q 447 3434 972 4092 
Q 1497 4750 2381 4750 
Q 2619 4750 2861 4703 
Q 3103 4656 3366 4563 
z
" transform="scale(0.015625)"/>
       </defs>
       <use xlink:href="#DejaVuSans-36"/>
      </g>
     </g>
    </g>
    <g id="xtick_5">
     <g id="line2d_5">
      <g>
       <use xlink:href="#ma58cc2663b" x="310.870028" y="224.64" style="stroke: #000000; stroke-width: 0.8"/>
      </g>
     </g>
     <g id="text_5">
      <!-- 8 -->
      <g transform="translate(307.688778 239.238437)scale(0.1 -0.1)">
       <defs>
        <path id="DejaVuSans-38" d="M 2034 2216 
Q 1584 2216 1326 1975 
Q 1069 1734 1069 1313 
Q 1069 891 1326 650 
Q 1584 409 2034 409 
Q 2484 409 2743 651 
Q 3003 894 3003 1313 
Q 3003 1734 2745 1975 
Q 2488 2216 2034 2216 
z
M 1403 2484 
Q 997 2584 770 2862 
Q 544 3141 544 3541 
Q 544 4100 942 4425 
Q 1341 4750 2034 4750 
Q 2731 4750 3128 4425 
Q 3525 4100 3525 3541 
Q 3525 3141 3298 2862 
Q 3072 2584 2669 2484 
Q 3125 2378 3379 2068 
Q 3634 1759 3634 1313 
Q 3634 634 3220 271 
Q 2806 -91 2034 -91 
Q 1263 -91 848 271 
Q 434 634 434 1313 
Q 434 1759 690 2068 
Q 947 2378 1403 2484 
z
M 1172 3481 
Q 1172 3119 1398 2916 
Q 1625 2713 2034 2713 
Q 2441 2713 2670 2916 
Q 2900 3119 2900 3481 
Q 2900 3844 2670 4047 
Q 2441 4250 2034 4250 
Q 1625 4250 1398 4047 
Q 1172 3844 1172 3481 
z
" transform="scale(0.015625)"/>
       </defs>
       <use xlink:href="#DejaVuSans-38"/>
      </g>
     </g>
    </g>
    <g id="xtick_6">
     <g id="line2d_6">
      <g>
       <use xlink:href="#ma58cc2663b" x="371.742756" y="224.64" style="stroke: #000000; stroke-width: 0.8"/>
      </g>
     </g>
     <g id="text_6">
      <!-- 10 -->
      <g transform="translate(365.380256 239.238437)scale(0.1 -0.1)">
       <defs>
        <path id="DejaVuSans-31" d="M 794 531 
L 1825 531 
L 1825 4091 
L 703 3866 
L 703 4441 
L 1819 4666 
L 2450 4666 
L 2450 531 
L 3481 531 
L 3481 0 
L 794 0 
L 794 531 
z
" transform="scale(0.015625)"/>
       </defs>
       <use xlink:href="#DejaVuSans-31"/>
       <use xlink:href="#DejaVuSans-30" x="63.623047"/>
      </g>
     </g>
    </g>
    <g id="text_7">
     <!-- Time t -->
     <g transform="translate(203.778125 252.916562)scale(0.1 -0.1)">
      <defs>
       <path id="DejaVuSans-54" d="M -19 4666 
L 3928 4666 
L 3928 4134 
L 2272 4134 
L 2272 0 
L 1638 0 
L 1638 4134 
L -19 4134 
L -19 4666 
z
" transform="scale(0.015625)"/>
       <path id="DejaVuSans-69" d="M 603 3500 
L 1178 3500 
L 1178 0 
L 603 0 
L 603 3500 
z
M 603 4863 
L 1178 4863 
L 1178 4134 
L 603 4134 
L 603 4863 
z
" transform="scale(0.015625)"/>
       <path id="DejaVuSans-6d" d="M 3328 2828 
Q 3544 3216 3844 3400 
Q 4144 3584 4550 3584 
Q 5097 3584 5394 3201 
Q 5691 2819 5691 2113 
L 5691 0 
L 5113 0 
L 5113 2094 
Q 5113 2597 4934 2840 
Q 4756 3084 4391 3084 
Q 3944 3084 3684 2787 
Q 3425 2491 3425 1978 
L 3425 0 
L 2847 0 
L 2847 2094 
Q 2847 2600 2669 2842 
Q 2491 3084 2119 3084 
Q 1678 3084 1418 2786 
Q 1159 2488 1159 1978 
L 1159 0 
L 581 0 
L 581 3500 
L 1159 3500 
L 1159 2956 
Q 1356 3278 1631 3431 
Q 1906 3584 2284 3584 
Q 2666 3584 2933 3390 
Q 3200 3197 3328 2828 
z
" transform="scale(0.015625)"/>
       <path id="DejaVuSans-65" d="M 3597 1894 
L 3597 1613 
L 953 1613 
Q 991 1019 1311 708 
Q 1631 397 2203 397 
Q 2534 397 2845 478 
Q 3156 559 3463 722 
L 3463 178 
Q 3153 47 2828 -22 
Q 2503 -91 2169 -91 
Q 1331 -91 842 396 
Q 353 884 353 1716 
Q 353 2575 817 3079 
Q 1281 3584 2069 3584 
Q 2775 3584 3186 3129 
Q 3597 2675 3597 1894 
z
M 3022 2063 
Q 3016 2534 2758 2815 
Q 2500 3097 2075 3097 
Q 1594 3097 1305 2825 
Q 1016 2553 972 2059 
L 3022 2063 
z
" transform="scale(0.015625)"/>
       <path id="DejaVuSans-20" transform="scale(0.015625)"/>
       <path id="DejaVuSans-74" d="M 1172 4494 
L 1172 3500 
L 2356 3500 
L 2356 3053 
L 1172 3053 
L 1172 1153 
Q 1172 725 1289 603 
Q 1406 481 1766 481 
L 2356 481 
L 2356 0 
L 1766 0 
Q 1100 0 847 248 
Q 594 497 594 1153 
L 594 3053 
L 172 3053 
L 172 3500 
L 594 3500 
L 594 4494 
L 1172 4494 
z
" transform="scale(0.015625)"/>
      </defs>
      <use xlink:href="#DejaVuSans-54"/>
      <use xlink:href="#DejaVuSans-69" x="57.958984"/>
      <use xlink:href="#DejaVuSans-6d" x="85.742188"/>
      <use xlink:href="#DejaVuSans-65" x="183.154297"/>
      <use xlink:href="#DejaVuSans-20" x="244.677734"/>
      <use xlink:href="#DejaVuSans-74" x="276.464844"/>
     </g>
    </g>
   </g>
   <g id="matplotlib.axis_2">
    <g id="ytick_1">
     <g id="line2d_7">
      <defs>
       <path id="mc29c93ee47" d="M 0 0 
L -3.5 0 
" style="stroke: #000000; stroke-width: 0.8"/>
      </defs>
      <g>
       <use xlink:href="#mc29c93ee47" x="52.160938" y="214.869315" style="stroke: #000000; stroke-width: 0.8"/>
      </g>
     </g>
     <g id="text_8">
      <!-- −0.6 -->
      <g transform="translate(20.878125 218.668533)scale(0.1 -0.1)">
       <defs>
        <path id="DejaVuSans-2212" d="M 678 2272 
L 4684 2272 
L 4684 1741 
L 678 1741 
L 678 2272 
z
" transform="scale(0.015625)"/>
        <path id="DejaVuSans-2e" d="M 684 794 
L 1344 794 
L 1344 0 
L 684 0 
L 684 794 
z
" transform="scale(0.015625)"/>
       </defs>
       <use xlink:href="#DejaVuSans-2212"/>
       <use xlink:href="#DejaVuSans-30" x="83.789062"/>
       <use xlink:href="#DejaVuSans-2e" x="147.412109"/>
       <use xlink:href="#DejaVuSans-36" x="179.199219"/>
      </g>
     </g>
    </g>
    <g id="ytick_2">
     <g id="line2d_8">
      <g>
       <use xlink:href="#mc29c93ee47" x="52.160938" y="183.71513" style="stroke: #000000; stroke-width: 0.8"/>
      </g>
     </g>
     <g id="text_9">
      <!-- −0.4 -->
      <g transform="translate(20.878125 187.514349)scale(0.1 -0.1)">
       <use xlink:href="#DejaVuSans-2212"/>
       <use xlink:href="#DejaVuSans-30" x="83.789062"/>
       <use xlink:href="#DejaVuSans-2e" x="147.412109"/>
       <use xlink:href="#DejaVuSans-34" x="179.199219"/>
      </g>
     </g>
    </g>
    <g id="ytick_3">
     <g id="line2d_9">
      <g>
       <use xlink:href="#mc29c93ee47" x="52.160938" y="152.560945" style="stroke: #000000; stroke-width: 0.8"/>
      </g>
     </g>
     <g id="text_10">
      <!-- −0.2 -->
      <g transform="translate(20.878125 156.360164)scale(0.1 -0.1)">
       <use xlink:href="#DejaVuSans-2212"/>
       <use xlink:href="#DejaVuSans-30" x="83.789062"/>
       <use xlink:href="#DejaVuSans-2e" x="147.412109"/>
       <use xlink:href="#DejaVuSans-32" x="179.199219"/>
      </g>
     </g>
    </g>
    <g id="ytick_4">
     <g id="line2d_10">
      <g>
       <use xlink:href="#mc29c93ee47" x="52.160938" y="121.406761" style="stroke: #000000; stroke-width: 0.8"/>
      </g>
     </g>
     <g id="text_11">
      <!-- 0.0 -->
      <g transform="translate(29.257812 125.20598)scale(0.1 -0.1)">
       <use xlink:href="#DejaVuSans-30"/>
       <use xlink:href="#DejaVuSans-2e" x="63.623047"/>
       <use xlink:href="#DejaVuSans-30" x="95.410156"/>
      </g>
     </g>
    </g>
    <g id="ytick_5">
     <g id="line2d_11">
      <g>
       <use xlink:href="#mc29c93ee47" x="52.160938" y="90.252576" style="stroke: #000000; stroke-width: 0.8"/>
      </g>
     </g>
     <g id="text_12">
      <!-- 0.2 -->
      <g transform="translate(29.257812 94.051795)scale(0.1 -0.1)">
       <use xlink:href="#DejaVuSans-30"/>
       <use xlink:href="#DejaVuSans-2e" x="63.623047"/>
       <use xlink:href="#DejaVuSans-32" x="95.410156"/>
      </g>
     </g>
    </g>
    <g id="ytick_6">
     <g id="line2d_12">
      <g>
       <use xlink:href="#mc29c93ee47" x="52.160938" y="59.098392" style="stroke: #000000; stroke-width: 0.8"/>
      </g>
     </g>
     <g id="text_13">
      <!-- 0.4 -->
      <g transform="translate(29.257812 62.89761)scale(0.1 -0.1)">
       <use xlink:href="#DejaVuSans-30"/>
       <use xlink:href="#DejaVuSans-2e" x="63.623047"/>
       <use xlink:href="#DejaVuSans-34" x="95.410156"/>
      </g>
     </g>
    </g>
    <g id="ytick_7">
     <g id="line2d_13">
      <g>
       <use xlink:href="#mc29c93ee47" x="52.160938" y="27.944207" style="stroke: #000000; stroke-width: 0.8"/>
      </g>
     </g>
     <g id="text_14">
      <!-- 0.6 -->
      <g transform="translate(29.257812 31.743426)scale(0.1 -0.1)">
       <use xlink:href="#DejaVuSans-30"/>
       <use xlink:href="#DejaVuSans-2e" x="63.623047"/>
       <use xlink:href="#DejaVuSans-36" x="95.410156"/>
      </g>
     </g>
    </g>
    <g id="text_15">
     <!-- X(t) -->
     <g transform="translate(14.798438 125.206719)rotate(-90)scale(0.1 -0.1)">
      <defs>
       <path id="DejaVuSans-58" d="M 403 4666 
L 1081 4666 
L 2241 2931 
L 3406 4666 
L 4084 4666 
L 2584 2425 
L 4184 0 
L 3506 0 
L 2194 1984 
L 872 0 
L 191 0 
L 1856 2491 
L 403 4666 
z
" transform="scale(0.015625)"/>
       <path id="DejaVuSans-28" d="M 1984 4856 
Q 1566 4138 1362 3434 
Q 1159 2731 1159 2009 
Q 1159 1288 1364 580 
Q 1569 -128 1984 -844 
L 1484 -844 
Q 1016 -109 783 600 
Q 550 1309 550 2009 
Q 550 2706 781 3412 
Q 1013 4119 1484 4856 
L 1984 4856 
z
" transform="scale(0.015625)"/>
       <path id="DejaVuSans-29" d="M 513 4856 
L 1013 4856 
Q 1481 4119 1714 3412 
Q 1947 2706 1947 2009 
Q 1947 1309 1714 600 
Q 1481 -109 1013 -844 
L 513 -844 
Q 928 -128 1133 580 
Q 1338 1288 1338 2009 
Q 1338 2731 1133 3434 
Q 928 4138 513 4856 
z
" transform="scale(0.015625)"/>
      </defs>
      <use xlink:href="#DejaVuSans-58"/>
      <use xlink:href="#DejaVuSans-28" x="68.505859"/>
      <use xlink:href="#DejaVuSans-74" x="107.519531"/>
      <use xlink:href="#DejaVuSans-29" x="146.728516"/>
     </g>
    </g>
   </g>
   <g id="line2d_14">
    <path d="M 67.379119 121.406761 
L 68.261862 117.486199 
L 69.144605 114.558395 
L 70.027348 112.37769 
L 70.910091 110.759178 
L 71.823273 109.528656 
L 72.797334 108.585774 
L 73.832274 107.889676 
L 74.988971 107.377281 
L 76.358745 107.0184 
L 78.063351 106.811157 
L 80.376746 106.77016 
L 83.968596 106.954795 
L 92.187236 107.661752 
L 114.408004 109.560409 
L 135.350316 111.112996 
L 157.845039 112.554765 
L 182.135686 113.885753 
L 208.526652 115.10601 
L 237.444089 116.216991 
L 269.405467 117.218475 
L 305.110892 118.110535 
L 345.564865 118.893928 
L 371.742756 119.298617 
L 371.742756 119.298617 
" clip-path="url(#p4a8a003faf)" style="fill: none; stroke: #ffa500; stroke-width: 1.5; stroke-linecap: square"/>
   </g>
   <g id="line2d_15">
    <defs>
     <path id="m472ec8e889" d="M -2.5 2.5 
L 2.5 2.5 
L 2.5 -2.5 
L -2.5 -2.5 
z
" style="stroke: #0000ff; stroke-linejoin: miter"/>
    </defs>
    <g clip-path="url(#p4a8a003faf)">
     <use xlink:href="#m472ec8e889" x="67.379119" y="121.406761" style="fill: #0000ff; stroke: #0000ff; stroke-linejoin: miter"/>
     <use xlink:href="#m472ec8e889" x="97.815483" y="108.169136" style="fill: #0000ff; stroke: #0000ff; stroke-linejoin: miter"/>
     <use xlink:href="#m472ec8e889" x="128.251847" y="110.612859" style="fill: #0000ff; stroke: #0000ff; stroke-linejoin: miter"/>
     <use xlink:href="#m472ec8e889" x="158.68821" y="112.606032" style="fill: #0000ff; stroke: #0000ff; stroke-linejoin: miter"/>
     <use xlink:href="#m472ec8e889" x="189.124574" y="114.23115" style="fill: #0000ff; stroke: #0000ff; stroke-linejoin: miter"/>
     <use xlink:href="#m472ec8e889" x="219.560938" y="115.556179" style="fill: #0000ff; stroke: #0000ff; stroke-linejoin: miter"/>
     <use xlink:href="#m472ec8e889" x="249.997301" y="116.636532" style="fill: #0000ff; stroke: #0000ff; stroke-linejoin: miter"/>
     <use xlink:href="#m472ec8e889" x="280.433665" y="117.517389" style="fill: #0000ff; stroke: #0000ff; stroke-linejoin: miter"/>
     <use xlink:href="#m472ec8e889" x="310.870028" y="118.23559" style="fill: #0000ff; stroke: #0000ff; stroke-linejoin: miter"/>
     <use xlink:href="#m472ec8e889" x="341.306392" y="118.82117" style="fill: #0000ff; stroke: #0000ff; stroke-linejoin: miter"/>
     <use xlink:href="#m472ec8e889" x="371.742756" y="119.298618" style="fill: #0000ff; stroke: #0000ff; stroke-linejoin: miter"/>
    </g>
   </g>
   <g id="line2d_16">
    <path d="M 67.379119 121.406761 
L 72.949531 93.471483 
L 76.480502 76.871776 
L 79.402685 64.160602 
L 81.959596 53.991135 
L 84.272991 45.675641 
L 86.37331 38.932668 
L 88.290992 33.49829 
L 90.056478 29.139305 
L 91.700206 25.659357 
L 93.191737 22.99925 
L 94.59195 20.942583 
L 95.870405 19.44327 
L 97.057542 18.378016 
L 98.1838 17.66034 
L 99.249179 17.244842 
L 100.25368 17.087752 
L 101.25818 17.158016 
L 102.26268 17.454732 
L 103.29762 17.995816 
L 104.393439 18.826828 
L 105.550136 19.988626 
L 106.798152 21.564909 
L 108.137486 23.621765 
L 109.598578 26.285756 
L 111.181427 29.650207 
L 112.886034 33.80666 
L 114.773277 39.018941 
L 116.812717 45.323479 
L 119.065233 53.025893 
L 121.591704 62.480069 
L 124.513887 74.315618 
L 128.044859 89.595142 
L 133.310876 113.501575 
L 140.342379 145.262443 
L 143.934229 160.440622 
L 146.886852 171.993721 
L 149.474202 181.254682 
L 151.787597 188.743692 
L 153.918355 194.907947 
L 155.866477 199.879688 
L 157.662402 203.868274 
L 159.30613 206.997294 
L 160.828101 209.436057 
L 162.228313 211.281487 
L 163.537208 212.655889 
L 164.754784 213.6269 
L 165.911482 214.273012 
L 167.0073 214.635946 
L 168.07268 214.75629 
L 169.138059 214.647908 
L 170.203438 214.311864 
L 171.299257 213.730414 
L 172.455954 212.859843 
L 173.70397 211.628724 
L 175.012865 210.017881 
L 176.443517 207.891411 
L 177.965487 205.22205 
L 179.639654 201.819063 
L 181.43558 197.650815 
L 183.414141 192.475945 
L 185.575339 186.179832 
L 187.980052 178.465504 
L 190.689159 169.003772 
L 193.885297 156.997327 
L 198.025057 140.515406 
L 209.774668 93.221417 
L 213.031685 81.3211 
L 215.801671 72.007542 
L 218.267263 64.468562 
L 220.489339 58.360838 
L 222.52878 53.381722 
L 224.416023 49.344951 
L 226.151069 46.142236 
L 227.764358 43.617675 
L 229.255889 41.682956 
L 230.656102 40.222655 
L 231.964996 39.173515 
L 233.182572 38.473975 
L 234.33927 38.057296 
L 235.465528 37.883949 
L 236.591786 37.9395 
L 237.718044 38.222949 
L 238.874742 38.749579 
L 240.092318 39.559104 
L 241.370773 40.686851 
L 242.740546 42.205076 
L 244.201638 44.169507 
L 245.784487 46.687248 
L 247.489094 49.834178 
L 249.345898 53.750488 
L 251.354899 58.525039 
L 253.576975 64.403029 
L 256.042567 71.580077 
L 258.842993 80.444923 
L 262.160888 91.721953 
L 266.605042 107.682098 
L 276.497849 143.442695 
L 279.937502 154.900908 
L 282.829246 163.788278 
L 285.386156 170.947719 
L 287.669112 176.704362 
L 289.769431 181.416781 
L 291.687114 185.195017 
L 293.483039 188.254806 
L 295.126767 190.633358 
L 296.679177 192.49857 
L 298.109829 193.882696 
L 299.449163 194.883195 
L 300.727618 195.569363 
L 301.945194 195.977471 
L 303.132331 196.144528 
L 304.319468 196.084037 
L 305.506605 195.797067 
L 306.724181 195.269318 
L 308.002636 194.463647 
L 309.34197 193.347471 
L 310.772622 191.853787 
L 312.294593 189.931853 
L 313.938321 187.483515 
L 315.703806 184.441044 
L 317.621489 180.678093 
L 319.721808 176.047275 
L 322.035203 170.385805 
L 324.622553 163.440911 
L 327.575175 154.855583 
L 331.197465 143.599879 
L 336.737437 125.551365 
L 343.342788 104.203361 
L 346.965078 93.247627 
L 349.94814 84.904168 
L 352.565929 78.218618 
L 354.909763 72.817942 
L 357.070961 68.381778 
L 359.049523 64.813903 
L 360.875887 61.963313 
L 362.580494 59.702672 
L 364.163343 57.960045 
L 365.654874 56.639221 
L 367.055087 55.687357 
L 368.394421 55.040553 
L 369.672876 54.664948 
L 370.920892 54.526432 
L 371.742756 54.558114 
L 371.742756 54.558114 
" clip-path="url(#p4a8a003faf)" style="fill: none; stroke: #ee82ee; stroke-width: 1.5; stroke-linecap: square"/>
   </g>
   <g id="line2d_17">
    <defs>
     <path id="m6332fd09ca" d="M 0 4.949747 
L 2.969848 0 
L 0 -4.949747 
L -2.969848 0 
z
" style="stroke: #008000; stroke-linejoin: miter"/>
    </defs>
    <g clip-path="url(#p4a8a003faf)">
     <use xlink:href="#m6332fd09ca" x="67.379119" y="121.406761" style="fill: #008000; stroke: #008000; stroke-linejoin: miter"/>
     <use xlink:href="#m6332fd09ca" x="97.815483" y="17.860633" style="fill: #008000; stroke: #008000; stroke-linejoin: miter"/>
     <use xlink:href="#m6332fd09ca" x="128.251847" y="90.521998" style="fill: #008000; stroke: #008000; stroke-linejoin: miter"/>
     <use xlink:href="#m6332fd09ca" x="158.68821" y="205.886688" style="fill: #008000; stroke: #008000; stroke-linejoin: miter"/>
     <use xlink:href="#m6332fd09ca" x="189.124574" y="174.550186" style="fill: #008000; stroke: #008000; stroke-linejoin: miter"/>
     <use xlink:href="#m6332fd09ca" x="219.560938" y="60.817664" style="fill: #008000; stroke: #008000; stroke-linejoin: miter"/>
     <use xlink:href="#m6332fd09ca" x="249.997301" y="55.248897" style="fill: #008000; stroke: #008000; stroke-linejoin: miter"/>
     <use xlink:href="#m6332fd09ca" x="280.433665" y="156.496825" style="fill: #008000; stroke: #008000; stroke-linejoin: miter"/>
     <use xlink:href="#m6332fd09ca" x="310.870028" y="191.734905" style="fill: #008000; stroke: #008000; stroke-linejoin: miter"/>
     <use xlink:href="#m6332fd09ca" x="341.306392" y="110.632932" style="fill: #008000; stroke: #008000; stroke-linejoin: miter"/>
     <use xlink:href="#m6332fd09ca" x="371.742756" y="54.558026" style="fill: #008000; stroke: #008000; stroke-linejoin: miter"/>
    </g>
   </g>
   <g id="line2d_18">
    <path d="M 67.379119 121.406761 
L 69.266363 112.328716 
L 71.123166 104.462942 
L 72.949531 97.665869 
L 74.745456 91.810599 
L 76.510942 86.784959 
L 78.276427 82.419758 
L 80.011473 78.716613 
L 81.71608 75.594941 
L 83.390248 72.983527 
L 85.033976 70.819426 
L 86.677704 69.016709 
L 88.290992 67.567833 
L 89.904281 66.40818 
L 91.548009 65.497208 
L 93.222176 64.823936 
L 94.926783 64.376864 
L 96.692269 64.141836 
L 98.549073 64.118221 
L 100.527634 64.316278 
L 102.658393 64.754712 
L 105.002227 65.468799 
L 107.589577 66.494128 
L 110.542199 67.91155 
L 113.951413 69.802655 
L 118.121612 72.381023 
L 123.84422 76.202755 
L 142.168744 88.61485 
L 148.287065 92.392292 
L 153.979234 95.648252 
L 159.488767 98.545919 
L 164.937421 101.162365 
L 170.416514 103.547863 
L 175.986926 105.730699 
L 181.709534 107.733182 
L 187.614779 109.562931 
L 193.76354 111.234532 
L 200.247133 112.764466 
L 207.096 114.15019 
L 214.431897 115.404977 
L 222.346143 116.530145 
L 230.990935 117.531134 
L 240.548909 118.41024 
L 251.29402 119.17092 
L 263.652419 119.816955 
L 278.202456 120.348024 
L 296.039949 120.767705 
L 319.173899 121.077684 
L 352.291974 121.28133 
L 371.742756 121.33604 
L 371.742756 121.33604 
" clip-path="url(#p4a8a003faf)" style="fill: none; stroke: #00ff00; stroke-width: 1.5; stroke-linecap: square"/>
   </g>
   <g id="line2d_19">
    <defs>
     <path id="mb5fd3a5c1e" d="M 0 2.5 
C 0.663008 2.5 1.29895 2.236584 1.767767 1.767767 
C 2.236584 1.29895 2.5 0.663008 2.5 0 
C 2.5 -0.663008 2.236584 -1.29895 1.767767 -1.767767 
C 1.29895 -2.236584 0.663008 -2.5 0 -2.5 
C -0.663008 -2.5 -1.29895 -2.236584 -1.767767 -1.767767 
C -2.236584 -1.29895 -2.5 -0.663008 -2.5 0 
C -2.5 0.663008 -2.236584 1.29895 -1.767767 1.767767 
C -1.29895 2.236584 -0.663008 2.5 0 2.5 
z
" style="stroke: #ff0000"/>
    </defs>
    <g clip-path="url(#p4a8a003faf)">
     <use xlink:href="#mb5fd3a5c1e" x="67.379119" y="121.406761" style="fill: #ff0000; stroke: #ff0000"/>
     <use xlink:href="#mb5fd3a5c1e" x="97.815483" y="64.092287" style="fill: #ff0000; stroke: #ff0000"/>
     <use xlink:href="#mb5fd3a5c1e" x="128.251847" y="79.258219" style="fill: #ff0000; stroke: #ff0000"/>
     <use xlink:href="#mb5fd3a5c1e" x="158.68821" y="98.15226" style="fill: #ff0000; stroke: #ff0000"/>
     <use xlink:href="#mb5fd3a5c1e" x="189.124574" y="109.998386" style="fill: #ff0000; stroke: #ff0000"/>
     <use xlink:href="#mb5fd3a5c1e" x="219.560938" y="116.158004" style="fill: #ff0000; stroke: #ff0000"/>
     <use xlink:href="#mb5fd3a5c1e" x="249.997301" y="119.087739" style="fill: #ff0000; stroke: #ff0000"/>
     <use xlink:href="#mb5fd3a5c1e" x="280.433665" y="120.410295" style="fill: #ff0000; stroke: #ff0000"/>
     <use xlink:href="#mb5fd3a5c1e" x="310.870028" y="120.987186" style="fill: #ff0000; stroke: #ff0000"/>
     <use xlink:href="#mb5fd3a5c1e" x="341.306392" y="121.232797" style="fill: #ff0000; stroke: #ff0000"/>
     <use xlink:href="#mb5fd3a5c1e" x="371.742756" y="121.335499" style="fill: #ff0000; stroke: #ff0000"/>
    </g>
   </g>
   <g id="patch_3">
    <path d="M 52.160938 224.64 
L 52.160938 7.2 
" style="fill: none; stroke: #000000; stroke-width: 0.8; stroke-linejoin: miter; stroke-linecap: square"/>
   </g>
   <g id="patch_4">
    <path d="M 386.960938 224.64 
L 386.960938 7.2 
" style="fill: none; stroke: #000000; stroke-width: 0.8; stroke-linejoin: miter; stroke-linecap: square"/>
   </g>
   <g id="patch_5">
    <path d="M 52.160938 224.64 
L 386.960938 224.64 
" style="fill: none; stroke: #000000; stroke-width: 0.8; stroke-linejoin: miter; stroke-linecap: square"/>
   </g>
   <g id="patch_6">
    <path d="M 52.160938 7.2 
L 386.960938 7.2 
" style="fill: none; stroke: #000000; stroke-width: 0.8; stroke-linejoin: miter; stroke-linecap: square"/>
   </g>
   <g id="legend_1">
    <g id="patch_7">
     <path d="M 393.960938 126.6815 
L 481.504687 126.6815 
Q 483.504687 126.6815 483.504687 124.6815 
L 483.504687 35.944 
Q 483.504687 33.944 481.504687 33.944 
L 393.960938 33.944 
Q 391.960938 33.944 391.960938 35.944 
L 391.960938 124.6815 
Q 391.960938 126.6815 393.960938 126.6815 
z
" style="fill: #ffffff; opacity: 0.8; stroke: #cccccc; stroke-linejoin: miter"/>
    </g>
    <g id="line2d_20">
     <path d="M 395.960938 42.042437 
L 405.960938 42.042437 
L 415.960938 42.042437 
" style="fill: none; stroke: #ffa500; stroke-width: 1.5; stroke-linecap: square"/>
    </g>
    <g id="text_16">
     <!-- A_Over -->
     <g transform="translate(423.960938 45.542437)scale(0.1 -0.1)">
      <defs>
       <path id="DejaVuSans-41" d="M 2188 4044 
L 1331 1722 
L 3047 1722 
L 2188 4044 
z
M 1831 4666 
L 2547 4666 
L 4325 0 
L 3669 0 
L 3244 1197 
L 1141 1197 
L 716 0 
L 50 0 
L 1831 4666 
z
" transform="scale(0.015625)"/>
       <path id="DejaVuSans-5f" d="M 3263 -1063 
L 3263 -1509 
L -63 -1509 
L -63 -1063 
L 3263 -1063 
z
" transform="scale(0.015625)"/>
       <path id="DejaVuSans-4f" d="M 2522 4238 
Q 1834 4238 1429 3725 
Q 1025 3213 1025 2328 
Q 1025 1447 1429 934 
Q 1834 422 2522 422 
Q 3209 422 3611 934 
Q 4013 1447 4013 2328 
Q 4013 3213 3611 3725 
Q 3209 4238 2522 4238 
z
M 2522 4750 
Q 3503 4750 4090 4092 
Q 4678 3434 4678 2328 
Q 4678 1225 4090 567 
Q 3503 -91 2522 -91 
Q 1538 -91 948 565 
Q 359 1222 359 2328 
Q 359 3434 948 4092 
Q 1538 4750 2522 4750 
z
" transform="scale(0.015625)"/>
       <path id="DejaVuSans-76" d="M 191 3500 
L 800 3500 
L 1894 563 
L 2988 3500 
L 3597 3500 
L 2284 0 
L 1503 0 
L 191 3500 
z
" transform="scale(0.015625)"/>
       <path id="DejaVuSans-72" d="M 2631 2963 
Q 2534 3019 2420 3045 
Q 2306 3072 2169 3072 
Q 1681 3072 1420 2755 
Q 1159 2438 1159 1844 
L 1159 0 
L 581 0 
L 581 3500 
L 1159 3500 
L 1159 2956 
Q 1341 3275 1631 3429 
Q 1922 3584 2338 3584 
Q 2397 3584 2469 3576 
Q 2541 3569 2628 3553 
L 2631 2963 
z
" transform="scale(0.015625)"/>
      </defs>
      <use xlink:href="#DejaVuSans-41"/>
      <use xlink:href="#DejaVuSans-5f" x="68.408203"/>
      <use xlink:href="#DejaVuSans-4f" x="118.408203"/>
      <use xlink:href="#DejaVuSans-76" x="197.119141"/>
      <use xlink:href="#DejaVuSans-65" x="256.298828"/>
      <use xlink:href="#DejaVuSans-72" x="317.822266"/>
     </g>
    </g>
    <g id="line2d_21">
     <g>
      <use xlink:href="#m472ec8e889" x="405.960938" y="56.998687" style="fill: #0000ff; stroke: #0000ff; stroke-linejoin: miter"/>
     </g>
    </g>
    <g id="text_17">
     <!-- N_Over -->
     <g transform="translate(423.960938 60.498687)scale(0.1 -0.1)">
      <defs>
       <path id="DejaVuSans-4e" d="M 628 4666 
L 1478 4666 
L 3547 763 
L 3547 4666 
L 4159 4666 
L 4159 0 
L 3309 0 
L 1241 3903 
L 1241 0 
L 628 0 
L 628 4666 
z
" transform="scale(0.015625)"/>
      </defs>
      <use xlink:href="#DejaVuSans-4e"/>
      <use xlink:href="#DejaVuSans-5f" x="74.804688"/>
      <use xlink:href="#DejaVuSans-4f" x="124.804688"/>
      <use xlink:href="#DejaVuSans-76" x="203.515625"/>
      <use xlink:href="#DejaVuSans-65" x="262.695312"/>
      <use xlink:href="#DejaVuSans-72" x="324.21875"/>
     </g>
    </g>
    <g id="line2d_22">
     <path d="M 395.960938 71.954937 
L 405.960938 71.954937 
L 415.960938 71.954937 
" style="fill: none; stroke: #ee82ee; stroke-width: 1.5; stroke-linecap: square"/>
    </g>
    <g id="text_18">
     <!-- A_Under -->
     <g transform="translate(423.960938 75.454937)scale(0.1 -0.1)">
      <defs>
       <path id="DejaVuSans-55" d="M 556 4666 
L 1191 4666 
L 1191 1831 
Q 1191 1081 1462 751 
Q 1734 422 2344 422 
Q 2950 422 3222 751 
Q 3494 1081 3494 1831 
L 3494 4666 
L 4128 4666 
L 4128 1753 
Q 4128 841 3676 375 
Q 3225 -91 2344 -91 
Q 1459 -91 1007 375 
Q 556 841 556 1753 
L 556 4666 
z
" transform="scale(0.015625)"/>
       <path id="DejaVuSans-6e" d="M 3513 2113 
L 3513 0 
L 2938 0 
L 2938 2094 
Q 2938 2591 2744 2837 
Q 2550 3084 2163 3084 
Q 1697 3084 1428 2787 
Q 1159 2491 1159 1978 
L 1159 0 
L 581 0 
L 581 3500 
L 1159 3500 
L 1159 2956 
Q 1366 3272 1645 3428 
Q 1925 3584 2291 3584 
Q 2894 3584 3203 3211 
Q 3513 2838 3513 2113 
z
" transform="scale(0.015625)"/>
       <path id="DejaVuSans-64" d="M 2906 2969 
L 2906 4863 
L 3481 4863 
L 3481 0 
L 2906 0 
L 2906 525 
Q 2725 213 2448 61 
Q 2172 -91 1784 -91 
Q 1150 -91 751 415 
Q 353 922 353 1747 
Q 353 2572 751 3078 
Q 1150 3584 1784 3584 
Q 2172 3584 2448 3432 
Q 2725 3281 2906 2969 
z
M 947 1747 
Q 947 1113 1208 752 
Q 1469 391 1925 391 
Q 2381 391 2643 752 
Q 2906 1113 2906 1747 
Q 2906 2381 2643 2742 
Q 2381 3103 1925 3103 
Q 1469 3103 1208 2742 
Q 947 2381 947 1747 
z
" transform="scale(0.015625)"/>
      </defs>
      <use xlink:href="#DejaVuSans-41"/>
      <use xlink:href="#DejaVuSans-5f" x="68.408203"/>
      <use xlink:href="#DejaVuSans-55" x="118.408203"/>
      <use xlink:href="#DejaVuSans-6e" x="191.601562"/>
      <use xlink:href="#DejaVuSans-64" x="254.980469"/>
      <use xlink:href="#DejaVuSans-65" x="318.457031"/>
      <use xlink:href="#DejaVuSans-72" x="379.980469"/>
     </g>
    </g>
    <g id="line2d_23">
     <g>
      <use xlink:href="#m6332fd09ca" x="405.960938" y="86.911187" style="fill: #008000; stroke: #008000; stroke-linejoin: miter"/>
     </g>
    </g>
    <g id="text_19">
     <!-- N_Under -->
     <g transform="translate(423.960938 90.411187)scale(0.1 -0.1)">
      <use xlink:href="#DejaVuSans-4e"/>
      <use xlink:href="#DejaVuSans-5f" x="74.804688"/>
      <use xlink:href="#DejaVuSans-55" x="124.804688"/>
      <use xlink:href="#DejaVuSans-6e" x="197.998047"/>
      <use xlink:href="#DejaVuSans-64" x="261.376953"/>
      <use xlink:href="#DejaVuSans-65" x="324.853516"/>
      <use xlink:href="#DejaVuSans-72" x="386.376953"/>
     </g>
    </g>
    <g id="line2d_24">
     <path d="M 395.960938 101.867437 
L 405.960938 101.867437 
L 415.960938 101.867437 
" style="fill: none; stroke: #00ff00; stroke-width: 1.5; stroke-linecap: square"/>
    </g>
    <g id="text_20">
     <!-- A_Marginal -->
     <g transform="translate(423.960938 105.367437)scale(0.1 -0.1)">
      <defs>
       <path id="DejaVuSans-4d" d="M 628 4666 
L 1569 4666 
L 2759 1491 
L 3956 4666 
L 4897 4666 
L 4897 0 
L 4281 0 
L 4281 4097 
L 3078 897 
L 2444 897 
L 1241 4097 
L 1241 0 
L 628 0 
L 628 4666 
z
" transform="scale(0.015625)"/>
       <path id="DejaVuSans-61" d="M 2194 1759 
Q 1497 1759 1228 1600 
Q 959 1441 959 1056 
Q 959 750 1161 570 
Q 1363 391 1709 391 
Q 2188 391 2477 730 
Q 2766 1069 2766 1631 
L 2766 1759 
L 2194 1759 
z
M 3341 1997 
L 3341 0 
L 2766 0 
L 2766 531 
Q 2569 213 2275 61 
Q 1981 -91 1556 -91 
Q 1019 -91 701 211 
Q 384 513 384 1019 
Q 384 1609 779 1909 
Q 1175 2209 1959 2209 
L 2766 2209 
L 2766 2266 
Q 2766 2663 2505 2880 
Q 2244 3097 1772 3097 
Q 1472 3097 1187 3025 
Q 903 2953 641 2809 
L 641 3341 
Q 956 3463 1253 3523 
Q 1550 3584 1831 3584 
Q 2591 3584 2966 3190 
Q 3341 2797 3341 1997 
z
" transform="scale(0.015625)"/>
       <path id="DejaVuSans-67" d="M 2906 1791 
Q 2906 2416 2648 2759 
Q 2391 3103 1925 3103 
Q 1463 3103 1205 2759 
Q 947 2416 947 1791 
Q 947 1169 1205 825 
Q 1463 481 1925 481 
Q 2391 481 2648 825 
Q 2906 1169 2906 1791 
z
M 3481 434 
Q 3481 -459 3084 -895 
Q 2688 -1331 1869 -1331 
Q 1566 -1331 1297 -1286 
Q 1028 -1241 775 -1147 
L 775 -588 
Q 1028 -725 1275 -790 
Q 1522 -856 1778 -856 
Q 2344 -856 2625 -561 
Q 2906 -266 2906 331 
L 2906 616 
Q 2728 306 2450 153 
Q 2172 0 1784 0 
Q 1141 0 747 490 
Q 353 981 353 1791 
Q 353 2603 747 3093 
Q 1141 3584 1784 3584 
Q 2172 3584 2450 3431 
Q 2728 3278 2906 2969 
L 2906 3500 
L 3481 3500 
L 3481 434 
z
" transform="scale(0.015625)"/>
       <path id="DejaVuSans-6c" d="M 603 4863 
L 1178 4863 
L 1178 0 
L 603 0 
L 603 4863 
z
" transform="scale(0.015625)"/>
      </defs>
      <use xlink:href="#DejaVuSans-41"/>
      <use xlink:href="#DejaVuSans-5f" x="68.408203"/>
      <use xlink:href="#DejaVuSans-4d" x="118.408203"/>
      <use xlink:href="#DejaVuSans-61" x="204.6875"/>
      <use xlink:href="#DejaVuSans-72" x="265.966797"/>
      <use xlink:href="#DejaVuSans-67" x="305.330078"/>
      <use xlink:href="#DejaVuSans-69" x="368.806641"/>
      <use xlink:href="#DejaVuSans-6e" x="396.589844"/>
      <use xlink:href="#DejaVuSans-61" x="459.96875"/>
      <use xlink:href="#DejaVuSans-6c" x="521.248047"/>
     </g>
    </g>
    <g id="line2d_25">
     <g>
      <use xlink:href="#mb5fd3a5c1e" x="405.960938" y="116.823687" style="fill: #ff0000; stroke: #ff0000"/>
     </g>
    </g>
    <g id="text_21">
     <!-- N_Marginal -->
     <g transform="translate(423.960938 120.323687)scale(0.1 -0.1)">
      <use xlink:href="#DejaVuSans-4e"/>
      <use xlink:href="#DejaVuSans-5f" x="74.804688"/>
      <use xlink:href="#DejaVuSans-4d" x="124.804688"/>
      <use xlink:href="#DejaVuSans-61" x="211.083984"/>
      <use xlink:href="#DejaVuSans-72" x="272.363281"/>
      <use xlink:href="#DejaVuSans-67" x="311.726562"/>
      <use xlink:href="#DejaVuSans-69" x="375.203125"/>
      <use xlink:href="#DejaVuSans-6e" x="402.986328"/>
      <use xlink:href="#DejaVuSans-61" x="466.365234"/>
      <use xlink:href="#DejaVuSans-6c" x="527.644531"/>
     </g>
    </g>
   </g>
  </g>
 </g>
 <defs>
  <clipPath id="p4a8a003faf">
   <rect x="52.160938" y="7.2" width="334.8" height="217.44"/>
  </clipPath>
 </defs>
</svg>
