<?xml version="1.0" encoding="utf-8" standalone="no"?>
<!DOCTYPE svg PUBLIC "-//W3C//DTD SVG 1.1//EN"
  "http://www.w3.org/Graphics/SVG/1.1/DTD/svg11.dtd">
<svg xmlns:xlink="http://www.w3.org/1999/xlink" width="432pt" height="288pt" viewBox="0 0 432 288" xmlns="http://www.w3.org/2000/svg" version="1.1">
 <metadata>
  <rdf:RDF xmlns:dc="http://purl.org/dc/elements/1.1/" xmlns:cc="http://creativecommons.org/ns#" xmlns:rdf="http://www.w3.org/1999/02/22-rdf-syntax-ns#">
   <cc:Work>
    <dc:type rdf:resource="http://purl.org/dc/dcmitype/StillImage"/>
    <dc:date>2022-11-11T03:17:16.874529</dc:date>
    <dc:format>image/svg+xml</dc:format>
    <dc:creator>
     <cc:Agent>
      <dc:title>Matplotlib v3.5.1, https://matplotlib.org/</dc:title>
     </cc:Agent>
    </dc:creator>
   </cc:Work>
  </rdf:RDF>
 </metadata>
 <defs>
  <style type="text/css">*{stroke-linejoin: round; stroke-linecap: butt}</style>
 </defs>
 <g id="figure_1">
  <g id="patch_1">
   <path d="M 0 288 
L 432 288 
L 432 0 
L 0 0 
L 0 288 
z
" style="fill: none"/>
  </g>
  <g id="axes_1">
   <g id="patch_2">
    <path d="M 54 252 
L 388.8 252 
L 388.8 34.56 
L 54 34.56 
z
" style="fill: #ffffff"/>
   </g>
   <g id="patch_3">
    <path d="M 83.052893 252 
L 85.819835 252 
L 85.819835 251.9721 
L 83.052893 251.9721 
z
" clip-path="url(#p28ebec03b4)" style="fill: #008000; opacity: 0.3"/>
   </g>
   <g id="patch_4">
    <path d="M 85.819835 252 
L 88.586777 252 
L 88.586777 251.707053 
L 85.819835 251.707053 
z
" clip-path="url(#p28ebec03b4)" style="fill: #008000; opacity: 0.3"/>
   </g>
   <g id="patch_5">
    <path d="M 88.586777 252 
L 91.353719 252 
L 91.353719 251.511755 
L 88.586777 251.511755 
z
" clip-path="url(#p28ebec03b4)" style="fill: #008000; opacity: 0.3"/>
   </g>
   <g id="patch_6">
    <path d="M 91.353719 252 
L 94.120661 252 
L 94.120661 251.232758 
L 91.353719 251.232758 
z
" clip-path="url(#p28ebec03b4)" style="fill: #008000; opacity: 0.3"/>
   </g>
   <g id="patch_7">
    <path d="M 94.120661 252 
L 96.887603 252 
L 96.887603 251.246707 
L 94.120661 251.246707 
z
" clip-path="url(#p28ebec03b4)" style="fill: #008000; opacity: 0.3"/>
   </g>
   <g id="patch_8">
    <path d="M 96.887603 252 
L 99.654545 252 
L 99.654545 250.821237 
L 96.887603 250.821237 
z
" clip-path="url(#p28ebec03b4)" style="fill: #008000; opacity: 0.3"/>
   </g>
   <g id="patch_9">
    <path d="M 99.654545 252 
L 102.421488 252 
L 102.421488 250.088869 
L 99.654545 250.088869 
z
" clip-path="url(#p28ebec03b4)" style="fill: #008000; opacity: 0.3"/>
   </g>
   <g id="patch_10">
    <path d="M 102.421488 252 
L 105.18843 252 
L 105.18843 249.279777 
L 102.421488 249.279777 
z
" clip-path="url(#p28ebec03b4)" style="fill: #008000; opacity: 0.3"/>
   </g>
   <g id="patch_11">
    <path d="M 105.18843 252 
L 107.955372 252 
L 107.955372 249.342551 
L 105.18843 249.342551 
z
" clip-path="url(#p28ebec03b4)" style="fill: #008000; opacity: 0.3"/>
   </g>
   <g id="patch_12">
    <path d="M 107.955372 252 
L 110.722314 252 
L 110.722314 248.066139 
L 107.955372 248.066139 
z
" clip-path="url(#p28ebec03b4)" style="fill: #008000; opacity: 0.3"/>
   </g>
   <g id="patch_13">
    <path d="M 110.722314 252 
L 113.489256 252 
L 113.489256 248.149838 
L 110.722314 248.149838 
z
" clip-path="url(#p28ebec03b4)" style="fill: #008000; opacity: 0.3"/>
   </g>
   <g id="patch_14">
    <path d="M 113.489256 252 
L 116.256198 252 
L 116.256198 247.166373 
L 113.489256 247.166373 
z
" clip-path="url(#p28ebec03b4)" style="fill: #008000; opacity: 0.3"/>
   </g>
   <g id="patch_15">
    <path d="M 116.256198 252 
L 119.02314 252 
L 119.02314 245.617938 
L 116.256198 245.617938 
z
" clip-path="url(#p28ebec03b4)" style="fill: #008000; opacity: 0.3"/>
   </g>
   <g id="patch_16">
    <path d="M 119.02314 252 
L 121.790083 252 
L 121.790083 243.790506 
L 119.02314 243.790506 
z
" clip-path="url(#p28ebec03b4)" style="fill: #008000; opacity: 0.3"/>
   </g>
   <g id="patch_17">
    <path d="M 121.790083 252 
L 124.557025 252 
L 124.557025 242.269971 
L 121.790083 242.269971 
z
" clip-path="url(#p28ebec03b4)" style="fill: #008000; opacity: 0.3"/>
   </g>
   <g id="patch_18">
    <path d="M 124.557025 252 
L 127.323967 252 
L 127.323967 237.101546 
L 124.557025 237.101546 
z
" clip-path="url(#p28ebec03b4)" style="fill: #008000; opacity: 0.3"/>
   </g>
   <g id="patch_19">
    <path d="M 127.323967 252 
L 130.090909 252 
L 130.090909 235.462438 
L 127.323967 235.462438 
z
" clip-path="url(#p28ebec03b4)" style="fill: #008000; opacity: 0.3"/>
   </g>
   <g id="patch_20">
    <path d="M 130.090909 252 
L 132.857851 252 
L 132.857851 232.12842 
L 130.090909 232.12842 
z
" clip-path="url(#p28ebec03b4)" style="fill: #008000; opacity: 0.3"/>
   </g>
   <g id="patch_21">
    <path d="M 132.857851 252 
L 135.624793 252 
L 135.624793 228.899027 
L 132.857851 228.899027 
z
" clip-path="url(#p28ebec03b4)" style="fill: #008000; opacity: 0.3"/>
   </g>
   <g id="patch_22">
    <path d="M 135.624793 252 
L 138.391736 252 
L 138.391736 226.039305 
L 135.624793 226.039305 
z
" clip-path="url(#p28ebec03b4)" style="fill: #008000; opacity: 0.3"/>
   </g>
   <g id="patch_23">
    <path d="M 138.391736 252 
L 141.158678 252 
L 141.158678 222.286792 
L 138.391736 222.286792 
z
" clip-path="url(#p28ebec03b4)" style="fill: #008000; opacity: 0.3"/>
   </g>
   <g id="patch_24">
    <path d="M 141.158678 252 
L 143.92562 252 
L 143.92562 218.241332 
L 141.158678 218.241332 
z
" clip-path="url(#p28ebec03b4)" style="fill: #008000; opacity: 0.3"/>
   </g>
   <g id="patch_25">
    <path d="M 143.92562 252 
L 146.692562 252 
L 146.692562 210.338735 
L 143.92562 210.338735 
z
" clip-path="url(#p28ebec03b4)" style="fill: #008000; opacity: 0.3"/>
   </g>
   <g id="patch_26">
    <path d="M 146.692562 252 
L 149.459504 252 
L 149.459504 206.907068 
L 146.692562 206.907068 
z
" clip-path="url(#p28ebec03b4)" style="fill: #008000; opacity: 0.3"/>
   </g>
   <g id="patch_27">
    <path d="M 149.459504 252 
L 152.226446 252 
L 152.226446 201.529396 
L 149.459504 201.529396 
z
" clip-path="url(#p28ebec03b4)" style="fill: #008000; opacity: 0.3"/>
   </g>
   <g id="patch_28">
    <path d="M 152.226446 252 
L 154.993388 252 
L 154.993388 195.949451 
L 152.226446 195.949451 
z
" clip-path="url(#p28ebec03b4)" style="fill: #008000; opacity: 0.3"/>
   </g>
   <g id="patch_29">
    <path d="M 154.993388 252 
L 157.760331 252 
L 157.760331 189.706887 
L 154.993388 189.706887 
z
" clip-path="url(#p28ebec03b4)" style="fill: #008000; opacity: 0.3"/>
   </g>
   <g id="patch_30">
    <path d="M 157.760331 252 
L 160.527273 252 
L 160.527273 182.383209 
L 157.760331 182.383209 
z
" clip-path="url(#p28ebec03b4)" style="fill: #008000; opacity: 0.3"/>
   </g>
   <g id="patch_31">
    <path d="M 160.527273 252 
L 163.294215 252 
L 163.294215 168.60772 
L 160.527273 168.60772 
z
" clip-path="url(#p28ebec03b4)" style="fill: #008000; opacity: 0.3"/>
   </g>
   <g id="patch_32">
    <path d="M 163.294215 252 
L 166.061157 252 
L 166.061157 163.606694 
L 163.294215 163.606694 
z
" clip-path="url(#p28ebec03b4)" style="fill: #008000; opacity: 0.3"/>
   </g>
   <g id="patch_33">
    <path d="M 166.061157 252 
L 168.828099 252 
L 168.828099 157.817501 
L 166.061157 157.817501 
z
" clip-path="url(#p28ebec03b4)" style="fill: #008000; opacity: 0.3"/>
   </g>
   <g id="patch_34">
    <path d="M 168.828099 252 
L 171.595041 252 
L 171.595041 147.892173 
L 168.828099 147.892173 
z
" clip-path="url(#p28ebec03b4)" style="fill: #008000; opacity: 0.3"/>
   </g>
   <g id="patch_35">
    <path d="M 171.595041 252 
L 174.361983 252 
L 174.361983 137.54835 
L 171.595041 137.54835 
z
" clip-path="url(#p28ebec03b4)" style="fill: #008000; opacity: 0.3"/>
   </g>
   <g id="patch_36">
    <path d="M 174.361983 252 
L 177.128926 252 
L 177.128926 133.914411 
L 174.361983 133.914411 
z
" clip-path="url(#p28ebec03b4)" style="fill: #008000; opacity: 0.3"/>
   </g>
   <g id="patch_37">
    <path d="M 177.128926 252 
L 179.895868 252 
L 179.895868 129.241207 
L 177.128926 129.241207 
z
" clip-path="url(#p28ebec03b4)" style="fill: #008000; opacity: 0.3"/>
   </g>
   <g id="patch_38">
    <path d="M 179.895868 252 
L 182.66281 252 
L 182.66281 119.134531 
L 179.895868 119.134531 
z
" clip-path="url(#p28ebec03b4)" style="fill: #008000; opacity: 0.3"/>
   </g>
   <g id="patch_39">
    <path d="M 182.66281 252 
L 185.429752 252 
L 185.429752 105.903086 
L 182.66281 105.903086 
z
" clip-path="url(#p28ebec03b4)" style="fill: #008000; opacity: 0.3"/>
   </g>
   <g id="patch_40">
    <path d="M 185.429752 252 
L 188.196694 252 
L 188.196694 87.712465 
L 185.429752 87.712465 
z
" clip-path="url(#p28ebec03b4)" style="fill: #008000; opacity: 0.3"/>
   </g>
   <g id="patch_41">
    <path d="M 188.196694 252 
L 190.963636 252 
L 190.963636 83.220609 
L 188.196694 83.220609 
z
" clip-path="url(#p28ebec03b4)" style="fill: #008000; opacity: 0.3"/>
   </g>
   <g id="patch_42">
    <path d="M 190.963636 252 
L 193.730579 252 
L 193.730579 75.701633 
L 190.963636 75.701633 
z
" clip-path="url(#p28ebec03b4)" style="fill: #008000; opacity: 0.3"/>
   </g>
   <g id="patch_43">
    <path d="M 193.730579 252 
L 196.497521 252 
L 196.497521 68.691827 
L 193.730579 68.691827 
z
" clip-path="url(#p28ebec03b4)" style="fill: #008000; opacity: 0.3"/>
   </g>
   <g id="patch_44">
    <path d="M 196.497521 252 
L 199.264463 252 
L 199.264463 59.680216 
L 196.497521 59.680216 
z
" clip-path="url(#p28ebec03b4)" style="fill: #008000; opacity: 0.3"/>
   </g>
   <g id="patch_45">
    <path d="M 199.264463 252 
L 202.031405 252 
L 202.031405 48.548225 
L 199.264463 48.548225 
z
" clip-path="url(#p28ebec03b4)" style="fill: #008000; opacity: 0.3"/>
   </g>
   <g id="patch_46">
    <path d="M 202.031405 252 
L 204.798347 252 
L 204.798347 44.914286 
L 202.031405 44.914286 
z
" clip-path="url(#p28ebec03b4)" style="fill: #008000; opacity: 0.3"/>
   </g>
   <g id="patch_47">
    <path d="M 204.798347 252 
L 207.565289 252 
L 207.565289 49.887412 
L 204.798347 49.887412 
z
" clip-path="url(#p28ebec03b4)" style="fill: #008000; opacity: 0.3"/>
   </g>
   <g id="patch_48">
    <path d="M 207.565289 252 
L 210.332231 252 
L 210.332231 55.502232 
L 207.565289 55.502232 
z
" clip-path="url(#p28ebec03b4)" style="fill: #008000; opacity: 0.3"/>
   </g>
   <g id="patch_49">
    <path d="M 210.332231 252 
L 213.099174 252 
L 213.099174 52.949407 
L 210.332231 52.949407 
z
" clip-path="url(#p28ebec03b4)" style="fill: #008000; opacity: 0.3"/>
   </g>
   <g id="patch_50">
    <path d="M 213.099174 252 
L 215.866116 252 
L 215.866116 51.247523 
L 213.099174 51.247523 
z
" clip-path="url(#p28ebec03b4)" style="fill: #008000; opacity: 0.3"/>
   </g>
   <g id="patch_51">
    <path d="M 215.866116 252 
L 218.633058 252 
L 218.633058 53.416727 
L 215.866116 53.416727 
z
" clip-path="url(#p28ebec03b4)" style="fill: #008000; opacity: 0.3"/>
   </g>
   <g id="patch_52">
    <path d="M 218.633058 252 
L 221.4 252 
L 221.4 50.682554 
L 218.633058 50.682554 
z
" clip-path="url(#p28ebec03b4)" style="fill: #008000; opacity: 0.3"/>
   </g>
   <g id="patch_53">
    <path d="M 221.4 252 
L 224.166942 252 
L 224.166942 52.349563 
L 221.4 52.349563 
z
" clip-path="url(#p28ebec03b4)" style="fill: #008000; opacity: 0.3"/>
   </g>
   <g id="patch_54">
    <path d="M 224.166942 252 
L 226.933884 252 
L 226.933884 50.152459 
L 224.166942 50.152459 
z
" clip-path="url(#p28ebec03b4)" style="fill: #008000; opacity: 0.3"/>
   </g>
   <g id="patch_55">
    <path d="M 226.933884 252 
L 229.700826 252 
L 229.700826 54.044471 
L 226.933884 54.044471 
z
" clip-path="url(#p28ebec03b4)" style="fill: #008000; opacity: 0.3"/>
   </g>
   <g id="patch_56">
    <path d="M 229.700826 252 
L 232.467769 252 
L 232.467769 58.250355 
L 229.700826 58.250355 
z
" clip-path="url(#p28ebec03b4)" style="fill: #008000; opacity: 0.3"/>
   </g>
   <g id="patch_57">
    <path d="M 232.467769 252 
L 235.234711 252 
L 235.234711 62.804985 
L 232.467769 62.804985 
z
" clip-path="url(#p28ebec03b4)" style="fill: #008000; opacity: 0.3"/>
   </g>
   <g id="patch_58">
    <path d="M 235.234711 252 
L 238.001653 252 
L 238.001653 76.594424 
L 235.234711 76.594424 
z
" clip-path="url(#p28ebec03b4)" style="fill: #008000; opacity: 0.3"/>
   </g>
   <g id="patch_59">
    <path d="M 238.001653 252 
L 240.768595 252 
L 240.768595 85.403763 
L 238.001653 85.403763 
z
" clip-path="url(#p28ebec03b4)" style="fill: #008000; opacity: 0.3"/>
   </g>
   <g id="patch_60">
    <path d="M 240.768595 252 
L 243.535537 252 
L 243.535537 93.376109 
L 240.768595 93.376109 
z
" clip-path="url(#p28ebec03b4)" style="fill: #008000; opacity: 0.3"/>
   </g>
   <g id="patch_61">
    <path d="M 243.535537 252 
L 246.302479 252 
L 246.302479 105.721738 
L 243.535537 105.721738 
z
" clip-path="url(#p28ebec03b4)" style="fill: #008000; opacity: 0.3"/>
   </g>
   <g id="patch_62">
    <path d="M 246.302479 252 
L 249.069421 252 
L 249.069421 113.15004 
L 246.302479 113.15004 
z
" clip-path="url(#p28ebec03b4)" style="fill: #008000; opacity: 0.3"/>
   </g>
   <g id="patch_63">
    <path d="M 249.069421 252 
L 251.836364 252 
L 251.836364 121.903579 
L 249.069421 121.903579 
z
" clip-path="url(#p28ebec03b4)" style="fill: #008000; opacity: 0.3"/>
   </g>
   <g id="patch_64">
    <path d="M 251.836364 252 
L 254.603306 252 
L 254.603306 135.155949 
L 251.836364 135.155949 
z
" clip-path="url(#p28ebec03b4)" style="fill: #008000; opacity: 0.3"/>
   </g>
   <g id="patch_65">
    <path d="M 254.603306 252 
L 257.370248 252 
L 257.370248 145.123126 
L 254.603306 145.123126 
z
" clip-path="url(#p28ebec03b4)" style="fill: #008000; opacity: 0.3"/>
   </g>
   <g id="patch_66">
    <path d="M 257.370248 252 
L 260.13719 252 
L 260.13719 153.988263 
L 257.370248 153.988263 
z
" clip-path="url(#p28ebec03b4)" style="fill: #008000; opacity: 0.3"/>
   </g>
   <g id="patch_67">
    <path d="M 260.13719 252 
L 262.904132 252 
L 262.904132 167.170884 
L 260.13719 167.170884 
z
" clip-path="url(#p28ebec03b4)" style="fill: #008000; opacity: 0.3"/>
   </g>
   <g id="patch_68">
    <path d="M 262.904132 252 
L 265.671074 252 
L 265.671074 175.791899 
L 262.904132 175.791899 
z
" clip-path="url(#p28ebec03b4)" style="fill: #008000; opacity: 0.3"/>
   </g>
   <g id="patch_69">
    <path d="M 265.671074 252 
L 268.438017 252 
L 268.438017 184.85931 
L 265.671074 184.85931 
z
" clip-path="url(#p28ebec03b4)" style="fill: #008000; opacity: 0.3"/>
   </g>
   <g id="patch_70">
    <path d="M 268.438017 252 
L 271.204959 252 
L 271.204959 190.899601 
L 268.438017 190.899601 
z
" clip-path="url(#p28ebec03b4)" style="fill: #008000; opacity: 0.3"/>
   </g>
   <g id="patch_71">
    <path d="M 271.204959 252 
L 273.971901 252 
L 273.971901 200.699379 
L 271.204959 200.699379 
z
" clip-path="url(#p28ebec03b4)" style="fill: #008000; opacity: 0.3"/>
   </g>
   <g id="patch_72">
    <path d="M 273.971901 252 
L 276.738843 252 
L 276.738843 204.298444 
L 273.971901 204.298444 
z
" clip-path="url(#p28ebec03b4)" style="fill: #008000; opacity: 0.3"/>
   </g>
   <g id="patch_73">
    <path d="M 276.738843 252 
L 279.505785 252 
L 279.505785 207.24884 
L 276.738843 207.24884 
z
" clip-path="url(#p28ebec03b4)" style="fill: #008000; opacity: 0.3"/>
   </g>
   <g id="patch_74">
    <path d="M 279.505785 252 
L 282.272727 252 
L 282.272727 211.078077 
L 279.505785 211.078077 
z
" clip-path="url(#p28ebec03b4)" style="fill: #008000; opacity: 0.3"/>
   </g>
   <g id="patch_75">
    <path d="M 282.272727 252 
L 285.039669 252 
L 285.039669 213.547203 
L 282.272727 213.547203 
z
" clip-path="url(#p28ebec03b4)" style="fill: #008000; opacity: 0.3"/>
   </g>
   <g id="patch_76">
    <path d="M 285.039669 252 
L 287.806612 252 
L 287.806612 220.619783 
L 285.039669 220.619783 
z
" clip-path="url(#p28ebec03b4)" style="fill: #008000; opacity: 0.3"/>
   </g>
   <g id="patch_77">
    <path d="M 287.806612 252 
L 290.573554 252 
L 290.573554 225.04189 
L 287.806612 225.04189 
z
" clip-path="url(#p28ebec03b4)" style="fill: #008000; opacity: 0.3"/>
   </g>
   <g id="patch_78">
    <path d="M 290.573554 252 
L 293.340496 252 
L 293.340496 229.261724 
L 290.573554 229.261724 
z
" clip-path="url(#p28ebec03b4)" style="fill: #008000; opacity: 0.3"/>
   </g>
   <g id="patch_79">
    <path d="M 293.340496 252 
L 296.107438 252 
L 296.107438 234.137201 
L 293.340496 234.137201 
z
" clip-path="url(#p28ebec03b4)" style="fill: #008000; opacity: 0.3"/>
   </g>
   <g id="patch_80">
    <path d="M 296.107438 252 
L 298.87438 252 
L 298.87438 237.75719 
L 296.107438 237.75719 
z
" clip-path="url(#p28ebec03b4)" style="fill: #008000; opacity: 0.3"/>
   </g>
   <g id="patch_81">
    <path d="M 298.87438 252 
L 301.641322 252 
L 301.641322 239.675296 
L 298.87438 239.675296 
z
" clip-path="url(#p28ebec03b4)" style="fill: #008000; opacity: 0.3"/>
   </g>
   <g id="patch_82">
    <path d="M 301.641322 252 
L 304.408264 252 
L 304.408264 239.556722 
L 301.641322 239.556722 
z
" clip-path="url(#p28ebec03b4)" style="fill: #008000; opacity: 0.3"/>
   </g>
   <g id="patch_83">
    <path d="M 304.408264 252 
L 307.175207 252 
L 307.175207 239.249825 
L 304.408264 239.249825 
z
" clip-path="url(#p28ebec03b4)" style="fill: #008000; opacity: 0.3"/>
   </g>
   <g id="patch_84">
    <path d="M 307.175207 252 
L 309.942149 252 
L 309.942149 240.721536 
L 307.175207 240.721536 
z
" clip-path="url(#p28ebec03b4)" style="fill: #008000; opacity: 0.3"/>
   </g>
   <g id="patch_85">
    <path d="M 309.942149 252 
L 312.709091 252 
L 312.709091 242.165347 
L 309.942149 242.165347 
z
" clip-path="url(#p28ebec03b4)" style="fill: #008000; opacity: 0.3"/>
   </g>
   <g id="patch_86">
    <path d="M 312.709091 252 
L 315.476033 252 
L 315.476033 244.892545 
L 312.709091 244.892545 
z
" clip-path="url(#p28ebec03b4)" style="fill: #008000; opacity: 0.3"/>
   </g>
   <g id="patch_87">
    <path d="M 315.476033 252 
L 318.242975 252 
L 318.242975 246.89435 
L 315.476033 246.89435 
z
" clip-path="url(#p28ebec03b4)" style="fill: #008000; opacity: 0.3"/>
   </g>
   <g id="patch_88">
    <path d="M 318.242975 252 
L 321.009917 252 
L 321.009917 246.845526 
L 318.242975 246.845526 
z
" clip-path="url(#p28ebec03b4)" style="fill: #008000; opacity: 0.3"/>
   </g>
   <g id="patch_89">
    <path d="M 321.009917 252 
L 323.77686 252 
L 323.77686 248.324211 
L 321.009917 248.324211 
z
" clip-path="url(#p28ebec03b4)" style="fill: #008000; opacity: 0.3"/>
   </g>
   <g id="patch_90">
    <path d="M 323.77686 252 
L 326.543802 252 
L 326.543802 249.447175 
L 323.77686 249.447175 
z
" clip-path="url(#p28ebec03b4)" style="fill: #008000; opacity: 0.3"/>
   </g>
   <g id="patch_91">
    <path d="M 326.543802 252 
L 329.310744 252 
L 329.310744 248.854306 
L 326.543802 248.854306 
z
" clip-path="url(#p28ebec03b4)" style="fill: #008000; opacity: 0.3"/>
   </g>
   <g id="patch_92">
    <path d="M 329.310744 252 
L 332.077686 252 
L 332.077686 249.42625 
L 329.310744 249.42625 
z
" clip-path="url(#p28ebec03b4)" style="fill: #008000; opacity: 0.3"/>
   </g>
   <g id="patch_93">
    <path d="M 332.077686 252 
L 334.844628 252 
L 334.844628 250.193493 
L 332.077686 250.193493 
z
" clip-path="url(#p28ebec03b4)" style="fill: #008000; opacity: 0.3"/>
   </g>
   <g id="patch_94">
    <path d="M 334.844628 252 
L 337.61157 252 
L 337.61157 251.225783 
L 334.844628 251.225783 
z
" clip-path="url(#p28ebec03b4)" style="fill: #008000; opacity: 0.3"/>
   </g>
   <g id="patch_95">
    <path d="M 337.61157 252 
L 340.378512 252 
L 340.378512 251.511755 
L 337.61157 251.511755 
z
" clip-path="url(#p28ebec03b4)" style="fill: #008000; opacity: 0.3"/>
   </g>
   <g id="patch_96">
    <path d="M 340.378512 252 
L 343.145455 252 
L 343.145455 251.49083 
L 340.378512 251.49083 
z
" clip-path="url(#p28ebec03b4)" style="fill: #008000; opacity: 0.3"/>
   </g>
   <g id="patch_97">
    <path d="M 343.145455 252 
L 345.912397 252 
L 345.912397 251.435031 
L 343.145455 251.435031 
z
" clip-path="url(#p28ebec03b4)" style="fill: #008000; opacity: 0.3"/>
   </g>
   <g id="patch_98">
    <path d="M 345.912397 252 
L 348.679339 252 
L 348.679339 251.511755 
L 345.912397 251.511755 
z
" clip-path="url(#p28ebec03b4)" style="fill: #008000; opacity: 0.3"/>
   </g>
   <g id="patch_99">
    <path d="M 348.679339 252 
L 351.446281 252 
L 351.446281 251.351331 
L 348.679339 251.351331 
z
" clip-path="url(#p28ebec03b4)" style="fill: #008000; opacity: 0.3"/>
   </g>
   <g id="patch_100">
    <path d="M 351.446281 252 
L 354.213223 252 
L 354.213223 251.539655 
L 351.446281 251.539655 
z
" clip-path="url(#p28ebec03b4)" style="fill: #008000; opacity: 0.3"/>
   </g>
   <g id="patch_101">
    <path d="M 354.213223 252 
L 356.980165 252 
L 356.980165 251.49083 
L 354.213223 251.49083 
z
" clip-path="url(#p28ebec03b4)" style="fill: #008000; opacity: 0.3"/>
   </g>
   <g id="patch_102">
    <path d="M 356.980165 252 
L 359.747107 252 
L 359.747107 251.769827 
L 356.980165 251.769827 
z
" clip-path="url(#p28ebec03b4)" style="fill: #008000; opacity: 0.3"/>
   </g>
   <g id="matplotlib.axis_1">
    <g id="xtick_1">
     <g id="line2d_1">
      <defs>
       <path id="maba7daabd3" d="M 0 0 
L 0 3.5 
" style="stroke: #000000; stroke-width: 0.8"/>
      </defs>
      <g>
       <use xlink:href="#maba7daabd3" x="97.569481" y="252" style="stroke: #000000; stroke-width: 0.8"/>
      </g>
     </g>
     <g id="text_1">
      <!-- −1.0 -->
      <g transform="translate(85.428074 266.598437)scale(0.1 -0.1)">
       <defs>
        <path id="DejaVuSans-2212" d="M 678 2272 
L 4684 2272 
L 4684 1741 
L 678 1741 
L 678 2272 
z
" transform="scale(0.015625)"/>
        <path id="DejaVuSans-31" d="M 794 531 
L 1825 531 
L 1825 4091 
L 703 3866 
L 703 4441 
L 1819 4666 
L 2450 4666 
L 2450 531 
L 3481 531 
L 3481 0 
L 794 0 
L 794 531 
z
" transform="scale(0.015625)"/>
        <path id="DejaVuSans-2e" d="M 684 794 
L 1344 794 
L 1344 0 
L 684 0 
L 684 794 
z
" transform="scale(0.015625)"/>
        <path id="DejaVuSans-30" d="M 2034 4250 
Q 1547 4250 1301 3770 
Q 1056 3291 1056 2328 
Q 1056 1369 1301 889 
Q 1547 409 2034 409 
Q 2525 409 2770 889 
Q 3016 1369 3016 2328 
Q 3016 3291 2770 3770 
Q 2525 4250 2034 4250 
z
M 2034 4750 
Q 2819 4750 3233 4129 
Q 3647 3509 3647 2328 
Q 3647 1150 3233 529 
Q 2819 -91 2034 -91 
Q 1250 -91 836 529 
Q 422 1150 422 2328 
Q 422 3509 836 4129 
Q 1250 4750 2034 4750 
z
" transform="scale(0.015625)"/>
       </defs>
       <use xlink:href="#DejaVuSans-2212"/>
       <use xlink:href="#DejaVuSans-31" x="83.789062"/>
       <use xlink:href="#DejaVuSans-2e" x="147.412109"/>
       <use xlink:href="#DejaVuSans-30" x="179.199219"/>
      </g>
     </g>
    </g>
    <g id="xtick_2">
     <g id="line2d_2">
      <g>
       <use xlink:href="#maba7daabd3" x="155.758291" y="252" style="stroke: #000000; stroke-width: 0.8"/>
      </g>
     </g>
     <g id="text_2">
      <!-- −0.5 -->
      <g transform="translate(143.616885 266.598437)scale(0.1 -0.1)">
       <defs>
        <path id="DejaVuSans-35" d="M 691 4666 
L 3169 4666 
L 3169 4134 
L 1269 4134 
L 1269 2991 
Q 1406 3038 1543 3061 
Q 1681 3084 1819 3084 
Q 2600 3084 3056 2656 
Q 3513 2228 3513 1497 
Q 3513 744 3044 326 
Q 2575 -91 1722 -91 
Q 1428 -91 1123 -41 
Q 819 9 494 109 
L 494 744 
Q 775 591 1075 516 
Q 1375 441 1709 441 
Q 2250 441 2565 725 
Q 2881 1009 2881 1497 
Q 2881 1984 2565 2268 
Q 2250 2553 1709 2553 
Q 1456 2553 1204 2497 
Q 953 2441 691 2322 
L 691 4666 
z
" transform="scale(0.015625)"/>
       </defs>
       <use xlink:href="#DejaVuSans-2212"/>
       <use xlink:href="#DejaVuSans-30" x="83.789062"/>
       <use xlink:href="#DejaVuSans-2e" x="147.412109"/>
       <use xlink:href="#DejaVuSans-35" x="179.199219"/>
      </g>
     </g>
    </g>
    <g id="xtick_3">
     <g id="line2d_3">
      <g>
       <use xlink:href="#maba7daabd3" x="213.947101" y="252" style="stroke: #000000; stroke-width: 0.8"/>
      </g>
     </g>
     <g id="text_3">
      <!-- 0.0 -->
      <g transform="translate(205.995538 266.598437)scale(0.1 -0.1)">
       <use xlink:href="#DejaVuSans-30"/>
       <use xlink:href="#DejaVuSans-2e" x="63.623047"/>
       <use xlink:href="#DejaVuSans-30" x="95.410156"/>
      </g>
     </g>
    </g>
    <g id="xtick_4">
     <g id="line2d_4">
      <g>
       <use xlink:href="#maba7daabd3" x="272.135911" y="252" style="stroke: #000000; stroke-width: 0.8"/>
      </g>
     </g>
     <g id="text_4">
      <!-- 0.5 -->
      <g transform="translate(264.184349 266.598437)scale(0.1 -0.1)">
       <use xlink:href="#DejaVuSans-30"/>
       <use xlink:href="#DejaVuSans-2e" x="63.623047"/>
       <use xlink:href="#DejaVuSans-35" x="95.410156"/>
      </g>
     </g>
    </g>
    <g id="xtick_5">
     <g id="line2d_5">
      <g>
       <use xlink:href="#maba7daabd3" x="330.324721" y="252" style="stroke: #000000; stroke-width: 0.8"/>
      </g>
     </g>
     <g id="text_5">
      <!-- 1.0 -->
      <g transform="translate(322.373159 266.598437)scale(0.1 -0.1)">
       <use xlink:href="#DejaVuSans-31"/>
       <use xlink:href="#DejaVuSans-2e" x="63.623047"/>
       <use xlink:href="#DejaVuSans-30" x="95.410156"/>
      </g>
     </g>
    </g>
    <g id="xtick_6">
     <g id="line2d_6">
      <g>
       <use xlink:href="#maba7daabd3" x="388.513532" y="252" style="stroke: #000000; stroke-width: 0.8"/>
      </g>
     </g>
     <g id="text_6">
      <!-- 1.5 -->
      <g transform="translate(380.561969 266.598437)scale(0.1 -0.1)">
       <use xlink:href="#DejaVuSans-31"/>
       <use xlink:href="#DejaVuSans-2e" x="63.623047"/>
       <use xlink:href="#DejaVuSans-35" x="95.410156"/>
      </g>
     </g>
    </g>
    <g id="text_7">
     <!-- Values of X's Observed Positions -->
     <g transform="translate(140.358594 280.276563)scale(0.1 -0.1)">
      <defs>
       <path id="DejaVuSans-56" d="M 1831 0 
L 50 4666 
L 709 4666 
L 2188 738 
L 3669 4666 
L 4325 4666 
L 2547 0 
L 1831 0 
z
" transform="scale(0.015625)"/>
       <path id="DejaVuSans-61" d="M 2194 1759 
Q 1497 1759 1228 1600 
Q 959 1441 959 1056 
Q 959 750 1161 570 
Q 1363 391 1709 391 
Q 2188 391 2477 730 
Q 2766 1069 2766 1631 
L 2766 1759 
L 2194 1759 
z
M 3341 1997 
L 3341 0 
L 2766 0 
L 2766 531 
Q 2569 213 2275 61 
Q 1981 -91 1556 -91 
Q 1019 -91 701 211 
Q 384 513 384 1019 
Q 384 1609 779 1909 
Q 1175 2209 1959 2209 
L 2766 2209 
L 2766 2266 
Q 2766 2663 2505 2880 
Q 2244 3097 1772 3097 
Q 1472 3097 1187 3025 
Q 903 2953 641 2809 
L 641 3341 
Q 956 3463 1253 3523 
Q 1550 3584 1831 3584 
Q 2591 3584 2966 3190 
Q 3341 2797 3341 1997 
z
" transform="scale(0.015625)"/>
       <path id="DejaVuSans-6c" d="M 603 4863 
L 1178 4863 
L 1178 0 
L 603 0 
L 603 4863 
z
" transform="scale(0.015625)"/>
       <path id="DejaVuSans-75" d="M 544 1381 
L 544 3500 
L 1119 3500 
L 1119 1403 
Q 1119 906 1312 657 
Q 1506 409 1894 409 
Q 2359 409 2629 706 
Q 2900 1003 2900 1516 
L 2900 3500 
L 3475 3500 
L 3475 0 
L 2900 0 
L 2900 538 
Q 2691 219 2414 64 
Q 2138 -91 1772 -91 
Q 1169 -91 856 284 
Q 544 659 544 1381 
z
M 1991 3584 
L 1991 3584 
z
" transform="scale(0.015625)"/>
       <path id="DejaVuSans-65" d="M 3597 1894 
L 3597 1613 
L 953 1613 
Q 991 1019 1311 708 
Q 1631 397 2203 397 
Q 2534 397 2845 478 
Q 3156 559 3463 722 
L 3463 178 
Q 3153 47 2828 -22 
Q 2503 -91 2169 -91 
Q 1331 -91 842 396 
Q 353 884 353 1716 
Q 353 2575 817 3079 
Q 1281 3584 2069 3584 
Q 2775 3584 3186 3129 
Q 3597 2675 3597 1894 
z
M 3022 2063 
Q 3016 2534 2758 2815 
Q 2500 3097 2075 3097 
Q 1594 3097 1305 2825 
Q 1016 2553 972 2059 
L 3022 2063 
z
" transform="scale(0.015625)"/>
       <path id="DejaVuSans-73" d="M 2834 3397 
L 2834 2853 
Q 2591 2978 2328 3040 
Q 2066 3103 1784 3103 
Q 1356 3103 1142 2972 
Q 928 2841 928 2578 
Q 928 2378 1081 2264 
Q 1234 2150 1697 2047 
L 1894 2003 
Q 2506 1872 2764 1633 
Q 3022 1394 3022 966 
Q 3022 478 2636 193 
Q 2250 -91 1575 -91 
Q 1294 -91 989 -36 
Q 684 19 347 128 
L 347 722 
Q 666 556 975 473 
Q 1284 391 1588 391 
Q 1994 391 2212 530 
Q 2431 669 2431 922 
Q 2431 1156 2273 1281 
Q 2116 1406 1581 1522 
L 1381 1569 
Q 847 1681 609 1914 
Q 372 2147 372 2553 
Q 372 3047 722 3315 
Q 1072 3584 1716 3584 
Q 2034 3584 2315 3537 
Q 2597 3491 2834 3397 
z
" transform="scale(0.015625)"/>
       <path id="DejaVuSans-20" transform="scale(0.015625)"/>
       <path id="DejaVuSans-6f" d="M 1959 3097 
Q 1497 3097 1228 2736 
Q 959 2375 959 1747 
Q 959 1119 1226 758 
Q 1494 397 1959 397 
Q 2419 397 2687 759 
Q 2956 1122 2956 1747 
Q 2956 2369 2687 2733 
Q 2419 3097 1959 3097 
z
M 1959 3584 
Q 2709 3584 3137 3096 
Q 3566 2609 3566 1747 
Q 3566 888 3137 398 
Q 2709 -91 1959 -91 
Q 1206 -91 779 398 
Q 353 888 353 1747 
Q 353 2609 779 3096 
Q 1206 3584 1959 3584 
z
" transform="scale(0.015625)"/>
       <path id="DejaVuSans-66" d="M 2375 4863 
L 2375 4384 
L 1825 4384 
Q 1516 4384 1395 4259 
Q 1275 4134 1275 3809 
L 1275 3500 
L 2222 3500 
L 2222 3053 
L 1275 3053 
L 1275 0 
L 697 0 
L 697 3053 
L 147 3053 
L 147 3500 
L 697 3500 
L 697 3744 
Q 697 4328 969 4595 
Q 1241 4863 1831 4863 
L 2375 4863 
z
" transform="scale(0.015625)"/>
       <path id="DejaVuSans-58" d="M 403 4666 
L 1081 4666 
L 2241 2931 
L 3406 4666 
L 4084 4666 
L 2584 2425 
L 4184 0 
L 3506 0 
L 2194 1984 
L 872 0 
L 191 0 
L 1856 2491 
L 403 4666 
z
" transform="scale(0.015625)"/>
       <path id="DejaVuSans-27" d="M 1147 4666 
L 1147 2931 
L 616 2931 
L 616 4666 
L 1147 4666 
z
" transform="scale(0.015625)"/>
       <path id="DejaVuSans-4f" d="M 2522 4238 
Q 1834 4238 1429 3725 
Q 1025 3213 1025 2328 
Q 1025 1447 1429 934 
Q 1834 422 2522 422 
Q 3209 422 3611 934 
Q 4013 1447 4013 2328 
Q 4013 3213 3611 3725 
Q 3209 4238 2522 4238 
z
M 2522 4750 
Q 3503 4750 4090 4092 
Q 4678 3434 4678 2328 
Q 4678 1225 4090 567 
Q 3503 -91 2522 -91 
Q 1538 -91 948 565 
Q 359 1222 359 2328 
Q 359 3434 948 4092 
Q 1538 4750 2522 4750 
z
" transform="scale(0.015625)"/>
       <path id="DejaVuSans-62" d="M 3116 1747 
Q 3116 2381 2855 2742 
Q 2594 3103 2138 3103 
Q 1681 3103 1420 2742 
Q 1159 2381 1159 1747 
Q 1159 1113 1420 752 
Q 1681 391 2138 391 
Q 2594 391 2855 752 
Q 3116 1113 3116 1747 
z
M 1159 2969 
Q 1341 3281 1617 3432 
Q 1894 3584 2278 3584 
Q 2916 3584 3314 3078 
Q 3713 2572 3713 1747 
Q 3713 922 3314 415 
Q 2916 -91 2278 -91 
Q 1894 -91 1617 61 
Q 1341 213 1159 525 
L 1159 0 
L 581 0 
L 581 4863 
L 1159 4863 
L 1159 2969 
z
" transform="scale(0.015625)"/>
       <path id="DejaVuSans-72" d="M 2631 2963 
Q 2534 3019 2420 3045 
Q 2306 3072 2169 3072 
Q 1681 3072 1420 2755 
Q 1159 2438 1159 1844 
L 1159 0 
L 581 0 
L 581 3500 
L 1159 3500 
L 1159 2956 
Q 1341 3275 1631 3429 
Q 1922 3584 2338 3584 
Q 2397 3584 2469 3576 
Q 2541 3569 2628 3553 
L 2631 2963 
z
" transform="scale(0.015625)"/>
       <path id="DejaVuSans-76" d="M 191 3500 
L 800 3500 
L 1894 563 
L 2988 3500 
L 3597 3500 
L 2284 0 
L 1503 0 
L 191 3500 
z
" transform="scale(0.015625)"/>
       <path id="DejaVuSans-64" d="M 2906 2969 
L 2906 4863 
L 3481 4863 
L 3481 0 
L 2906 0 
L 2906 525 
Q 2725 213 2448 61 
Q 2172 -91 1784 -91 
Q 1150 -91 751 415 
Q 353 922 353 1747 
Q 353 2572 751 3078 
Q 1150 3584 1784 3584 
Q 2172 3584 2448 3432 
Q 2725 3281 2906 2969 
z
M 947 1747 
Q 947 1113 1208 752 
Q 1469 391 1925 391 
Q 2381 391 2643 752 
Q 2906 1113 2906 1747 
Q 2906 2381 2643 2742 
Q 2381 3103 1925 3103 
Q 1469 3103 1208 2742 
Q 947 2381 947 1747 
z
" transform="scale(0.015625)"/>
       <path id="DejaVuSans-50" d="M 1259 4147 
L 1259 2394 
L 2053 2394 
Q 2494 2394 2734 2622 
Q 2975 2850 2975 3272 
Q 2975 3691 2734 3919 
Q 2494 4147 2053 4147 
L 1259 4147 
z
M 628 4666 
L 2053 4666 
Q 2838 4666 3239 4311 
Q 3641 3956 3641 3272 
Q 3641 2581 3239 2228 
Q 2838 1875 2053 1875 
L 1259 1875 
L 1259 0 
L 628 0 
L 628 4666 
z
" transform="scale(0.015625)"/>
       <path id="DejaVuSans-69" d="M 603 3500 
L 1178 3500 
L 1178 0 
L 603 0 
L 603 3500 
z
M 603 4863 
L 1178 4863 
L 1178 4134 
L 603 4134 
L 603 4863 
z
" transform="scale(0.015625)"/>
       <path id="DejaVuSans-74" d="M 1172 4494 
L 1172 3500 
L 2356 3500 
L 2356 3053 
L 1172 3053 
L 1172 1153 
Q 1172 725 1289 603 
Q 1406 481 1766 481 
L 2356 481 
L 2356 0 
L 1766 0 
Q 1100 0 847 248 
Q 594 497 594 1153 
L 594 3053 
L 172 3053 
L 172 3500 
L 594 3500 
L 594 4494 
L 1172 4494 
z
" transform="scale(0.015625)"/>
       <path id="DejaVuSans-6e" d="M 3513 2113 
L 3513 0 
L 2938 0 
L 2938 2094 
Q 2938 2591 2744 2837 
Q 2550 3084 2163 3084 
Q 1697 3084 1428 2787 
Q 1159 2491 1159 1978 
L 1159 0 
L 581 0 
L 581 3500 
L 1159 3500 
L 1159 2956 
Q 1366 3272 1645 3428 
Q 1925 3584 2291 3584 
Q 2894 3584 3203 3211 
Q 3513 2838 3513 2113 
z
" transform="scale(0.015625)"/>
      </defs>
      <use xlink:href="#DejaVuSans-56"/>
      <use xlink:href="#DejaVuSans-61" x="60.658203"/>
      <use xlink:href="#DejaVuSans-6c" x="121.9375"/>
      <use xlink:href="#DejaVuSans-75" x="149.720703"/>
      <use xlink:href="#DejaVuSans-65" x="213.099609"/>
      <use xlink:href="#DejaVuSans-73" x="274.623047"/>
      <use xlink:href="#DejaVuSans-20" x="326.722656"/>
      <use xlink:href="#DejaVuSans-6f" x="358.509766"/>
      <use xlink:href="#DejaVuSans-66" x="419.691406"/>
      <use xlink:href="#DejaVuSans-20" x="454.896484"/>
      <use xlink:href="#DejaVuSans-58" x="486.683594"/>
      <use xlink:href="#DejaVuSans-27" x="555.189453"/>
      <use xlink:href="#DejaVuSans-73" x="582.679688"/>
      <use xlink:href="#DejaVuSans-20" x="634.779297"/>
      <use xlink:href="#DejaVuSans-4f" x="666.566406"/>
      <use xlink:href="#DejaVuSans-62" x="745.277344"/>
      <use xlink:href="#DejaVuSans-73" x="808.753906"/>
      <use xlink:href="#DejaVuSans-65" x="860.853516"/>
      <use xlink:href="#DejaVuSans-72" x="922.376953"/>
      <use xlink:href="#DejaVuSans-76" x="963.490234"/>
      <use xlink:href="#DejaVuSans-65" x="1022.669922"/>
      <use xlink:href="#DejaVuSans-64" x="1084.193359"/>
      <use xlink:href="#DejaVuSans-20" x="1147.669922"/>
      <use xlink:href="#DejaVuSans-50" x="1179.457031"/>
      <use xlink:href="#DejaVuSans-6f" x="1236.134766"/>
      <use xlink:href="#DejaVuSans-73" x="1297.316406"/>
      <use xlink:href="#DejaVuSans-69" x="1349.416016"/>
      <use xlink:href="#DejaVuSans-74" x="1377.199219"/>
      <use xlink:href="#DejaVuSans-69" x="1416.408203"/>
      <use xlink:href="#DejaVuSans-6f" x="1444.191406"/>
      <use xlink:href="#DejaVuSans-6e" x="1505.373047"/>
      <use xlink:href="#DejaVuSans-73" x="1568.751953"/>
     </g>
    </g>
   </g>
   <g id="matplotlib.axis_2">
    <g id="ytick_1">
     <g id="line2d_7">
      <defs>
       <path id="mb06905dbc0" d="M 0 0 
L -3.5 0 
" style="stroke: #000000; stroke-width: 0.8"/>
      </defs>
      <g>
       <use xlink:href="#mb06905dbc0" x="54" y="252" style="stroke: #000000; stroke-width: 0.8"/>
      </g>
     </g>
     <g id="text_8">
      <!-- 0.0 -->
      <g transform="translate(31.096875 255.799219)scale(0.1 -0.1)">
       <use xlink:href="#DejaVuSans-30"/>
       <use xlink:href="#DejaVuSans-2e" x="63.623047"/>
       <use xlink:href="#DejaVuSans-30" x="95.410156"/>
      </g>
     </g>
    </g>
    <g id="ytick_2">
     <g id="line2d_8">
      <g>
       <use xlink:href="#mb06905dbc0" x="54" y="218.833398" style="stroke: #000000; stroke-width: 0.8"/>
      </g>
     </g>
     <g id="text_9">
      <!-- 0.2 -->
      <g transform="translate(31.096875 222.632617)scale(0.1 -0.1)">
       <defs>
        <path id="DejaVuSans-32" d="M 1228 531 
L 3431 531 
L 3431 0 
L 469 0 
L 469 531 
Q 828 903 1448 1529 
Q 2069 2156 2228 2338 
Q 2531 2678 2651 2914 
Q 2772 3150 2772 3378 
Q 2772 3750 2511 3984 
Q 2250 4219 1831 4219 
Q 1534 4219 1204 4116 
Q 875 4013 500 3803 
L 500 4441 
Q 881 4594 1212 4672 
Q 1544 4750 1819 4750 
Q 2544 4750 2975 4387 
Q 3406 4025 3406 3419 
Q 3406 3131 3298 2873 
Q 3191 2616 2906 2266 
Q 2828 2175 2409 1742 
Q 1991 1309 1228 531 
z
" transform="scale(0.015625)"/>
       </defs>
       <use xlink:href="#DejaVuSans-30"/>
       <use xlink:href="#DejaVuSans-2e" x="63.623047"/>
       <use xlink:href="#DejaVuSans-32" x="95.410156"/>
      </g>
     </g>
    </g>
    <g id="ytick_3">
     <g id="line2d_9">
      <g>
       <use xlink:href="#mb06905dbc0" x="54" y="185.666796" style="stroke: #000000; stroke-width: 0.8"/>
      </g>
     </g>
     <g id="text_10">
      <!-- 0.4 -->
      <g transform="translate(31.096875 189.466015)scale(0.1 -0.1)">
       <defs>
        <path id="DejaVuSans-34" d="M 2419 4116 
L 825 1625 
L 2419 1625 
L 2419 4116 
z
M 2253 4666 
L 3047 4666 
L 3047 1625 
L 3713 1625 
L 3713 1100 
L 3047 1100 
L 3047 0 
L 2419 0 
L 2419 1100 
L 313 1100 
L 313 1709 
L 2253 4666 
z
" transform="scale(0.015625)"/>
       </defs>
       <use xlink:href="#DejaVuSans-30"/>
       <use xlink:href="#DejaVuSans-2e" x="63.623047"/>
       <use xlink:href="#DejaVuSans-34" x="95.410156"/>
      </g>
     </g>
    </g>
    <g id="ytick_4">
     <g id="line2d_10">
      <g>
       <use xlink:href="#mb06905dbc0" x="54" y="152.500194" style="stroke: #000000; stroke-width: 0.8"/>
      </g>
     </g>
     <g id="text_11">
      <!-- 0.6 -->
      <g transform="translate(31.096875 156.299413)scale(0.1 -0.1)">
       <defs>
        <path id="DejaVuSans-36" d="M 2113 2584 
Q 1688 2584 1439 2293 
Q 1191 2003 1191 1497 
Q 1191 994 1439 701 
Q 1688 409 2113 409 
Q 2538 409 2786 701 
Q 3034 994 3034 1497 
Q 3034 2003 2786 2293 
Q 2538 2584 2113 2584 
z
M 3366 4563 
L 3366 3988 
Q 3128 4100 2886 4159 
Q 2644 4219 2406 4219 
Q 1781 4219 1451 3797 
Q 1122 3375 1075 2522 
Q 1259 2794 1537 2939 
Q 1816 3084 2150 3084 
Q 2853 3084 3261 2657 
Q 3669 2231 3669 1497 
Q 3669 778 3244 343 
Q 2819 -91 2113 -91 
Q 1303 -91 875 529 
Q 447 1150 447 2328 
Q 447 3434 972 4092 
Q 1497 4750 2381 4750 
Q 2619 4750 2861 4703 
Q 3103 4656 3366 4563 
z
" transform="scale(0.015625)"/>
       </defs>
       <use xlink:href="#DejaVuSans-30"/>
       <use xlink:href="#DejaVuSans-2e" x="63.623047"/>
       <use xlink:href="#DejaVuSans-36" x="95.410156"/>
      </g>
     </g>
    </g>
    <g id="ytick_5">
     <g id="line2d_11">
      <g>
       <use xlink:href="#mb06905dbc0" x="54" y="119.333592" style="stroke: #000000; stroke-width: 0.8"/>
      </g>
     </g>
     <g id="text_12">
      <!-- 0.8 -->
      <g transform="translate(31.096875 123.132811)scale(0.1 -0.1)">
       <defs>
        <path id="DejaVuSans-38" d="M 2034 2216 
Q 1584 2216 1326 1975 
Q 1069 1734 1069 1313 
Q 1069 891 1326 650 
Q 1584 409 2034 409 
Q 2484 409 2743 651 
Q 3003 894 3003 1313 
Q 3003 1734 2745 1975 
Q 2488 2216 2034 2216 
z
M 1403 2484 
Q 997 2584 770 2862 
Q 544 3141 544 3541 
Q 544 4100 942 4425 
Q 1341 4750 2034 4750 
Q 2731 4750 3128 4425 
Q 3525 4100 3525 3541 
Q 3525 3141 3298 2862 
Q 3072 2584 2669 2484 
Q 3125 2378 3379 2068 
Q 3634 1759 3634 1313 
Q 3634 634 3220 271 
Q 2806 -91 2034 -91 
Q 1263 -91 848 271 
Q 434 634 434 1313 
Q 434 1759 690 2068 
Q 947 2378 1403 2484 
z
M 1172 3481 
Q 1172 3119 1398 2916 
Q 1625 2713 2034 2713 
Q 2441 2713 2670 2916 
Q 2900 3119 2900 3481 
Q 2900 3844 2670 4047 
Q 2441 4250 2034 4250 
Q 1625 4250 1398 4047 
Q 1172 3844 1172 3481 
z
" transform="scale(0.015625)"/>
       </defs>
       <use xlink:href="#DejaVuSans-30"/>
       <use xlink:href="#DejaVuSans-2e" x="63.623047"/>
       <use xlink:href="#DejaVuSans-38" x="95.410156"/>
      </g>
     </g>
    </g>
    <g id="ytick_6">
     <g id="line2d_12">
      <g>
       <use xlink:href="#mb06905dbc0" x="54" y="86.16699" style="stroke: #000000; stroke-width: 0.8"/>
      </g>
     </g>
     <g id="text_13">
      <!-- 1.0 -->
      <g transform="translate(31.096875 89.966209)scale(0.1 -0.1)">
       <use xlink:href="#DejaVuSans-31"/>
       <use xlink:href="#DejaVuSans-2e" x="63.623047"/>
       <use xlink:href="#DejaVuSans-30" x="95.410156"/>
      </g>
     </g>
    </g>
    <g id="ytick_7">
     <g id="line2d_13">
      <g>
       <use xlink:href="#mb06905dbc0" x="54" y="53.000388" style="stroke: #000000; stroke-width: 0.8"/>
      </g>
     </g>
     <g id="text_14">
      <!-- 1.2 -->
      <g transform="translate(31.096875 56.799607)scale(0.1 -0.1)">
       <use xlink:href="#DejaVuSans-31"/>
       <use xlink:href="#DejaVuSans-2e" x="63.623047"/>
       <use xlink:href="#DejaVuSans-32" x="95.410156"/>
      </g>
     </g>
    </g>
    <g id="text_15">
     <!-- Probability Density -->
     <g transform="translate(25.017187 190.306563)rotate(-90)scale(0.1 -0.1)">
      <defs>
       <path id="DejaVuSans-79" d="M 2059 -325 
Q 1816 -950 1584 -1140 
Q 1353 -1331 966 -1331 
L 506 -1331 
L 506 -850 
L 844 -850 
Q 1081 -850 1212 -737 
Q 1344 -625 1503 -206 
L 1606 56 
L 191 3500 
L 800 3500 
L 1894 763 
L 2988 3500 
L 3597 3500 
L 2059 -325 
z
" transform="scale(0.015625)"/>
       <path id="DejaVuSans-44" d="M 1259 4147 
L 1259 519 
L 2022 519 
Q 2988 519 3436 956 
Q 3884 1394 3884 2338 
Q 3884 3275 3436 3711 
Q 2988 4147 2022 4147 
L 1259 4147 
z
M 628 4666 
L 1925 4666 
Q 3281 4666 3915 4102 
Q 4550 3538 4550 2338 
Q 4550 1131 3912 565 
Q 3275 0 1925 0 
L 628 0 
L 628 4666 
z
" transform="scale(0.015625)"/>
      </defs>
      <use xlink:href="#DejaVuSans-50"/>
      <use xlink:href="#DejaVuSans-72" x="58.552734"/>
      <use xlink:href="#DejaVuSans-6f" x="97.416016"/>
      <use xlink:href="#DejaVuSans-62" x="158.597656"/>
      <use xlink:href="#DejaVuSans-61" x="222.074219"/>
      <use xlink:href="#DejaVuSans-62" x="283.353516"/>
      <use xlink:href="#DejaVuSans-69" x="346.830078"/>
      <use xlink:href="#DejaVuSans-6c" x="374.613281"/>
      <use xlink:href="#DejaVuSans-69" x="402.396484"/>
      <use xlink:href="#DejaVuSans-74" x="430.179688"/>
      <use xlink:href="#DejaVuSans-79" x="469.388672"/>
      <use xlink:href="#DejaVuSans-20" x="528.568359"/>
      <use xlink:href="#DejaVuSans-44" x="560.355469"/>
      <use xlink:href="#DejaVuSans-65" x="637.357422"/>
      <use xlink:href="#DejaVuSans-6e" x="698.880859"/>
      <use xlink:href="#DejaVuSans-73" x="762.259766"/>
      <use xlink:href="#DejaVuSans-69" x="814.359375"/>
      <use xlink:href="#DejaVuSans-74" x="842.142578"/>
      <use xlink:href="#DejaVuSans-79" x="881.351562"/>
     </g>
    </g>
   </g>
   <g id="line2d_14">
    <path d="M 69.218182 251.888529 
L 72.292562 251.847021 
L 75.366942 251.791481 
L 78.441322 251.717702 
L 81.515702 251.62041 
L 84.590083 251.493046 
L 87.664463 251.327538 
L 90.738843 251.114042 
L 93.813223 250.840676 
L 96.887603 250.493245 
L 99.961983 250.054971 
L 103.036364 249.506233 
L 106.110744 248.824357 
L 109.185124 247.983447 
L 112.259504 246.9543 
L 115.333884 245.704425 
L 118.408264 244.19819 
L 121.482645 242.397121 
L 124.557025 240.260392 
L 127.631405 237.745507 
L 130.705785 234.809203 
L 133.780165 231.40858 
L 136.854545 227.50245 
L 139.928926 223.0529 
L 143.003306 218.02703 
L 146.077686 212.398828 
L 149.152066 206.151132 
L 152.226446 199.27759 
L 155.300826 191.784549 
L 158.375207 183.692768 
L 161.449587 175.03886 
L 164.523967 165.876365 
L 167.598347 156.276346 
L 170.672727 146.327437 
L 173.747107 136.135266 
L 176.821488 125.82121 
L 179.895868 115.520476 
L 182.970248 105.379499 
L 186.044628 95.552742 
L 189.119008 86.198953 
L 192.193388 77.477013 
L 195.267769 69.541516 
L 198.342149 62.53825 
L 201.416529 56.599764 
L 204.490909 51.841204 
L 207.565289 48.356604 
L 210.639669 46.215794 
L 213.71405 45.462077 
L 216.78843 46.110771 
L 219.86281 48.148691 
L 222.93719 51.534593 
L 226.01157 56.200566 
L 229.08595 62.054294 
L 232.160331 68.982093 
L 235.234711 76.852579 
L 238.309091 85.520806 
L 241.383471 94.832683 
L 244.457851 104.629496 
L 247.532231 114.752337 
L 250.606612 125.046289 
L 253.680992 135.364192 
L 256.755372 145.569903 
L 259.829752 155.540929 
L 262.904132 165.170411 
L 265.978512 174.368412 
L 269.052893 183.062544 
L 272.127273 191.197968 
L 275.201653 198.736832 
L 278.276033 205.657235 
L 281.350413 211.951804 
L 284.424793 217.626004 
L 287.499174 222.696254 
L 290.573554 227.187968 
L 293.647934 231.133598 
L 296.722314 234.570744 
L 299.796694 237.540403 
L 302.871074 240.085396 
L 305.945455 242.249002 
L 309.019835 244.073808 
L 312.094215 245.600793 
L 315.168595 246.868624 
L 318.242975 247.913161 
L 321.317355 248.767137 
L 324.391736 249.460004 
L 327.466116 250.017903 
L 330.540496 250.463747 
L 333.614876 250.817376 
L 336.689256 251.095774 
L 339.763636 251.313322 
L 342.838017 251.482065 
L 345.912397 251.61199 
L 348.986777 251.711293 
L 352.061157 251.786638 
L 355.135537 251.843388 
L 358.209917 251.885824 
L 361.284298 251.917325 
L 364.358678 251.940541 
L 367.433058 251.957527 
L 370.507438 251.969867 
L 373.581818 251.978766 
" clip-path="url(#p28ebec03b4)" style="fill: none; stroke: #000000; stroke-width: 2; stroke-linecap: square"/>
   </g>
   <g id="patch_103">
    <path d="M 54 252 
L 54 34.56 
" style="fill: none; stroke: #000000; stroke-width: 0.8; stroke-linejoin: miter; stroke-linecap: square"/>
   </g>
   <g id="patch_104">
    <path d="M 388.8 252 
L 388.8 34.56 
" style="fill: none; stroke: #000000; stroke-width: 0.8; stroke-linejoin: miter; stroke-linecap: square"/>
   </g>
   <g id="patch_105">
    <path d="M 54 252 
L 388.8 252 
" style="fill: none; stroke: #000000; stroke-width: 0.8; stroke-linejoin: miter; stroke-linecap: square"/>
   </g>
   <g id="patch_106">
    <path d="M 54 34.56 
L 388.8 34.56 
" style="fill: none; stroke: #000000; stroke-width: 0.8; stroke-linejoin: miter; stroke-linecap: square"/>
   </g>
  </g>
 </g>
 <defs>
  <clipPath id="p28ebec03b4">
   <rect x="54" y="34.56" width="334.8" height="217.44"/>
  </clipPath>
 </defs>
</svg>
