<?xml version="1.0" encoding="utf-8" standalone="no"?>
<!DOCTYPE svg PUBLIC "-//W3C//DTD SVG 1.1//EN"
  "http://www.w3.org/Graphics/SVG/1.1/DTD/svg11.dtd">
<svg xmlns:xlink="http://www.w3.org/1999/xlink" width="432pt" height="288pt" viewBox="0 0 432 288" xmlns="http://www.w3.org/2000/svg" version="1.1">
 <metadata>
  <rdf:RDF xmlns:dc="http://purl.org/dc/elements/1.1/" xmlns:cc="http://creativecommons.org/ns#" xmlns:rdf="http://www.w3.org/1999/02/22-rdf-syntax-ns#">
   <cc:Work>
    <dc:type rdf:resource="http://purl.org/dc/dcmitype/StillImage"/>
    <dc:date>2022-11-30T21:12:52.586162</dc:date>
    <dc:format>image/svg+xml</dc:format>
    <dc:creator>
     <cc:Agent>
      <dc:title>Matplotlib v3.5.1, https://matplotlib.org/</dc:title>
     </cc:Agent>
    </dc:creator>
   </cc:Work>
  </rdf:RDF>
 </metadata>
 <defs>
  <style type="text/css">*{stroke-linejoin: round; stroke-linecap: butt}</style>
 </defs>
 <g id="figure_1">
  <g id="patch_1">
   <path d="M 0 288 
L 432 288 
L 432 0 
L 0 0 
L 0 288 
z
" style="fill: none"/>
  </g>
  <g id="axes_1">
   <g id="patch_2">
    <path d="M 54 252 
L 388.8 252 
L 388.8 34.56 
L 54 34.56 
z
" style="fill: #ffffff"/>
   </g>
   <g id="matplotlib.axis_1">
    <g id="xtick_1">
     <g id="line2d_1">
      <defs>
       <path id="m50412a3e2c" d="M 0 0 
L 0 3.5 
" style="stroke: #000000; stroke-width: 0.8"/>
      </defs>
      <g>
       <use xlink:href="#m50412a3e2c" x="69.218182" y="252" style="stroke: #000000; stroke-width: 0.8"/>
      </g>
     </g>
     <g id="text_1">
      <!-- 0 -->
      <g transform="translate(66.036932 266.598437)scale(0.1 -0.1)">
       <defs>
        <path id="DejaVuSans-30" d="M 2034 4250 
Q 1547 4250 1301 3770 
Q 1056 3291 1056 2328 
Q 1056 1369 1301 889 
Q 1547 409 2034 409 
Q 2525 409 2770 889 
Q 3016 1369 3016 2328 
Q 3016 3291 2770 3770 
Q 2525 4250 2034 4250 
z
M 2034 4750 
Q 2819 4750 3233 4129 
Q 3647 3509 3647 2328 
Q 3647 1150 3233 529 
Q 2819 -91 2034 -91 
Q 1250 -91 836 529 
Q 422 1150 422 2328 
Q 422 3509 836 4129 
Q 1250 4750 2034 4750 
z
" transform="scale(0.015625)"/>
       </defs>
       <use xlink:href="#DejaVuSans-30"/>
      </g>
     </g>
    </g>
    <g id="xtick_2">
     <g id="line2d_2">
      <g>
       <use xlink:href="#m50412a3e2c" x="130.090909" y="252" style="stroke: #000000; stroke-width: 0.8"/>
      </g>
     </g>
     <g id="text_2">
      <!-- 2 -->
      <g transform="translate(126.909659 266.598437)scale(0.1 -0.1)">
       <defs>
        <path id="DejaVuSans-32" d="M 1228 531 
L 3431 531 
L 3431 0 
L 469 0 
L 469 531 
Q 828 903 1448 1529 
Q 2069 2156 2228 2338 
Q 2531 2678 2651 2914 
Q 2772 3150 2772 3378 
Q 2772 3750 2511 3984 
Q 2250 4219 1831 4219 
Q 1534 4219 1204 4116 
Q 875 4013 500 3803 
L 500 4441 
Q 881 4594 1212 4672 
Q 1544 4750 1819 4750 
Q 2544 4750 2975 4387 
Q 3406 4025 3406 3419 
Q 3406 3131 3298 2873 
Q 3191 2616 2906 2266 
Q 2828 2175 2409 1742 
Q 1991 1309 1228 531 
z
" transform="scale(0.015625)"/>
       </defs>
       <use xlink:href="#DejaVuSans-32"/>
      </g>
     </g>
    </g>
    <g id="xtick_3">
     <g id="line2d_3">
      <g>
       <use xlink:href="#m50412a3e2c" x="190.963636" y="252" style="stroke: #000000; stroke-width: 0.8"/>
      </g>
     </g>
     <g id="text_3">
      <!-- 4 -->
      <g transform="translate(187.782386 266.598437)scale(0.1 -0.1)">
       <defs>
        <path id="DejaVuSans-34" d="M 2419 4116 
L 825 1625 
L 2419 1625 
L 2419 4116 
z
M 2253 4666 
L 3047 4666 
L 3047 1625 
L 3713 1625 
L 3713 1100 
L 3047 1100 
L 3047 0 
L 2419 0 
L 2419 1100 
L 313 1100 
L 313 1709 
L 2253 4666 
z
" transform="scale(0.015625)"/>
       </defs>
       <use xlink:href="#DejaVuSans-34"/>
      </g>
     </g>
    </g>
    <g id="xtick_4">
     <g id="line2d_4">
      <g>
       <use xlink:href="#m50412a3e2c" x="251.836364" y="252" style="stroke: #000000; stroke-width: 0.8"/>
      </g>
     </g>
     <g id="text_4">
      <!-- 6 -->
      <g transform="translate(248.655114 266.598437)scale(0.1 -0.1)">
       <defs>
        <path id="DejaVuSans-36" d="M 2113 2584 
Q 1688 2584 1439 2293 
Q 1191 2003 1191 1497 
Q 1191 994 1439 701 
Q 1688 409 2113 409 
Q 2538 409 2786 701 
Q 3034 994 3034 1497 
Q 3034 2003 2786 2293 
Q 2538 2584 2113 2584 
z
M 3366 4563 
L 3366 3988 
Q 3128 4100 2886 4159 
Q 2644 4219 2406 4219 
Q 1781 4219 1451 3797 
Q 1122 3375 1075 2522 
Q 1259 2794 1537 2939 
Q 1816 3084 2150 3084 
Q 2853 3084 3261 2657 
Q 3669 2231 3669 1497 
Q 3669 778 3244 343 
Q 2819 -91 2113 -91 
Q 1303 -91 875 529 
Q 447 1150 447 2328 
Q 447 3434 972 4092 
Q 1497 4750 2381 4750 
Q 2619 4750 2861 4703 
Q 3103 4656 3366 4563 
z
" transform="scale(0.015625)"/>
       </defs>
       <use xlink:href="#DejaVuSans-36"/>
      </g>
     </g>
    </g>
    <g id="xtick_5">
     <g id="line2d_5">
      <g>
       <use xlink:href="#m50412a3e2c" x="312.709091" y="252" style="stroke: #000000; stroke-width: 0.8"/>
      </g>
     </g>
     <g id="text_5">
      <!-- 8 -->
      <g transform="translate(309.527841 266.598437)scale(0.1 -0.1)">
       <defs>
        <path id="DejaVuSans-38" d="M 2034 2216 
Q 1584 2216 1326 1975 
Q 1069 1734 1069 1313 
Q 1069 891 1326 650 
Q 1584 409 2034 409 
Q 2484 409 2743 651 
Q 3003 894 3003 1313 
Q 3003 1734 2745 1975 
Q 2488 2216 2034 2216 
z
M 1403 2484 
Q 997 2584 770 2862 
Q 544 3141 544 3541 
Q 544 4100 942 4425 
Q 1341 4750 2034 4750 
Q 2731 4750 3128 4425 
Q 3525 4100 3525 3541 
Q 3525 3141 3298 2862 
Q 3072 2584 2669 2484 
Q 3125 2378 3379 2068 
Q 3634 1759 3634 1313 
Q 3634 634 3220 271 
Q 2806 -91 2034 -91 
Q 1263 -91 848 271 
Q 434 634 434 1313 
Q 434 1759 690 2068 
Q 947 2378 1403 2484 
z
M 1172 3481 
Q 1172 3119 1398 2916 
Q 1625 2713 2034 2713 
Q 2441 2713 2670 2916 
Q 2900 3119 2900 3481 
Q 2900 3844 2670 4047 
Q 2441 4250 2034 4250 
Q 1625 4250 1398 4047 
Q 1172 3844 1172 3481 
z
" transform="scale(0.015625)"/>
       </defs>
       <use xlink:href="#DejaVuSans-38"/>
      </g>
     </g>
    </g>
    <g id="xtick_6">
     <g id="line2d_6">
      <g>
       <use xlink:href="#m50412a3e2c" x="373.581818" y="252" style="stroke: #000000; stroke-width: 0.8"/>
      </g>
     </g>
     <g id="text_6">
      <!-- 10 -->
      <g transform="translate(367.219318 266.598437)scale(0.1 -0.1)">
       <defs>
        <path id="DejaVuSans-31" d="M 794 531 
L 1825 531 
L 1825 4091 
L 703 3866 
L 703 4441 
L 1819 4666 
L 2450 4666 
L 2450 531 
L 3481 531 
L 3481 0 
L 794 0 
L 794 531 
z
" transform="scale(0.015625)"/>
       </defs>
       <use xlink:href="#DejaVuSans-31"/>
       <use xlink:href="#DejaVuSans-30" x="63.623047"/>
      </g>
     </g>
    </g>
    <g id="text_7">
     <!-- Time t -->
     <g transform="translate(205.617188 280.276563)scale(0.1 -0.1)">
      <defs>
       <path id="DejaVuSans-54" d="M -19 4666 
L 3928 4666 
L 3928 4134 
L 2272 4134 
L 2272 0 
L 1638 0 
L 1638 4134 
L -19 4134 
L -19 4666 
z
" transform="scale(0.015625)"/>
       <path id="DejaVuSans-69" d="M 603 3500 
L 1178 3500 
L 1178 0 
L 603 0 
L 603 3500 
z
M 603 4863 
L 1178 4863 
L 1178 4134 
L 603 4134 
L 603 4863 
z
" transform="scale(0.015625)"/>
       <path id="DejaVuSans-6d" d="M 3328 2828 
Q 3544 3216 3844 3400 
Q 4144 3584 4550 3584 
Q 5097 3584 5394 3201 
Q 5691 2819 5691 2113 
L 5691 0 
L 5113 0 
L 5113 2094 
Q 5113 2597 4934 2840 
Q 4756 3084 4391 3084 
Q 3944 3084 3684 2787 
Q 3425 2491 3425 1978 
L 3425 0 
L 2847 0 
L 2847 2094 
Q 2847 2600 2669 2842 
Q 2491 3084 2119 3084 
Q 1678 3084 1418 2786 
Q 1159 2488 1159 1978 
L 1159 0 
L 581 0 
L 581 3500 
L 1159 3500 
L 1159 2956 
Q 1356 3278 1631 3431 
Q 1906 3584 2284 3584 
Q 2666 3584 2933 3390 
Q 3200 3197 3328 2828 
z
" transform="scale(0.015625)"/>
       <path id="DejaVuSans-65" d="M 3597 1894 
L 3597 1613 
L 953 1613 
Q 991 1019 1311 708 
Q 1631 397 2203 397 
Q 2534 397 2845 478 
Q 3156 559 3463 722 
L 3463 178 
Q 3153 47 2828 -22 
Q 2503 -91 2169 -91 
Q 1331 -91 842 396 
Q 353 884 353 1716 
Q 353 2575 817 3079 
Q 1281 3584 2069 3584 
Q 2775 3584 3186 3129 
Q 3597 2675 3597 1894 
z
M 3022 2063 
Q 3016 2534 2758 2815 
Q 2500 3097 2075 3097 
Q 1594 3097 1305 2825 
Q 1016 2553 972 2059 
L 3022 2063 
z
" transform="scale(0.015625)"/>
       <path id="DejaVuSans-20" transform="scale(0.015625)"/>
       <path id="DejaVuSans-74" d="M 1172 4494 
L 1172 3500 
L 2356 3500 
L 2356 3053 
L 1172 3053 
L 1172 1153 
Q 1172 725 1289 603 
Q 1406 481 1766 481 
L 2356 481 
L 2356 0 
L 1766 0 
Q 1100 0 847 248 
Q 594 497 594 1153 
L 594 3053 
L 172 3053 
L 172 3500 
L 594 3500 
L 594 4494 
L 1172 4494 
z
" transform="scale(0.015625)"/>
      </defs>
      <use xlink:href="#DejaVuSans-54"/>
      <use xlink:href="#DejaVuSans-69" x="57.958984"/>
      <use xlink:href="#DejaVuSans-6d" x="85.742188"/>
      <use xlink:href="#DejaVuSans-65" x="183.154297"/>
      <use xlink:href="#DejaVuSans-20" x="244.677734"/>
      <use xlink:href="#DejaVuSans-74" x="276.464844"/>
     </g>
    </g>
   </g>
   <g id="matplotlib.axis_2">
    <g id="ytick_1">
     <g id="line2d_7">
      <defs>
       <path id="m5d75718121" d="M 0 0 
L -3.5 0 
" style="stroke: #000000; stroke-width: 0.8"/>
      </defs>
      <g>
       <use xlink:href="#m5d75718121" x="54" y="242.116364" style="stroke: #000000; stroke-width: 0.8"/>
      </g>
     </g>
     <g id="text_8">
      <!-- 0.0 -->
      <g transform="translate(31.096875 245.915582)scale(0.1 -0.1)">
       <defs>
        <path id="DejaVuSans-2e" d="M 684 794 
L 1344 794 
L 1344 0 
L 684 0 
L 684 794 
z
" transform="scale(0.015625)"/>
       </defs>
       <use xlink:href="#DejaVuSans-30"/>
       <use xlink:href="#DejaVuSans-2e" x="63.623047"/>
       <use xlink:href="#DejaVuSans-30" x="95.410156"/>
      </g>
     </g>
    </g>
    <g id="ytick_2">
     <g id="line2d_8">
      <g>
       <use xlink:href="#m5d75718121" x="54" y="202.581818" style="stroke: #000000; stroke-width: 0.8"/>
      </g>
     </g>
     <g id="text_9">
      <!-- 0.2 -->
      <g transform="translate(31.096875 206.381037)scale(0.1 -0.1)">
       <use xlink:href="#DejaVuSans-30"/>
       <use xlink:href="#DejaVuSans-2e" x="63.623047"/>
       <use xlink:href="#DejaVuSans-32" x="95.410156"/>
      </g>
     </g>
    </g>
    <g id="ytick_3">
     <g id="line2d_9">
      <g>
       <use xlink:href="#m5d75718121" x="54" y="163.047273" style="stroke: #000000; stroke-width: 0.8"/>
      </g>
     </g>
     <g id="text_10">
      <!-- 0.4 -->
      <g transform="translate(31.096875 166.846491)scale(0.1 -0.1)">
       <use xlink:href="#DejaVuSans-30"/>
       <use xlink:href="#DejaVuSans-2e" x="63.623047"/>
       <use xlink:href="#DejaVuSans-34" x="95.410156"/>
      </g>
     </g>
    </g>
    <g id="ytick_4">
     <g id="line2d_10">
      <g>
       <use xlink:href="#m5d75718121" x="54" y="123.512727" style="stroke: #000000; stroke-width: 0.8"/>
      </g>
     </g>
     <g id="text_11">
      <!-- 0.6 -->
      <g transform="translate(31.096875 127.311946)scale(0.1 -0.1)">
       <use xlink:href="#DejaVuSans-30"/>
       <use xlink:href="#DejaVuSans-2e" x="63.623047"/>
       <use xlink:href="#DejaVuSans-36" x="95.410156"/>
      </g>
     </g>
    </g>
    <g id="ytick_5">
     <g id="line2d_11">
      <g>
       <use xlink:href="#m5d75718121" x="54" y="83.978182" style="stroke: #000000; stroke-width: 0.8"/>
      </g>
     </g>
     <g id="text_12">
      <!-- 0.8 -->
      <g transform="translate(31.096875 87.777401)scale(0.1 -0.1)">
       <use xlink:href="#DejaVuSans-30"/>
       <use xlink:href="#DejaVuSans-2e" x="63.623047"/>
       <use xlink:href="#DejaVuSans-38" x="95.410156"/>
      </g>
     </g>
    </g>
    <g id="ytick_6">
     <g id="line2d_12">
      <g>
       <use xlink:href="#m5d75718121" x="54" y="44.443636" style="stroke: #000000; stroke-width: 0.8"/>
      </g>
     </g>
     <g id="text_13">
      <!-- 1.0 -->
      <g transform="translate(31.096875 48.242855)scale(0.1 -0.1)">
       <use xlink:href="#DejaVuSans-31"/>
       <use xlink:href="#DejaVuSans-2e" x="63.623047"/>
       <use xlink:href="#DejaVuSans-30" x="95.410156"/>
      </g>
     </g>
    </g>
    <g id="text_14">
     <!-- MSD of X(t) -->
     <g transform="translate(25.017187 171.902656)rotate(-90)scale(0.1 -0.1)">
      <defs>
       <path id="DejaVuSans-4d" d="M 628 4666 
L 1569 4666 
L 2759 1491 
L 3956 4666 
L 4897 4666 
L 4897 0 
L 4281 0 
L 4281 4097 
L 3078 897 
L 2444 897 
L 1241 4097 
L 1241 0 
L 628 0 
L 628 4666 
z
" transform="scale(0.015625)"/>
       <path id="DejaVuSans-53" d="M 3425 4513 
L 3425 3897 
Q 3066 4069 2747 4153 
Q 2428 4238 2131 4238 
Q 1616 4238 1336 4038 
Q 1056 3838 1056 3469 
Q 1056 3159 1242 3001 
Q 1428 2844 1947 2747 
L 2328 2669 
Q 3034 2534 3370 2195 
Q 3706 1856 3706 1288 
Q 3706 609 3251 259 
Q 2797 -91 1919 -91 
Q 1588 -91 1214 -16 
Q 841 59 441 206 
L 441 856 
Q 825 641 1194 531 
Q 1563 422 1919 422 
Q 2459 422 2753 634 
Q 3047 847 3047 1241 
Q 3047 1584 2836 1778 
Q 2625 1972 2144 2069 
L 1759 2144 
Q 1053 2284 737 2584 
Q 422 2884 422 3419 
Q 422 4038 858 4394 
Q 1294 4750 2059 4750 
Q 2388 4750 2728 4690 
Q 3069 4631 3425 4513 
z
" transform="scale(0.015625)"/>
       <path id="DejaVuSans-44" d="M 1259 4147 
L 1259 519 
L 2022 519 
Q 2988 519 3436 956 
Q 3884 1394 3884 2338 
Q 3884 3275 3436 3711 
Q 2988 4147 2022 4147 
L 1259 4147 
z
M 628 4666 
L 1925 4666 
Q 3281 4666 3915 4102 
Q 4550 3538 4550 2338 
Q 4550 1131 3912 565 
Q 3275 0 1925 0 
L 628 0 
L 628 4666 
z
" transform="scale(0.015625)"/>
       <path id="DejaVuSans-6f" d="M 1959 3097 
Q 1497 3097 1228 2736 
Q 959 2375 959 1747 
Q 959 1119 1226 758 
Q 1494 397 1959 397 
Q 2419 397 2687 759 
Q 2956 1122 2956 1747 
Q 2956 2369 2687 2733 
Q 2419 3097 1959 3097 
z
M 1959 3584 
Q 2709 3584 3137 3096 
Q 3566 2609 3566 1747 
Q 3566 888 3137 398 
Q 2709 -91 1959 -91 
Q 1206 -91 779 398 
Q 353 888 353 1747 
Q 353 2609 779 3096 
Q 1206 3584 1959 3584 
z
" transform="scale(0.015625)"/>
       <path id="DejaVuSans-66" d="M 2375 4863 
L 2375 4384 
L 1825 4384 
Q 1516 4384 1395 4259 
Q 1275 4134 1275 3809 
L 1275 3500 
L 2222 3500 
L 2222 3053 
L 1275 3053 
L 1275 0 
L 697 0 
L 697 3053 
L 147 3053 
L 147 3500 
L 697 3500 
L 697 3744 
Q 697 4328 969 4595 
Q 1241 4863 1831 4863 
L 2375 4863 
z
" transform="scale(0.015625)"/>
       <path id="DejaVuSans-58" d="M 403 4666 
L 1081 4666 
L 2241 2931 
L 3406 4666 
L 4084 4666 
L 2584 2425 
L 4184 0 
L 3506 0 
L 2194 1984 
L 872 0 
L 191 0 
L 1856 2491 
L 403 4666 
z
" transform="scale(0.015625)"/>
       <path id="DejaVuSans-28" d="M 1984 4856 
Q 1566 4138 1362 3434 
Q 1159 2731 1159 2009 
Q 1159 1288 1364 580 
Q 1569 -128 1984 -844 
L 1484 -844 
Q 1016 -109 783 600 
Q 550 1309 550 2009 
Q 550 2706 781 3412 
Q 1013 4119 1484 4856 
L 1984 4856 
z
" transform="scale(0.015625)"/>
       <path id="DejaVuSans-29" d="M 513 4856 
L 1013 4856 
Q 1481 4119 1714 3412 
Q 1947 2706 1947 2009 
Q 1947 1309 1714 600 
Q 1481 -109 1013 -844 
L 513 -844 
Q 928 -128 1133 580 
Q 1338 1288 1338 2009 
Q 1338 2731 1133 3434 
Q 928 4138 513 4856 
z
" transform="scale(0.015625)"/>
      </defs>
      <use xlink:href="#DejaVuSans-4d"/>
      <use xlink:href="#DejaVuSans-53" x="86.279297"/>
      <use xlink:href="#DejaVuSans-44" x="149.755859"/>
      <use xlink:href="#DejaVuSans-20" x="226.757812"/>
      <use xlink:href="#DejaVuSans-6f" x="258.544922"/>
      <use xlink:href="#DejaVuSans-66" x="319.726562"/>
      <use xlink:href="#DejaVuSans-20" x="354.931641"/>
      <use xlink:href="#DejaVuSans-58" x="386.71875"/>
      <use xlink:href="#DejaVuSans-28" x="455.224609"/>
      <use xlink:href="#DejaVuSans-74" x="494.238281"/>
      <use xlink:href="#DejaVuSans-29" x="533.447266"/>
     </g>
    </g>
   </g>
   <g id="line2d_13">
    <path d="M 69.218182 242.116364 
L 73.479273 239.331977 
L 74.088 238.867629 
L 74.209745 238.802141 
L 74.940218 238.376287 
L 75.0924 238.250422 
L 75.396764 238.065771 
L 75.488073 237.985645 
L 76.644655 237.271446 
L 76.888145 237.117478 
L 77.131636 237.000758 
L 79.657855 235.244428 
L 79.7796 235.195333 
L 79.962218 234.96265 
L 80.266582 234.668749 
L 84.071127 232.040091 
L 84.345055 231.695155 
L 84.497236 231.583836 
L 84.527673 231.60792 
L 85.075527 231.283091 
L 85.105964 231.357263 
L 85.197273 231.289533 
L 85.623382 231.081445 
L 85.745127 230.987919 
L 86.506036 230.361989 
L 86.719091 230.28206 
L 86.901709 230.182461 
L 86.962582 230.174234 
L 86.993018 230.130788 
L 87.236509 229.983282 
L 87.358255 229.896895 
L 87.388691 229.924994 
L 87.510436 229.954662 
L 87.662618 229.845971 
L 87.845236 229.722303 
L 88.271345 229.444777 
L 88.697455 228.942993 
L 88.910509 228.729435 
L 89.245309 228.588041 
L 89.427927 228.418338 
L 89.610545 228.271515 
L 89.640982 228.333613 
L 89.701855 228.206049 
L 89.914909 228.131298 
L 90.614945 227.783572 
L 90.645382 227.816754 
L 90.675818 227.764064 
L 90.706255 227.678726 
L 90.797564 227.726372 
L 90.949745 227.767228 
L 91.345418 227.473474 
L 91.528036 227.473762 
L 91.741091 227.215234 
L 91.8324 227.187062 
L 92.015018 226.967146 
L 92.410691 226.893386 
L 92.745491 226.457661 
L 92.897673 226.532339 
L 92.928109 226.503105 
L 93.019418 226.549536 
L 93.049855 226.493496 
L 93.110727 226.382017 
L 93.1716 226.495899 
L 93.384655 226.476894 
L 93.5064 226.484424 
L 93.658582 226.359819 
L 93.719455 226.371441 
L 93.749891 226.314119 
L 94.023818 226.051324 
L 94.145564 226.062292 
L 94.236873 226.083169 
L 94.662982 225.556154 
L 95.880436 224.838864 
L 95.941309 224.860187 
L 95.971745 224.819855 
L 96.671782 224.219491 
L 96.823964 224.202243 
L 97.006582 224.220182 
L 97.219636 223.951157 
L 97.493564 223.708723 
L 97.615309 223.74802 
L 97.8588 223.515137 
L 97.980545 223.554706 
L 98.010982 223.514249 
L 98.589273 223.029811 
L 98.711018 223.075866 
L 98.741455 223.026705 
L 98.893636 222.955563 
L 99.319745 222.528188 
L 99.411055 222.515137 
L 99.684982 221.940356 
L 99.745855 221.926481 
L 99.776291 221.884899 
L 100.111091 221.7291 
L 100.2024 221.585931 
L 100.232836 221.61596 
L 100.385018 221.643837 
L 100.567636 221.365748 
L 100.598073 221.423941 
L 100.750255 221.476048 
L 100.902436 221.506086 
L 101.115491 221.404387 
L 101.328545 221.291968 
L 101.572036 220.767981 
L 101.602473 220.804645 
L 101.632909 220.763568 
L 101.785091 220.578499 
L 101.815527 220.660663 
L 101.906836 220.617185 
L 102.059018 220.535409 
L 102.363382 220.529864 
L 102.546 220.243678 
L 102.759055 220.261134 
L 102.8808 220.303885 
L 103.2156 220.224971 
L 103.641709 219.645805 
L 103.672145 219.725414 
L 103.733018 219.637066 
L 104.128691 219.139996 
L 104.280873 219.220203 
L 104.920036 218.56318 
L 105.041782 218.515277 
L 105.285273 218.185402 
L 105.437455 218.115964 
L 105.802691 217.779319 
L 105.954873 217.790508 
L 106.076618 217.635914 
L 106.441855 217.401144 
L 106.502727 217.52654 
L 106.5636 217.50244 
L 106.8984 217.35093 
L 107.081018 217.40038 
L 107.111455 217.297712 
L 107.202764 217.32484 
L 107.354945 217.345938 
L 107.507127 217.323437 
L 107.689745 217.398715 
L 107.841927 217.137924 
L 107.872364 217.165721 
L 108.5724 216.582903 
L 108.694145 216.556615 
L 108.876764 216.488198 
L 109.059382 216.545617 
L 109.363745 216.233922 
L 109.424618 216.328466 
L 109.485491 216.251647 
L 109.5768 216.123205 
L 109.668109 216.059629 
L 109.698545 216.085198 
L 109.850727 215.981411 
L 110.185527 215.776705 
L 110.368145 215.605135 
L 110.520327 215.470768 
L 110.550764 215.514605 
L 110.611636 215.46009 
L 110.794255 215.227147 
L 110.855127 215.144284 
L 110.976873 215.039037 
L 111.189927 215.109799 
L 111.433418 214.773321 
L 111.555164 214.797889 
L 111.889964 214.432153 
L 112.072582 214.180088 
L 112.103018 214.215988 
L 112.163891 214.128312 
L 112.468255 213.91072 
L 112.559564 213.794891 
L 112.620436 213.827599 
L 112.681309 213.845578 
L 112.711745 213.778118 
L 112.955236 213.721351 
L 112.985673 213.779182 
L 113.046545 213.734177 
L 113.229164 213.576199 
L 113.381345 213.546437 
L 113.503091 213.434618 
L 113.685709 213.484731 
L 114.233564 213.103477 
L 114.264 213.132321 
L 114.294436 213.082289 
L 114.385745 213.023249 
L 114.446618 213.1468 
L 114.477055 213.081602 
L 114.629236 212.926125 
L 114.781418 212.987041 
L 114.9336 212.762994 
L 114.964036 212.802882 
L 115.024909 212.889321 
L 115.085782 212.801219 
L 115.420582 212.384574 
L 115.481455 212.451143 
L 115.511891 212.375056 
L 115.542327 212.346844 
L 115.6032 212.412518 
L 115.846691 212.433459 
L 115.907564 212.345219 
L 115.968436 212.402316 
L 116.029309 212.472431 
L 116.059745 212.446967 
L 116.211927 212.348545 
L 116.333673 212.48334 
L 116.394545 212.380721 
L 117.581564 211.028541 
L 117.764182 210.83613 
L 117.825055 210.9617 
L 117.885927 210.835169 
L 117.977236 210.750469 
L 118.007673 210.795147 
L 118.220727 210.837409 
L 118.312036 210.723799 
L 118.342473 210.770146 
L 118.464218 210.794034 
L 119.103382 210.400957 
L 119.286 210.523229 
L 120.046909 210.024274 
L 120.077345 210.082265 
L 120.168655 210.261022 
L 120.199091 210.196358 
L 120.442582 209.945737 
L 120.473018 209.970732 
L 120.503455 209.919764 
L 120.594764 209.750063 
L 120.655636 209.832693 
L 120.716509 209.739315 
L 120.838255 209.654763 
L 120.868691 209.684679 
L 120.990436 209.789284 
L 121.020873 209.723018 
L 121.599164 209.116978 
L 121.6296 209.227495 
L 121.720909 209.134195 
L 122.025273 208.462879 
L 122.116582 208.477 
L 122.147018 208.431372 
L 122.847055 208.43699 
L 122.877491 208.454267 
L 122.907927 208.392933 
L 123.029673 208.336117 
L 123.120982 208.443699 
L 123.151418 208.369587 
L 123.3036 208.160912 
L 123.425345 208.276708 
L 123.455782 208.220206 
L 123.486218 208.252911 
L 123.516655 208.178839 
L 123.790582 207.62835 
L 124.155818 207.844409 
L 124.186255 207.908386 
L 124.216691 207.836074 
L 124.338436 207.647535 
L 124.368873 207.680876 
L 124.764545 207.507815 
L 124.855855 207.416178 
L 125.068909 207.10707 
L 125.129782 207.27966 
L 125.190655 207.18096 
L 125.495018 207.205999 
L 125.6472 207.091919 
L 125.799382 207.065462 
L 125.829818 207.143342 
L 125.890691 207.001124 
L 125.982 206.732349 
L 126.195055 206.530977 
L 126.438545 206.271919 
L 126.529855 206.136369 
L 126.560291 206.172761 
L 126.6516 206.207905 
L 126.682036 206.149053 
L 126.895091 205.904476 
L 126.925527 206.043245 
L 127.016836 205.970784 
L 127.382073 205.894132 
L 127.412509 206.054952 
L 127.503818 205.968119 
L 127.534255 205.908969 
L 127.564691 205.947527 
L 127.625564 206.105203 
L 127.656 205.971658 
L 127.747309 206.000323 
L 127.838618 206.167735 
L 127.869055 206.154231 
L 128.112545 205.549404 
L 128.173418 205.497114 
L 128.386473 205.274922 
L 128.416909 205.362396 
L 128.477782 205.304363 
L 128.690836 204.908194 
L 128.903891 204.83129 
L 129.147382 204.779755 
L 129.177818 204.859857 
L 129.269127 204.788909 
L 129.451745 204.512943 
L 129.512618 204.50305 
L 129.6648 204.351843 
L 129.756109 204.321306 
L 129.877855 204.176653 
L 129.9996 204.156163 
L 130.090909 204.010775 
L 130.121345 204.08972 
L 130.182218 204.032404 
L 130.303964 203.811434 
L 130.3344 203.924219 
L 130.699636 204.073612 
L 130.882255 203.658014 
L 130.912691 203.673107 
L 131.095309 203.775469 
L 131.125745 203.696769 
L 131.399673 203.280967 
L 131.460545 203.233647 
L 131.521418 203.285682 
L 131.551855 203.288084 
L 131.612727 203.157183 
L 131.6736 203.215818 
L 131.977964 202.829509 
L 132.038836 202.864447 
L 132.221455 202.403814 
L 132.434509 202.31904 
L 132.464945 202.382762 
L 132.586691 202.076827 
L 132.678 202.079652 
L 132.830182 201.663295 
L 132.951927 201.752966 
L 133.073673 201.782505 
L 133.225855 201.630369 
L 133.256291 201.656451 
L 133.3476 201.743965 
L 133.378036 201.66121 
L 133.438909 201.488411 
L 133.651964 201.266596 
L 133.6824 201.358454 
L 133.865018 201.53073 
L 133.925891 201.481861 
L 134.412873 200.93044 
L 134.595491 201.035625 
L 134.808545 200.60571 
L 134.899855 200.731197 
L 134.930291 200.653307 
L 135.173782 200.625968 
L 135.234655 200.530201 
L 135.508582 199.981683 
L 135.660764 200.054346 
L 135.6912 199.96066 
L 135.843382 199.792758 
L 136.086873 199.482265 
L 136.239055 199.519622 
L 136.330364 199.470431 
L 136.391236 199.606393 
L 136.452109 199.576037 
L 136.786909 199.287594 
L 136.847782 199.373337 
L 136.908655 199.346457 
L 137.0304 199.18997 
L 137.304327 199.170292 
L 137.456509 198.949707 
L 137.517382 198.705273 
L 137.608691 198.761688 
L 137.730436 198.850802 
L 137.943491 198.871476 
L 138.126109 198.478282 
L 138.156545 198.490255 
L 138.217418 198.545135 
L 138.339164 198.589131 
L 138.491345 198.391755 
L 138.613091 198.251819 
L 138.673964 198.305288 
L 138.826145 198.478879 
L 138.947891 198.523847 
L 139.160945 198.247875 
L 139.252255 198.382796 
L 139.343564 198.28328 
L 139.526182 197.880598 
L 139.587055 197.825084 
L 139.769673 197.565352 
L 140.165345 197.129889 
L 140.256655 197.173006 
L 140.287091 197.225372 
L 140.347964 197.13697 
L 140.3784 197.159179 
L 140.408836 197.074154 
L 140.591455 196.809736 
L 140.7132 196.696203 
L 140.774073 196.760436 
L 140.804509 196.800506 
L 140.865382 196.736686 
L 140.987127 196.604031 
L 141.078436 196.489413 
L 141.108873 196.566514 
L 141.139309 196.597982 
L 141.169745 196.475399 
L 141.474109 196.618047 
L 141.534982 196.498173 
L 141.595855 196.54895 
L 141.656727 196.661759 
L 141.687164 196.547845 
L 141.778473 196.511214 
L 142.813309 195.402698 
L 142.843745 195.498701 
L 142.904618 195.409921 
L 143.148109 194.924447 
L 143.239418 195.006111 
L 143.269855 194.932486 
L 143.513345 194.604531 
L 143.848145 194.839182 
L 144.000327 194.777075 
L 144.091636 194.719588 
L 144.122073 194.647835 
L 144.182945 194.787226 
L 144.365564 194.615223 
L 144.396 194.672266 
L 144.426436 194.526608 
L 144.456873 194.598764 
L 144.639491 194.304307 
L 144.882982 194.532312 
L 145.004727 194.621992 
L 145.035164 194.593567 
L 145.096036 194.825153 
L 145.187345 194.769602 
L 145.583018 194.685713 
L 145.7352 194.72018 
L 145.856945 194.755164 
L 145.948255 194.8263 
L 146.130873 194.387076 
L 146.161309 194.45992 
L 146.374364 194.274009 
L 146.465673 194.350197 
L 146.770036 193.792312 
L 146.830909 193.812171 
L 146.983091 193.687902 
L 147.043964 193.711594 
L 147.165709 193.421663 
L 147.196145 193.473433 
L 147.257018 193.531618 
L 147.287455 193.472608 
L 147.500509 193.102859 
L 147.683127 192.859829 
L 147.835309 192.534347 
L 147.865745 192.57582 
L 147.896182 192.603766 
L 147.957055 192.534293 
L 148.0788 192.352289 
L 148.109236 192.396522 
L 148.352727 192.250097 
L 148.4136 192.171095 
L 148.474473 192.275368 
L 148.626655 192.165527 
L 148.778836 191.82324 
L 148.809273 191.830626 
L 148.961455 191.621377 
L 149.0832 191.718921 
L 149.204945 191.586561 
L 149.235382 191.507432 
L 149.296255 191.623197 
L 149.418 191.65711 
L 149.600618 191.394008 
L 149.691927 191.503083 
L 149.722364 191.435317 
L 149.813673 191.452322 
L 150.057164 191.083009 
L 150.635455 190.478159 
L 150.7572 190.508536 
L 150.909382 190.171552 
L 150.970255 190.261123 
L 151.152873 190.297804 
L 152.035527 189.54708 
L 152.0964 189.626752 
L 152.126836 189.668882 
L 152.157273 189.586135 
L 152.339891 189.280395 
L 152.370327 189.326265 
L 152.552945 188.926243 
L 152.766 188.561657 
L 152.979055 188.827511 
L 153.313855 188.360761 
L 153.374727 188.417967 
L 153.405164 188.461328 
L 153.466036 188.391393 
L 153.800836 187.512724 
L 153.861709 187.622066 
L 153.892145 187.590018 
L 154.135636 187.039905 
L 154.287818 186.95167 
L 154.318255 186.993772 
L 154.348691 186.950018 
L 154.561745 186.669132 
L 154.805236 186.85808 
L 155.1096 186.713077 
L 155.261782 186.896838 
L 155.566145 186.669173 
L 155.718327 186.692476 
L 155.870509 186.419199 
L 155.900945 186.476124 
L 155.992255 186.609682 
L 156.053127 186.5509 
L 156.205309 186.300707 
L 156.418364 186.428141 
L 156.4488 186.35161 
L 156.509673 186.305195 
L 156.540109 186.366659 
L 156.874909 186.711306 
L 157.514073 185.76417 
L 157.605382 185.946109 
L 157.788 186.012023 
L 157.970618 186.172309 
L 158.1228 185.843716 
L 158.822836 185.324636 
L 158.944582 185.10726 
L 159.279382 185.352011 
L 159.614182 184.863163 
L 159.644618 184.919071 
L 159.705491 184.865719 
L 159.827236 184.607713 
L 159.857673 184.667446 
L 159.888109 184.64729 
L 159.918545 184.70015 
L 159.979418 184.736639 
L 160.040291 184.696022 
L 160.101164 184.628904 
L 160.1316 184.720155 
L 160.162036 184.755463 
L 160.192473 184.728185 
L 160.435964 184.312961 
L 160.557709 184.22114 
L 160.618582 184.305761 
L 160.679455 184.241929 
L 161.014255 183.779098 
L 161.166436 183.431364 
L 161.379491 183.308727 
L 161.4708 183.092586 
L 161.531673 183.181517 
L 161.622982 183.135515 
L 161.653418 183.170252 
L 161.836036 183.292365 
L 161.866473 183.124129 
L 161.896909 183.036003 
L 161.988218 183.083991 
L 162.109964 183.024724 
L 162.1404 183.121019 
L 162.201273 183.080706 
L 162.566509 182.373772 
L 162.627382 182.446961 
L 162.657818 182.368336 
L 162.749127 182.320493 
L 162.779564 182.391906 
L 162.81 182.235361 
L 162.901309 182.318736 
L 163.023055 182.492843 
L 163.053491 182.64866 
L 163.114364 182.542134 
L 163.388291 181.983604 
L 163.418727 182.038044 
L 163.692655 182.020914 
L 164.057891 181.537264 
L 164.118764 181.558156 
L 164.240509 181.437492 
L 164.544873 181.328451 
L 164.666618 181.413833 
L 164.849236 180.959911 
L 164.879673 180.971162 
L 164.910109 181.069271 
L 164.970982 180.99035 
L 165.244909 180.504151 
L 165.457964 180.401341 
L 165.671018 179.995463 
L 166.310182 179.17789 
L 166.371055 179.156276 
L 166.523236 178.955368 
L 166.736291 179.20332 
L 166.858036 178.866803 
L 166.918909 178.906622 
L 166.979782 179.0764 
L 167.010218 179.013436 
L 167.1624 178.773866 
L 167.253709 178.971067 
L 167.314582 178.797713 
L 167.345018 178.782736 
L 167.405891 178.589242 
L 167.466764 178.629045 
L 167.649382 178.512485 
L 167.771127 178.556755 
L 167.953745 178.313996 
L 167.984182 178.445755 
L 168.045055 178.307716 
L 168.318982 178.121816 
L 168.653782 178.392077 
L 168.897273 178.045069 
L 168.958145 178.146389 
L 168.988582 178.109417 
L 169.110327 177.992822 
L 169.232073 178.036287 
L 169.414691 177.748243 
L 169.475564 177.941824 
L 169.566873 177.887761 
L 169.658182 177.873953 
L 169.779927 177.698249 
L 169.932109 177.884555 
L 169.962545 177.756359 
L 170.053855 177.816892 
L 170.236473 177.645453 
L 170.632145 177.500976 
L 170.693018 177.414719 
L 170.875636 177.015899 
L 170.997382 177.103217 
L 171.058255 177.080087 
L 171.240873 176.89299 
L 171.362618 177.148323 
L 171.423491 177.071421 
L 171.5148 176.876843 
L 171.606109 176.744038 
L 171.636545 176.816025 
L 171.758291 176.666758 
L 171.910473 176.468777 
L 171.940909 176.48932 
L 171.971345 176.419804 
L 172.001782 176.282199 
L 172.062655 176.42584 
L 172.093091 176.546501 
L 172.153964 176.455219 
L 172.306145 176.346315 
L 172.549636 176.348589 
L 172.580073 176.286503 
L 172.610509 176.331608 
L 172.640945 176.439222 
L 172.732255 176.366404 
L 172.854 176.391472 
L 173.006182 176.151179 
L 173.036618 176.221733 
L 173.097491 176.111627 
L 173.340982 176.251578 
L 173.554036 176.10599 
L 173.614909 176.258463 
L 173.645345 176.149221 
L 173.797527 175.862286 
L 173.888836 175.744726 
L 173.949709 175.995697 
L 174.010582 175.886912 
L 174.101891 176.097639 
L 174.132327 175.965019 
L 174.284509 175.828828 
L 174.345382 175.986426 
L 174.375818 175.907072 
L 174.528 175.765078 
L 174.680182 175.889018 
L 174.710618 175.748529 
L 174.801927 175.785912 
L 174.8628 175.906697 
L 174.923673 175.8115 
L 174.984545 175.629248 
L 175.045418 175.673881 
L 175.167164 175.85755 
L 175.228036 175.733701 
L 175.258473 175.640619 
L 175.349782 175.698582 
L 175.806327 175.460474 
L 175.958509 175.195092 
L 175.988945 175.243562 
L 176.110691 175.404891 
L 176.445491 174.767199 
L 176.688982 174.506912 
L 176.749855 174.569022 
L 176.780291 174.54911 
L 176.993345 174.049238 
L 177.023782 174.096261 
L 177.084655 173.995774 
L 177.145527 174.007727 
L 177.175964 173.934813 
L 177.236836 173.771516 
L 177.267273 173.74083 
L 177.297709 173.783129 
L 177.328145 173.839629 
L 177.358582 173.74867 
L 177.5412 173.423598 
L 177.571636 173.461936 
L 177.693382 173.171161 
L 177.723818 173.103727 
L 177.784691 173.23029 
L 178.2108 173.46054 
L 178.393418 173.267501 
L 178.454291 173.305065 
L 178.484727 173.204073 
L 178.515164 173.201942 
L 178.667345 173.424729 
L 178.758655 173.219649 
L 178.819527 173.286445 
L 178.8804 173.439923 
L 178.910836 173.314367 
L 179.032582 173.159481 
L 179.245636 172.659454 
L 179.519564 172.214004 
L 179.580436 172.283451 
L 179.671745 172.559796 
L 179.732618 172.430536 
L 179.823927 172.368539 
L 180.097855 172.177156 
L 180.189164 172.362461 
L 180.2196 172.289937 
L 180.310909 172.351611 
L 180.493527 171.840043 
L 180.523964 171.969839 
L 180.615273 171.913608 
L 180.767455 171.812492 
L 180.858764 171.9692 
L 180.8892 171.826969 
L 181.406618 171.116593 
L 181.497927 171.039211 
L 181.619673 170.703472 
L 181.650109 170.755385 
L 181.710982 170.863235 
L 181.771855 170.784599 
L 181.863164 170.626106 
L 181.8936 170.717993 
L 182.137091 170.460512 
L 182.197964 170.643854 
L 182.258836 170.582522 
L 182.350145 170.458837 
L 182.380582 170.513821 
L 182.411018 170.632923 
L 182.502327 170.573514 
L 182.898 170.724948 
L 182.989309 170.818928 
L 183.050182 170.757703 
L 183.080618 170.790362 
L 183.111055 170.741296 
L 183.171927 170.634693 
L 183.202364 170.753378 
L 183.263236 170.721133 
L 183.476291 170.168139 
L 183.598036 170.079215 
L 183.689345 169.905446 
L 183.719782 169.913898 
L 183.780655 170.006055 
L 183.811091 170.081734 
L 183.841527 170.01671 
L 183.993709 169.664731 
L 184.024145 169.706761 
L 184.085018 169.852403 
L 184.145891 169.756095 
L 184.298073 169.990423 
L 184.328509 169.938672 
L 184.572 169.922226 
L 184.632873 169.742201 
L 184.693745 169.853227 
L 184.754618 170.02045 
L 184.815491 169.956627 
L 185.028545 169.613336 
L 185.089418 169.776619 
L 185.119855 169.718811 
L 185.211164 169.564158 
L 185.2416 169.646023 
L 185.302473 169.750866 
L 185.363345 169.695098 
L 185.545964 169.504355 
L 185.637273 169.589375 
L 185.667709 169.552997 
L 185.9112 168.991151 
L 185.941636 169.11718 
L 186.002509 168.97245 
L 186.276436 168.635996 
L 186.337309 168.781719 
L 186.367745 168.608229 
L 186.398182 168.625742 
L 186.428618 168.52341 
L 186.519927 168.284881 
L 186.5808 168.380842 
L 186.793855 168.538475 
L 186.976473 168.388129 
L 187.006909 168.451682 
L 187.098218 168.407503 
L 187.189527 168.369781 
L 187.219964 168.411122 
L 187.2504 168.401963 
L 187.372145 168.234621 
L 187.676509 168.144183 
L 187.737382 167.769951 
L 187.798255 167.990866 
L 187.828691 168.029783 
L 187.980873 167.75323 
L 188.193927 167.469949 
L 188.2548 167.455805 
L 188.498291 166.935348 
L 188.620036 167.077881 
L 188.650473 166.973984 
L 188.711345 167.10692 
L 188.863527 167.096837 
L 188.893964 167.185349 
L 188.9244 167.074351 
L 189.015709 166.87961 
L 189.046145 166.959309 
L 189.076582 167.142556 
L 189.167891 167.058708 
L 189.228764 166.98709 
L 189.2592 167.093909 
L 189.320073 167.029689 
L 189.472255 166.633397 
L 189.746182 166.096805 
L 189.776618 166.263009 
L 189.837491 166.020432 
L 189.867927 165.849045 
L 189.959236 165.952486 
L 190.050545 165.946139 
L 190.080982 165.847414 
L 190.141855 165.991054 
L 190.172291 165.964321 
L 190.294036 165.611187 
L 190.324473 165.634741 
L 190.507091 165.73054 
L 190.537527 165.649558 
L 190.628836 165.508431 
L 190.659273 165.566846 
L 190.720145 165.560535 
L 190.750582 165.329244 
L 190.841891 165.391627 
L 190.994073 165.173075 
L 191.115818 165.386814 
L 191.146255 165.362558 
L 191.176691 165.435866 
L 191.207127 165.331542 
L 191.237564 165.372588 
L 191.420182 165.186935 
L 191.450618 165.252723 
L 191.511491 165.154388 
L 191.968036 164.509889 
L 191.998473 164.533381 
L 192.181091 164.720061 
L 192.2724 164.820593 
L 192.424582 164.48694 
L 192.485455 164.457886 
L 192.515891 164.507977 
L 192.637636 164.478271 
L 192.759382 164.165562 
L 192.789818 164.260636 
L 193.033309 164.261779 
L 193.2768 163.866768 
L 193.672473 163.379204 
L 193.763782 163.625135 
L 193.794218 163.470837 
L 193.9464 163.206265 
L 194.007273 163.283738 
L 194.037709 163.266394 
L 194.068145 163.356054 
L 194.402945 163.663762 
L 194.494255 163.531995 
L 194.646436 163.776267 
L 195.133418 162.897699 
L 195.255164 163.014232 
L 195.803018 162.466544 
L 195.863891 162.607818 
L 195.924764 162.58137 
L 196.168255 161.954661 
L 196.198691 161.96626 
L 196.350873 161.837228 
L 196.655236 161.011468 
L 196.868291 160.762027 
L 196.716109 161.069976 
L 196.898727 160.792434 
L 196.929164 160.855392 
L 196.9596 160.723042 
L 197.142218 160.199438 
L 197.203091 160.275848 
L 197.446582 159.968471 
L 197.507455 160.075439 
L 197.537891 160.139406 
L 197.568327 160.039515 
L 197.659636 159.990008 
L 197.690073 160.025368 
L 197.842255 160.10777 
L 197.872691 159.982542 
L 197.964 160.013128 
L 198.085745 159.944975 
L 198.207491 159.915343 
L 198.237927 159.950176 
L 198.268364 159.844802 
L 198.450982 159.42239 
L 198.481418 159.529423 
L 198.542291 159.412832 
L 198.664036 159.208289 
L 198.694473 159.252825 
L 198.724909 159.321267 
L 198.755345 159.169521 
L 198.9684 158.758879 
L 198.998836 158.908217 
L 199.059709 158.890443 
L 199.211891 158.693492 
L 199.333636 158.722367 
L 199.424945 158.280912 
L 199.485818 158.323454 
L 199.516255 158.39657 
L 199.546691 158.305736 
L 199.638 158.043003 
L 199.698873 158.083302 
L 199.759745 158.049732 
L 199.911927 157.82186 
L 199.942364 157.778019 
L 200.003236 157.856816 
L 200.064109 157.858349 
L 200.246727 157.323741 
L 200.398909 157.254797 
L 200.459782 157.344926 
L 200.520655 157.320144 
L 200.611964 157.175634 
L 200.6424 157.309119 
L 200.916327 157.498239 
L 201.251127 156.99027 
L 201.281564 157.141395 
L 201.372873 157.070966 
L 201.433745 157.074998 
L 201.585927 156.752692 
L 201.677236 156.550787 
L 201.6468 156.778641 
L 201.707673 156.740499 
L 201.890291 156.525371 
L 202.012036 156.758445 
L 202.133782 156.493354 
L 202.164218 156.608541 
L 202.620764 156.020457 
L 202.681636 155.667036 
L 202.742509 155.736639 
L 202.833818 155.496634 
L 202.955564 155.613638 
L 202.986 155.668745 
L 203.016436 155.631729 
L 203.199055 155.044036 
L 203.229491 155.183879 
L 203.290364 155.331008 
L 203.3208 155.229605 
L 203.533855 154.965775 
L 203.564291 155.007992 
L 203.594727 155.022965 
L 203.6556 155.330034 
L 203.716473 155.285377 
L 203.868655 155.014669 
L 203.899091 155.131146 
L 204.051273 155.323745 
L 204.081709 155.289246 
L 204.112145 155.295051 
L 204.142582 155.429537 
L 204.173018 155.251605 
L 204.3252 155.005435 
L 204.416509 155.336278 
L 204.446945 155.275329 
L 204.66 154.593057 
L 204.751309 154.487479 
L 204.781745 154.54064 
L 204.842618 154.616925 
L 204.873055 154.480037 
L 204.9948 154.455114 
L 205.299164 153.945654 
L 205.3296 153.972691 
L 205.360036 153.912308 
L 205.542655 153.355342 
L 205.633964 153.515783 
L 205.786145 154.017773 
L 205.816582 154.000451 
L 205.877455 153.801017 
L 205.907891 153.864509 
L 205.968764 154.019379 
L 206.029636 153.916334 
L 206.181818 153.986059 
L 206.212255 154.061552 
L 206.242691 153.88934 
L 206.273127 153.812585 
L 206.334 153.863913 
L 206.364436 153.903773 
L 206.394873 153.77586 
L 206.425309 153.827845 
L 206.516618 153.72607 
L 206.699236 153.55234 
L 206.820982 153.690015 
L 206.851418 153.582822 
L 206.912291 153.708192 
L 206.942727 153.811317 
L 206.973164 153.628262 
L 207.034036 153.506999 
L 207.094909 153.540495 
L 207.125345 153.566866 
L 207.155782 153.487611 
L 207.216655 153.177939 
L 207.277527 153.301497 
L 207.307964 153.407105 
L 207.368836 153.319281 
L 207.490582 152.995996 
L 207.551455 153.121892 
L 207.6732 153.131634 
L 207.703636 153.091633 
L 207.734073 153.136818 
L 207.794945 153.242098 
L 207.825382 153.167162 
L 207.977564 152.724033 
L 208.160182 152.40337 
L 208.190618 152.438863 
L 208.221055 152.422485 
L 208.281927 152.58994 
L 208.3428 152.504481 
L 208.373236 152.580832 
L 208.434109 152.482807 
L 208.616727 151.83613 
L 208.647164 151.9384 
L 208.708036 151.871024 
L 208.860218 152.194952 
L 208.921091 151.917207 
L 208.981964 152.012368 
L 209.042836 151.850219 
L 209.073273 151.802385 
L 209.134145 151.866042 
L 209.255891 152.070186 
L 209.377636 151.853927 
L 209.408073 152.036145 
L 209.468945 151.739095 
L 209.590691 151.547403 
L 209.621127 151.604832 
L 209.742873 151.83277 
L 210.0168 151.206338 
L 210.047236 151.241847 
L 210.077673 151.320809 
L 210.138545 151.25093 
L 210.321164 150.875247 
L 210.3516 150.966846 
L 210.473345 150.718143 
L 210.6864 150.220711 
L 210.869018 150.627179 
L 211.0212 150.627922 
L 211.173382 150.616079 
L 211.295127 150.439917 
L 211.325564 150.484505 
L 211.416873 150.769631 
L 211.477745 150.703592 
L 211.660364 150.518194 
L 211.721236 150.404739 
L 211.812545 150.624695 
L 211.842982 150.53462 
L 211.873418 150.559604 
L 211.903855 150.468295 
L 211.995164 150.288036 
L 212.0256 150.463965 
L 212.086473 150.39741 
L 212.147345 150.537261 
L 212.299527 150.198091 
L 212.329964 150.382872 
L 212.390836 150.12636 
L 212.543018 149.69301 
L 212.573455 149.679525 
L 212.603891 149.773991 
L 212.6952 149.704055 
L 212.847382 149.308085 
L 212.877818 149.371025 
L 212.999564 149.499681 
L 213.060436 149.680539 
L 213.090873 149.498017 
L 213.273491 149.202211 
L 213.516982 148.487627 
L 213.547418 148.547691 
L 213.577855 148.46032 
L 213.851782 148.041767 
L 214.003964 147.803776 
L 214.0344 147.862385 
L 214.064836 147.827635 
L 214.277891 147.305159 
L 214.430073 147.604623 
L 214.460509 147.571047 
L 214.643127 147.356488 
L 214.521382 147.634582 
L 214.704 147.417458 
L 214.795309 147.540349 
L 214.947491 147.178019 
L 215.008364 147.215781 
L 215.130109 146.883384 
L 215.190982 146.953138 
L 215.221418 146.909787 
L 215.251855 146.833076 
L 215.282291 146.870317 
L 215.404036 147.223328 
L 215.586655 146.913199 
L 215.769273 146.500873 
L 215.799709 146.59726 
L 215.982327 146.76068 
L 216.164945 146.252455 
L 216.804109 145.168472 
L 216.864982 145.062413 
L 216.956291 144.905929 
L 216.986727 144.989114 
L 217.108473 145.144207 
L 217.138909 144.96047 
L 217.230218 145.003961 
L 217.473709 144.843525 
L 217.504145 144.941944 
L 217.595455 145.001783 
L 217.838945 144.598819 
L 217.960691 144.697373 
L 217.991127 144.740071 
L 218.021564 144.566474 
L 218.112873 144.631694 
L 218.234618 144.606182 
L 218.356364 144.245505 
L 218.3868 144.351614 
L 218.447673 144.371998 
L 218.478109 144.575034 
L 218.569418 144.479661 
L 218.599855 144.467538 
L 218.782473 143.702204 
L 218.812909 143.86094 
L 218.965091 144.006023 
L 219.147709 143.582739 
L 219.178145 143.676435 
L 219.360764 143.84277 
L 219.3912 143.757053 
L 219.543382 143.333181 
L 219.695564 143.086816 
L 219.756436 143.08939 
L 219.786873 143.278889 
L 219.847745 143.092078 
L 219.908618 143.026837 
L 220.091236 142.730915 
L 220.152109 142.688881 
L 220.273855 142.467609 
L 220.304291 142.487021 
L 220.699964 142.013329 
L 220.852145 141.494032 
L 220.882582 141.561024 
L 220.913018 141.512491 
L 220.943455 141.652771 
L 221.0652 141.563184 
L 221.095636 141.66474 
L 221.126073 141.707471 
L 221.308691 141.089173 
L 221.339127 141.121311 
L 221.4 141.106495 
L 221.430436 140.956888 
L 221.491309 141.186085 
L 221.643491 141.504638 
L 221.917418 140.857339 
L 221.947855 140.9321 
L 222.100036 141.111056 
L 222.191345 141.034083 
L 222.221782 141.113369 
L 222.313091 141.065646 
L 222.343527 141.110699 
L 222.373964 140.993795 
L 222.587018 140.686588 
L 222.617455 140.785815 
L 222.647891 140.573871 
L 222.678327 140.604578 
L 222.708764 140.482633 
L 222.952255 140.039516 
L 222.982691 140.100612 
L 223.043564 139.924617 
L 223.104436 139.681835 
L 223.134873 139.799956 
L 223.165309 139.955863 
L 223.226182 139.851124 
L 223.378364 139.679865 
L 223.4088 139.756293 
L 223.439236 139.576374 
L 223.469673 139.613295 
L 223.621855 139.775725 
L 223.652291 139.704252 
L 223.865345 139.171059 
L 223.987091 139.326245 
L 224.017527 139.270203 
L 224.139273 139.084903 
L 224.169709 139.15447 
L 224.230582 139.124193 
L 224.291455 139.292934 
L 224.534945 138.661596 
L 224.656691 138.246871 
L 224.687127 138.331107 
L 224.778436 138.510321 
L 224.808873 138.38482 
L 225.295855 136.909334 
L 225.448036 136.718574 
L 225.508909 136.828783 
L 225.539345 136.806725 
L 225.661091 136.569742 
L 225.691527 136.667173 
L 225.782836 136.617977 
L 225.813273 136.676968 
L 225.935018 136.387315 
L 225.965455 136.459093 
L 225.995891 136.439684 
L 226.269818 135.50467 
L 226.300255 135.680474 
L 226.361127 135.477038 
L 226.482873 135.323817 
L 226.7568 134.719257 
L 226.787236 134.826002 
L 226.848109 134.773644 
L 226.908982 134.58792 
L 227.061164 134.1703 
L 227.152473 134.281583 
L 227.213345 134.486725 
L 227.274218 134.392527 
L 227.304655 134.393767 
L 227.4264 134.676283 
L 227.639455 134.147335 
L 227.7612 134.028554 
L 227.791636 134.177696 
L 227.913382 134.651925 
L 227.943818 134.591129 
L 228.004691 134.310766 
L 228.065564 134.347078 
L 228.217745 134.475883 
L 228.369927 134.112363 
L 228.400364 134.123552 
L 228.4308 134.274427 
L 228.491673 134.152555 
L 228.613418 134.097715 
L 228.735164 133.890437 
L 228.7656 133.893465 
L 228.948218 133.430385 
L 229.009091 133.410789 
L 229.039527 133.470214 
L 229.191709 133.628579 
L 229.343891 133.36635 
L 229.374327 133.490914 
L 229.496073 133.638457 
L 229.739564 132.960561 
L 229.891745 133.174571 
L 230.1048 132.984822 
L 230.165673 133.030546 
L 230.348291 132.666665 
L 230.500473 132.449814 
L 230.561345 132.560475 
L 230.591782 132.397287 
L 230.804836 131.786877 
L 230.835273 131.747131 
L 230.865709 131.863608 
L 230.896145 131.84694 
L 230.987455 131.955128 
L 231.1092 131.650036 
L 231.139636 131.712017 
L 231.170073 131.662695 
L 231.413564 131.135754 
L 231.444 131.164746 
L 231.474436 131.175075 
L 231.596182 131.571187 
L 231.626618 131.523978 
L 232.1136 131.027323 
L 232.144036 130.92169 
L 232.204909 131.088357 
L 232.265782 131.304007 
L 232.357091 131.259803 
L 232.509273 131.183394 
L 232.965818 131.679069 
L 233.178873 131.553625 
L 233.422364 130.931333 
L 233.513673 130.772005 
L 233.544109 130.833209 
L 233.665855 130.65763 
L 233.696291 130.723512 
L 233.848473 130.791281 
L 233.970218 130.641633 
L 234.548509 129.128673 
L 234.731127 128.787255 
L 234.792 128.897622 
L 234.852873 128.999177 
L 234.883309 128.941287 
L 235.005055 128.765391 
L 235.096364 129.00807 
L 235.1268 128.95088 
L 235.157236 128.879239 
L 235.187673 129.037139 
L 235.218109 128.983849 
L 235.400727 129.381316 
L 235.4616 129.205648 
L 235.492036 129.298509 
L 235.522473 129.384485 
L 235.583345 129.269878 
L 235.613782 129.204552 
L 235.644218 129.343687 
L 235.705091 129.447408 
L 235.7964 129.376654 
L 235.857273 129.392191 
L 235.948582 129.121467 
L 236.1312 129.371616 
L 236.161636 129.255931 
L 236.344255 128.615412 
L 236.405127 128.710207 
L 236.435564 128.828472 
L 236.496436 128.750693 
L 236.770364 128.117041 
L 236.861673 128.399189 
L 236.922545 128.205084 
L 237.105164 127.988487 
L 237.196473 128.141315 
L 237.226909 128.104489 
L 237.318218 128.000032 
L 237.348655 128.08646 
L 237.500836 128.244071 
L 237.653018 127.861181 
L 237.926945 127.309599 
L 238.018255 127.381709 
L 238.048691 127.310456 
L 238.261745 127.428758 
L 238.292182 127.452538 
L 238.322618 127.620029 
L 238.383491 127.493098 
L 238.535673 127.040415 
L 238.718291 126.599937 
L 238.931345 126.523241 
L 238.961782 126.614911 
L 239.022655 126.470015 
L 239.083527 126.51284 
L 239.174836 126.257052 
L 239.205273 126.297802 
L 239.296582 125.903292 
L 239.327018 125.935663 
L 239.357455 126.098502 
L 239.418327 125.876749 
L 239.570509 125.70733 
L 239.753127 125.388903 
L 239.814 125.35228 
L 239.844436 125.39736 
L 239.966182 125.432236 
L 240.209673 125.109447 
L 240.392291 125.316923 
L 240.574909 124.980705 
L 240.635782 125.018721 
L 241.001018 124.790003 
L 241.214073 124.389979 
L 241.244509 124.429215 
L 241.305382 124.105451 
L 241.366255 124.295451 
L 241.640182 124.538015 
L 241.670618 124.622574 
L 241.731491 124.508092 
L 241.761927 124.415493 
L 241.8228 124.461388 
L 241.853236 124.508293 
L 241.914109 124.435244 
L 241.974982 124.320644 
L 242.035855 124.353235 
L 242.1576 124.497659 
L 242.279345 124.19435 
L 242.309782 124.33877 
L 242.370655 124.306631 
L 242.401091 124.426083 
L 242.461964 124.257814 
L 242.614145 124.052265 
L 242.766327 123.790065 
L 242.8272 123.746194 
L 242.979382 123.354215 
L 243.009818 123.372415 
L 243.040255 123.319013 
L 243.435927 122.343759 
L 243.4968 122.484882 
L 243.557673 122.381463 
L 243.648982 122.285339 
L 243.740291 122.433267 
L 243.770727 122.388879 
L 243.8316 122.136807 
L 243.892473 122.207671 
L 243.953345 122.166405 
L 243.983782 122.325016 
L 244.075091 122.247834 
L 244.1664 122.133008 
L 244.196836 122.30723 
L 244.257709 122.107764 
L 244.379455 122.22528 
L 244.409891 122.137343 
L 244.744691 121.298671 
L 244.805564 121.459382 
L 244.836 121.522058 
L 244.866436 121.476641 
L 244.988182 121.281355 
L 245.018618 121.447641 
L 245.109927 121.334323 
L 245.1708 121.498499 
L 245.322982 121.092516 
L 245.353418 121.002891 
L 245.414291 121.050694 
L 245.566473 121.256155 
L 245.627345 121.131414 
L 245.809964 120.746259 
L 245.8404 120.891481 
L 245.901273 120.727789 
L 246.205636 120.825343 
L 246.236073 120.677687 
L 246.296945 120.785248 
L 246.540436 121.180995 
L 246.570873 121.222109 
L 246.601309 121.188211 
L 246.753491 120.909162 
L 246.783927 120.959903 
L 246.814364 120.913511 
L 246.966545 120.791977 
L 246.996982 120.848022 
L 247.149164 120.482948 
L 247.636145 119.868889 
L 247.757891 119.552092 
L 247.818764 119.737646 
L 247.8492 119.619045 
L 247.879636 119.540758 
L 247.910073 119.715124 
L 247.940509 119.645307 
L 248.092691 119.483225 
L 248.184 119.291726 
L 248.214436 119.333701 
L 248.670982 118.509977 
L 248.731855 118.558241 
L 248.975345 119.125242 
L 249.005782 118.865037 
L 249.097091 118.92485 
L 249.127527 118.923452 
L 249.279709 118.654447 
L 249.5232 118.956344 
L 249.584073 119.184579 
L 249.644945 119.113213 
L 249.736255 119.165281 
L 249.888436 119.339627 
L 250.040618 119.236124 
L 250.162364 119.479579 
L 250.649345 118.537264 
L 250.679782 118.703977 
L 250.771091 118.615491 
L 250.892836 118.752342 
L 250.953709 118.709158 
L 250.984145 118.553435 
L 251.045018 118.632611 
L 251.105891 118.856352 
L 251.136327 118.683642 
L 251.227636 118.73522 
L 251.258073 118.774143 
L 251.379818 118.470913 
L 251.410255 118.629411 
L 251.501564 118.546121 
L 251.653745 118.203786 
L 251.684182 118.23525 
L 251.775491 118.288312 
L 252.2016 117.366716 
L 252.232036 117.412926 
L 252.292909 117.646456 
L 252.323345 117.501292 
L 252.445091 117.214353 
L 252.475527 117.236305 
L 252.597273 116.996666 
L 252.627709 117.055035 
L 252.658145 117.237003 
L 252.719018 117.079615 
L 252.810327 117.013912 
L 252.8712 116.855427 
L 252.901636 117.076918 
L 253.023382 117.289918 
L 253.053818 117.177287 
L 253.236436 116.492329 
L 253.388618 116.631114 
L 253.632109 116.097301 
L 253.662545 116.165766 
L 253.692982 116.055126 
L 253.723418 116.113688 
L 253.814727 115.993576 
L 253.8756 116.312956 
L 253.906036 116.062833 
L 253.936473 115.86464 
L 253.997345 115.983968 
L 254.119091 116.171772 
L 254.2104 116.094179 
L 254.393018 115.518483 
L 254.575636 115.4513 
L 254.727818 115.422399 
L 254.758255 115.552334 
L 254.819127 115.407802 
L 254.849564 115.43887 
L 255.032182 114.962 
L 255.093055 115.087027 
L 255.153927 115.042715 
L 255.184364 115.038344 
L 255.306109 114.674907 
L 255.336545 114.772619 
L 255.427855 114.85269 
L 255.458291 114.805996 
L 255.5496 114.69863 
L 255.580036 114.830592 
L 255.640909 114.651402 
L 255.732218 114.734222 
L 255.8844 115.111465 
L 255.975709 115.0697 
L 256.006145 115.004824 
L 256.127891 114.413059 
L 256.158327 114.474187 
L 256.310509 114.313484 
L 256.401818 114.195859 
L 256.584436 114.577932 
L 256.706182 114.420874 
L 256.8888 115.003483 
L 257.040982 114.545041 
L 257.071418 114.563175 
L 257.314909 114.655819 
L 257.345345 114.688453 
L 257.406218 114.609012 
L 257.588836 114.244181 
L 257.741018 113.993851 
L 257.771455 113.979964 
L 257.832327 114.299338 
L 257.862764 114.071283 
L 258.045382 113.765729 
L 258.075818 113.80204 
L 258.136691 113.726112 
L 258.167127 113.702935 
L 258.197564 113.795492 
L 258.319309 114.130946 
L 258.349745 114.021587 
L 258.471491 113.631714 
L 258.501927 113.674963 
L 258.532364 113.870651 
L 258.593236 113.649967 
L 258.654109 113.468819 
L 258.684545 113.670602 
L 258.714982 113.640575 
L 258.745418 113.725444 
L 258.775855 113.88278 
L 258.836727 113.75053 
L 258.8976 113.682413 
L 259.323709 112.950572 
L 259.475891 113.352986 
L 259.5672 113.282785 
L 259.597636 113.35552 
L 259.628073 113.372064 
L 259.658509 113.302137 
L 259.749818 112.993586 
L 259.780255 113.074615 
L 259.902 113.355256 
L 260.206364 112.065061 
L 260.358545 112.238006 
L 260.449855 112.202559 
L 260.541164 112.301977 
L 260.5716 112.175014 
L 260.632473 112.322889 
L 260.662909 112.397537 
L 260.693345 112.211647 
L 260.723782 112.111454 
L 260.815091 112.170116 
L 260.9064 112.252128 
L 261.180327 111.178788 
L 261.332509 111.524731 
L 261.362945 111.538525 
L 261.393382 111.44533 
L 261.423818 111.359124 
L 261.454255 111.421014 
L 261.515127 111.654624 
L 261.545564 111.433135 
L 261.758618 111.200202 
L 261.789055 111.35227 
L 261.819491 111.241129 
L 261.941236 111.048534 
L 262.062982 111.220855 
L 262.276036 110.173956 
L 262.367345 110.307347 
L 262.519527 110.747655 
L 262.641273 110.365681 
L 262.793455 110.55397 
L 262.884764 110.236713 
L 262.945636 110.30571 
L 262.976073 110.272274 
L 263.006509 110.324697 
L 263.097818 110.655867 
L 263.219564 110.041844 
L 263.25 110.108725 
L 263.615236 108.739709 
L 263.828291 108.706534 
L 263.950036 108.844855 
L 264.010909 108.802548 
L 264.041345 108.906334 
L 264.132655 109.024123 
L 264.163091 108.924301 
L 264.193527 108.831633 
L 264.223964 108.962045 
L 264.2544 109.020969 
L 264.315273 108.973096 
L 264.376145 108.679373 
L 264.437018 108.910732 
L 264.497891 108.966378 
L 264.558764 108.758651 
L 264.650073 109.049773 
L 264.680509 108.993457 
L 264.863127 109.037214 
L 265.045745 109.389556 
L 265.076182 109.424058 
L 265.106618 109.629341 
L 265.197927 109.578232 
L 265.532727 109.040366 
L 265.563164 109.232056 
L 265.624036 108.968652 
L 265.715345 108.831211 
L 265.745782 109.018945 
L 265.837091 108.959061 
L 265.867527 109.054216 
L 265.9284 108.958727 
L 265.989273 108.812508 
L 266.080582 108.915752 
L 266.232764 109.561133 
L 266.324073 109.474923 
L 266.506691 109.870523 
L 266.598 110.057454 
L 266.628436 110.006258 
L 266.780618 110.207964 
L 266.811055 110.076917 
L 266.902364 110.059074 
L 267.054545 110.312642 
L 267.115418 110.219903 
L 267.145855 110.14441 
L 267.206727 110.235101 
L 267.237164 110.342051 
L 267.2676 110.046579 
L 267.298036 110.250991 
L 267.328473 110.034244 
L 267.389345 110.206871 
L 267.450218 110.145663 
L 267.6024 109.8983 
L 267.632836 109.922774 
L 267.785018 110.134819 
L 267.876327 109.899322 
L 267.906764 110.105897 
L 267.9372 110.122584 
L 268.119818 109.763744 
L 268.180691 109.834795 
L 268.241564 109.639123 
L 268.272 109.817926 
L 268.363309 109.718169 
L 268.576364 109.29337 
L 268.6068 109.388903 
L 268.637236 109.422883 
L 268.667673 109.217777 
L 268.728545 109.54991 
L 268.972036 110.076175 
L 269.002473 110.021995 
L 269.032909 109.977538 
L 269.063345 110.045303 
L 269.154655 110.346639 
L 269.185091 110.293371 
L 269.337273 110.086657 
L 269.398145 110.074622 
L 269.489455 109.857778 
L 269.519891 109.865312 
L 269.702509 110.254605 
L 269.763382 110.105343 
L 269.793818 110.078812 
L 269.946 109.703225 
L 270.006873 109.543144 
L 270.037309 109.750964 
L 270.159055 109.482502 
L 270.189491 109.707303 
L 270.311236 109.489572 
L 270.372109 109.414546 
L 270.432982 109.476948 
L 270.463418 109.511681 
L 270.493855 109.431373 
L 270.737345 108.657723 
L 270.798218 108.732616 
L 270.9504 108.439458 
L 271.041709 108.235674 
L 271.102582 108.322551 
L 271.193891 108.404376 
L 271.224327 108.278875 
L 271.2852 108.40971 
L 271.346073 108.589067 
L 271.376509 108.312952 
L 271.498255 108.280731 
L 271.650436 107.951835 
L 271.863491 107.606428 
L 272.380909 107.259504 
L 272.6244 107.805953 
L 272.776582 107.157835 
L 272.898327 107.195803 
L 272.9592 107.203208 
L 272.989636 107.408511 
L 273.080945 107.271314 
L 273.141818 107.236896 
L 273.385309 106.255649 
L 273.415745 106.189125 
L 273.446182 106.266743 
L 273.507055 106.491541 
L 273.567927 106.392476 
L 273.720109 106.066665 
L 273.811418 106.272813 
L 273.841855 106.125437 
L 273.872291 106.226224 
L 273.902727 106.083027 
L 274.115782 105.547661 
L 274.146218 105.582519 
L 274.267964 106.183554 
L 274.420145 105.787425 
L 274.450582 105.804446 
L 274.481018 105.625307 
L 274.572327 105.648487 
L 274.663636 105.829165 
L 274.694073 105.723986 
L 274.846255 105.36112 
L 274.907127 105.498534 
L 274.937564 105.452523 
L 275.089745 105.232795 
L 275.150618 105.055118 
L 275.181055 105.19907 
L 275.211491 105.332755 
L 275.272364 105.132153 
L 275.3028 105.160716 
L 275.333236 105.042306 
L 275.394109 104.814767 
L 275.424545 104.878259 
L 275.546291 105.209633 
L 275.576727 105.126354 
L 275.668036 105.00556 
L 275.728909 104.970547 
L 275.820218 105.426152 
L 276.063709 105.302344 
L 276.155018 105.048676 
L 276.215891 105.173242 
L 276.489818 105.667975 
L 276.3072 105.110578 
L 276.520255 105.609561 
L 276.550691 105.476741 
L 276.611564 105.611092 
L 276.794182 105.779427 
L 276.885491 106.303311 
L 276.946364 106.044839 
L 276.9768 106.024733 
L 277.007236 106.084967 
L 277.037673 106.19394 
L 277.068109 106.038794 
L 277.098545 106.108552 
L 277.220291 105.806309 
L 277.250727 105.867615 
L 277.372473 106.042466 
L 277.585527 105.689685 
L 277.615964 105.73699 
L 277.768145 105.596852 
L 277.798582 105.449876 
L 277.829018 105.62845 
L 277.859455 105.598685 
L 277.889891 105.628806 
L 278.011636 105.283881 
L 278.102945 105.526072 
L 278.133382 105.481074 
L 278.194255 105.381858 
L 278.468182 104.589306 
L 278.620364 103.959361 
L 278.681236 103.916233 
L 278.711673 103.76945 
L 278.772545 103.920696 
L 278.833418 103.943254 
L 278.955164 103.761737 
L 278.9856 103.904209 
L 279.016036 103.728044 
L 279.107345 103.460176 
L 279.137782 103.489839 
L 279.168218 103.649902 
L 279.198655 103.367563 
L 279.472582 102.742995 
L 279.594327 102.864111 
L 279.6552 102.986717 
L 279.685636 102.92363 
L 279.746509 102.99767 
L 279.837818 102.618376 
L 280.233491 102.181951 
L 280.385673 102.494645 
L 280.781345 101.964012 
L 280.872655 101.774579 
L 280.903091 101.844935 
L 280.9944 102.047275 
L 281.024836 101.955546 
L 281.055273 101.643999 
L 281.116145 102.015583 
L 281.207455 102.027242 
L 281.237891 101.981906 
L 281.420509 101.21515 
L 281.450945 101.220822 
L 281.603127 100.600872 
L 281.633564 100.689012 
L 281.664 100.700562 
L 281.816182 100.295922 
L 281.846618 100.421104 
L 281.877055 100.266883 
L 282.090109 99.65306 
L 282.150982 99.816627 
L 282.272727 99.285993 
L 282.546655 99.499116 
L 282.577091 99.445753 
L 282.759709 99.062717 
L 282.790145 99.118662 
L 282.851018 98.72663 
L 282.942327 98.800681 
L 283.033636 98.60749 
L 283.124945 98.187355 
L 283.155382 98.263259 
L 283.185818 98.374382 
L 283.246691 98.217196 
L 283.459745 97.796915 
L 283.520618 97.984367 
L 283.611927 97.901991 
L 283.6728 97.84069 
L 283.855418 97.387262 
L 284.038036 97.254691 
L 284.068473 97.408647 
L 284.159782 97.305863 
L 284.190218 97.355396 
L 284.220655 97.293018 
L 284.585891 96.482894 
L 284.707636 96.662399 
L 284.859818 96.446673 
L 284.890255 96.239943 
L 284.981564 96.25831 
L 285.042436 96.335518 
L 285.072873 96.252219 
L 285.316364 95.79355 
L 285.468545 95.858336 
L 285.6816 95.190767 
L 285.833782 95.06289 
L 285.894655 95.294852 
L 285.955527 95.229278 
L 286.138145 95.290439 
L 286.168582 95.377083 
L 286.199018 95.19987 
L 286.229455 95.234634 
L 286.686 94.168212 
L 286.807745 94.361294 
L 286.899055 94.260563 
L 287.0208 93.858258 
L 287.081673 94.028424 
L 287.3556 93.780282 
L 287.386036 93.960714 
L 287.446909 93.713988 
L 287.599091 93.281216 
L 287.659964 93.355763 
L 287.842582 92.746132 
L 288.055636 92.689975 
L 288.116509 92.506706 
L 288.177382 92.65046 
L 288.207818 92.76921 
L 288.238255 92.578886 
L 288.268691 92.695834 
L 288.329564 92.581522 
L 288.36 92.720747 
L 288.390436 92.878423 
L 288.420873 92.653534 
L 288.481745 92.80778 
L 288.573055 92.594986 
L 288.603491 92.623058 
L 288.633927 92.70332 
L 288.664364 92.473599 
L 288.6948 92.531397 
L 288.755673 92.424341 
L 288.968727 91.918205 
L 288.999164 91.768927 
L 289.060036 91.991142 
L 289.151345 91.954356 
L 289.303527 92.258585 
L 289.333964 92.231672 
L 289.3644 92.302455 
L 289.425273 92.450256 
L 289.486145 92.400461 
L 289.6992 91.491044 
L 289.729636 91.484556 
L 289.881818 91.284257 
L 290.003564 91.327361 
L 290.034 91.230238 
L 290.064436 91.384562 
L 290.094873 91.35148 
L 290.125309 91.508724 
L 290.186182 91.448725 
L 290.247055 91.183634 
L 290.307927 91.397903 
L 290.399236 91.408491 
L 290.460109 91.631564 
L 290.520982 91.583174 
L 290.734036 91.009561 
L 290.764473 91.130743 
L 290.825345 91.112742 
L 290.947091 90.765451 
L 291.099273 91.005759 
L 291.3732 89.8224 
L 291.403636 89.916387 
L 291.464509 89.821741 
L 291.677564 89.318582 
L 291.768873 89.489408 
L 291.890618 89.690793 
L 291.921055 89.645541 
L 292.073236 89.179078 
L 292.164545 89.351447 
L 292.255855 89.46397 
L 292.286291 89.338838 
L 292.316727 89.274785 
L 292.347164 89.412998 
L 292.3776 89.371426 
L 292.408036 89.386942 
L 292.560218 89.845667 
L 292.742836 89.592486 
L 292.955891 89.791631 
L 292.986327 89.722841 
L 293.108073 89.304704 
L 293.138509 89.357333 
L 293.168945 89.4641 
L 293.199382 89.388962 
L 293.351564 89.009495 
L 293.534182 89.208693 
L 293.564618 89.150406 
L 293.595055 89.312835 
L 293.625491 89.218185 
L 293.686364 89.163309 
L 293.747236 89.04288 
L 293.777673 89.193495 
L 293.929855 89.493438 
L 293.960291 89.752335 
L 294.021164 89.55662 
L 294.112473 89.34938 
L 294.142909 89.484255 
L 294.508145 89.849133 
L 294.538582 89.784142 
L 294.782073 89.055509 
L 294.812509 89.191217 
L 294.873382 89.267141 
L 294.903818 89.223039 
L 295.025564 88.703044 
L 295.086436 88.891311 
L 295.329927 89.617031 
L 295.3908 89.430837 
L 295.542982 89.235153 
L 295.634291 89.336058 
L 295.664727 89.251136 
L 295.7256 89.059388 
L 295.756036 89.186625 
L 295.786473 89.283743 
L 295.847345 89.116694 
L 295.877782 89.045106 
L 295.908218 89.117705 
L 295.938655 89.190098 
L 295.999527 89.149006 
L 296.243018 88.477045 
L 296.303891 88.559434 
L 296.425636 88.325742 
L 296.608255 87.219352 
L 296.699564 87.312159 
L 296.790873 87.310922 
L 296.821309 87.210457 
L 296.851745 87.444057 
L 296.912618 87.336882 
L 296.973491 87.60697 
L 297.156109 86.759101 
L 297.186545 86.775123 
L 297.430036 86.036428 
L 297.460473 86.102134 
L 297.551782 85.445114 
L 297.582218 85.586468 
L 297.643091 85.502521 
L 297.673527 85.614195 
L 297.764836 85.823857 
L 297.795273 85.703823 
L 298.099636 86.17235 
L 298.130073 85.936573 
L 298.190945 85.736733 
L 298.221382 85.862025 
L 298.343127 86.078794 
L 298.404 85.96614 
L 298.434436 86.047213 
L 298.495309 86.153378 
L 298.556182 86.084505 
L 298.617055 85.852703 
L 298.921418 84.967149 
L 298.951855 85.010568 
L 299.012727 85.145697 
L 299.0736 85.08412 
L 299.195345 84.744545 
L 299.225782 84.866773 
L 299.317091 84.841831 
L 299.4084 84.674998 
L 299.438836 84.720154 
L 299.621455 84.847619 
L 299.804073 84.416677 
L 299.834509 84.69971 
L 299.895382 84.52631 
L 299.986691 83.938025 
L 300.078 83.978466 
L 300.199745 83.645399 
L 300.230182 83.817995 
L 300.382364 84.149421 
L 300.504109 83.656321 
L 300.595418 83.86615 
L 300.686727 84.123561 
L 300.717164 83.996554 
L 300.869345 83.709262 
L 301.173709 84.26671 
L 301.204145 84.236779 
L 301.356327 83.777064 
L 301.386764 83.790753 
L 301.508509 84.083892 
L 301.478073 83.73516 
L 301.538945 84.017899 
L 301.630255 84.014155 
L 301.782436 83.704458 
L 301.812873 83.787571 
L 301.965055 84.056638 
L 302.238982 83.465326 
L 302.269418 83.495876 
L 302.299855 83.386436 
L 302.634655 82.792891 
L 302.665091 82.995571 
L 302.695527 82.661826 
L 302.7564 82.944322 
L 302.939018 82.593579 
L 302.969455 82.598273 
L 302.999891 82.7335 
L 303.030327 82.509788 
L 303.0912 82.505215 
L 303.152073 82.686378 
L 303.182509 82.597862 
L 303.212945 82.526834 
L 303.243382 82.638208 
L 303.273818 82.672159 
L 303.304255 82.62336 
L 304.034727 80.962605 
L 304.186909 80.493553 
L 304.217345 80.541994 
L 304.247782 80.501672 
L 304.278218 80.16766 
L 304.369527 80.351081 
L 304.491273 80.759929 
L 304.521709 80.742238 
L 304.552145 80.682717 
L 304.582582 80.741206 
L 304.643455 80.886516 
L 304.673891 80.686996 
L 304.856509 80.394276 
L 305.039127 80.793565 
L 305.221745 80.13513 
L 305.252182 80.022861 
L 305.282618 80.05741 
L 305.373927 80.270234 
L 305.404364 80.13152 
L 305.526109 80.25112 
L 305.739164 79.717691 
L 305.952218 79.173731 
L 306.013091 79.332351 
L 306.043527 79.223393 
L 306.165273 78.993194 
L 306.195709 79.035697 
L 306.256582 78.995149 
L 306.347891 79.1289 
L 306.560945 78.541946 
L 306.591382 78.658218 
L 306.621818 78.506274 
L 306.652255 78.534721 
L 306.774 78.783037 
L 306.804436 78.931941 
L 306.865309 78.75819 
L 307.017491 78.673838 
L 307.260982 78.219873 
L 307.382727 78.440411 
L 307.504473 78.300477 
L 307.534909 78.328081 
L 307.595782 78.446712 
L 307.687091 78.154087 
L 307.717527 78.288426 
L 307.7784 78.383542 
L 307.808836 78.275954 
L 307.991455 77.956215 
L 308.021891 78.17001 
L 308.082764 77.836777 
L 308.356691 77.133299 
L 308.417564 77.183673 
L 308.569745 76.817802 
L 308.691491 76.154187 
L 308.752364 76.313221 
L 308.995855 75.770029 
L 309.026291 75.782944 
L 309.056727 75.682148 
L 309.421964 75.513948 
L 309.482836 75.618442 
L 309.543709 75.566988 
L 309.665455 74.985966 
L 309.695891 75.069245 
L 309.726327 75.179212 
L 309.817636 75.109961 
L 310.030691 74.800614 
L 310.061127 74.849522 
L 310.091564 74.871376 
L 310.274182 74.486716 
L 310.395927 74.425188 
L 310.426364 74.535689 
L 310.4568 74.35193 
L 310.487236 74.409453 
L 310.578545 74.249598 
L 310.608982 74.346818 
L 310.700291 74.748984 
L 310.730727 74.624584 
L 311.035091 74.310706 
L 311.065527 74.356121 
L 311.1264 74.014836 
L 311.187273 74.157742 
L 311.339455 73.716363 
L 311.430764 73.883495 
L 311.522073 73.836489 
L 311.552509 74.042258 
L 311.582945 73.910031 
L 311.643818 74.130318 
L 311.735127 73.824298 
L 311.704691 74.154005 
L 311.765564 73.997157 
L 311.796 74.078405 
L 311.826436 74.051937 
L 311.978618 73.523941 
L 312.313418 72.790392 
L 312.374291 72.616193 
L 312.435164 72.62903 
L 312.526473 72.583787 
L 312.709091 72.168742 
L 312.739527 72.223605 
L 312.891709 71.928199 
L 312.983018 72.018259 
L 313.104764 71.689735 
L 313.256945 72.133403 
L 313.287382 72.106901 
L 313.348255 71.994383 
L 313.409127 72.013146 
L 313.439564 72.027567 
L 313.47 71.9621 
L 313.622182 71.476247 
L 313.713491 71.808738 
L 313.743927 71.672902 
L 313.774364 71.613822 
L 313.835236 71.711326 
L 313.896109 71.625129 
L 314.048291 71.203388 
L 314.1396 71.69838 
L 314.170036 71.629783 
L 314.200473 71.468973 
L 314.291782 71.550193 
L 314.565709 70.739164 
L 314.596145 70.856584 
L 314.717891 71.35262 
L 314.778764 71.218815 
L 314.8092 71.165512 
L 314.870073 71.281741 
L 314.930945 71.192074 
L 314.991818 71.280847 
L 315.052691 71.450482 
L 315.083127 71.210444 
L 315.204873 71.250942 
L 315.357055 71.144833 
L 315.387491 71.231922 
L 315.417927 71.040468 
L 315.600545 70.672772 
L 315.630982 70.751173 
L 315.661418 70.561624 
L 315.691855 70.531548 
L 315.8136 69.880107 
L 315.844036 69.88881 
L 315.874473 69.867766 
L 315.904909 69.92005 
L 316.087527 70.371722 
L 316.117964 70.32269 
L 316.270145 70.193779 
L 316.300582 70.109966 
L 316.361455 70.170967 
L 316.391891 70.268197 
L 316.422327 70.146482 
L 316.452764 70.198581 
L 316.635382 69.622426 
L 316.726691 69.934995 
L 316.787564 69.821464 
L 316.878873 69.981573 
L 316.909309 69.857605 
L 316.939745 69.63786 
L 317.031055 69.758394 
L 317.183236 70.44532 
L 317.274545 70.489107 
L 317.365855 70.246065 
L 317.396291 70.289852 
L 317.639782 71.010685 
L 317.670218 70.933857 
L 317.700655 70.712995 
L 317.731091 70.874497 
L 317.852836 71.081315 
L 317.883273 71.105896 
L 317.944145 70.652885 
L 318.035455 70.693491 
L 318.187636 71.178352 
L 318.248509 71.117311 
L 318.613745 70.313627 
L 318.674618 70.47917 
L 318.735491 70.428895 
L 318.918109 70.557762 
L 319.313782 69.306571 
L 319.344218 69.424421 
L 319.374655 69.550633 
L 319.435527 69.427723 
L 319.587709 69.23214 
L 319.618145 69.080443 
L 319.679018 69.193025 
L 319.709455 69.431635 
L 319.770327 69.328207 
L 319.8312 68.939828 
L 319.892073 69.103487 
L 320.044255 69.317382 
L 320.166 69.150961 
L 320.196436 69.222096 
L 320.226873 69.042001 
L 320.318182 68.814018 
L 320.379055 68.868368 
L 320.439927 68.809632 
L 320.592109 68.369507 
L 320.713855 68.578353 
L 320.744291 68.570517 
L 320.866036 68.523203 
L 320.987782 68.718 
L 321.048655 68.65246 
L 321.1704 68.518591 
L 321.353018 68.933709 
L 321.383455 69.000869 
L 321.535636 68.389185 
L 321.566073 68.50352 
L 321.626945 68.392085 
L 321.687818 68.471395 
L 321.900873 68.052941 
L 321.992182 68.126616 
L 322.1748 67.737028 
L 322.387855 68.254114 
L 322.661782 67.498947 
L 322.753091 67.466291 
L 322.813964 67.698278 
L 322.905273 67.870126 
L 323.057455 68.088999 
L 323.087891 68.052521 
L 323.209636 67.753484 
L 323.270509 67.781676 
L 323.331382 67.727998 
L 323.361818 67.812502 
L 323.422691 68.103002 
L 323.453127 67.95523 
L 323.605309 67.447455 
L 324.122727 66.56735 
L 324.1836 66.537195 
L 324.335782 66.896069 
L 324.487964 66.713989 
L 324.579273 67.012226 
L 324.609709 66.901096 
L 324.701018 66.817976 
L 324.822764 66.550195 
L 324.8532 66.584658 
L 324.883636 66.453622 
L 324.944509 66.618317 
L 325.066255 66.503133 
L 325.096691 66.43233 
L 325.248873 66.866213 
L 325.340182 66.721997 
L 325.370618 66.814681 
L 325.5228 67.071322 
L 325.583673 66.956154 
L 325.735855 66.619938 
L 325.766291 66.698561 
L 325.827164 66.821418 
L 325.888036 66.741704 
L 325.918473 66.802053 
L 325.979345 66.682805 
L 326.1924 65.955602 
L 326.283709 66.070459 
L 326.314145 66.001665 
L 326.496764 65.453551 
L 326.5272 65.764618 
L 326.588073 65.525954 
L 326.648945 65.336296 
L 326.709818 65.452732 
L 326.801127 65.609614 
L 326.892436 65.181608 
L 326.953309 65.22773 
L 327.1968 64.848831 
L 327.227236 64.975293 
L 327.288109 65.166751 
L 327.348982 65.025528 
L 327.379418 64.872148 
L 327.440291 65.101613 
L 327.501164 64.993917 
L 327.653345 65.704668 
L 327.683782 65.816446 
L 327.744655 65.619377 
L 328.018582 65.312589 
L 328.049018 65.344894 
L 328.079455 65.254558 
L 328.444691 64.39404 
L 328.596873 64.718628 
L 328.809927 64.219519 
L 328.8708 64.222209 
L 328.901236 64.01516 
L 328.962109 64.261894 
L 329.053418 64.250691 
L 329.175164 64.404606 
L 329.2056 64.371283 
L 329.327345 64.293472 
L 329.479527 64.115686 
L 329.5404 63.804567 
L 329.601273 63.990587 
L 329.723018 64.385531 
L 329.753455 64.294744 
L 330.179564 63.168176 
L 330.21 63.186116 
L 330.240436 63.180425 
L 330.270873 63.05698 
L 330.301309 63.191173 
L 330.331745 63.290634 
L 330.362182 63.235615 
L 330.5448 62.794083 
L 330.636109 62.641333 
L 330.727418 62.821831 
L 330.757855 62.687152 
L 331.001345 62.042338 
L 331.031782 62.098925 
L 331.062218 62.048575 
L 331.123091 61.567874 
L 331.183964 61.700759 
L 331.488327 61.501686 
L 331.518764 61.582955 
L 331.579636 61.50657 
L 331.670945 61.635894 
L 331.762255 61.121831 
L 331.792691 61.174592 
L 332.005745 61.582482 
L 332.157927 61.28755 
L 332.431855 61.460037 
L 332.523164 61.261465 
L 332.584036 61.322289 
L 332.736218 61.012567 
L 332.797091 61.150574 
L 332.8884 61.495954 
L 332.949273 61.324001 
L 332.979709 61.305465 
L 333.071018 61.101813 
L 333.101455 61.23847 
L 333.162327 61.344911 
L 333.284073 61.70795 
L 333.314509 61.566823 
L 333.405818 61.64026 
L 333.466691 61.652925 
L 333.558 61.259076 
L 333.618873 61.474707 
L 333.649309 61.56343 
L 333.710182 61.416116 
L 333.740618 61.40382 
L 333.953673 60.738253 
L 334.136291 60.981811 
L 334.166727 60.851281 
L 334.410218 59.975177 
L 334.501527 60.1886 
L 334.5624 60.338457 
L 334.592836 60.16013 
L 334.745018 59.860991 
L 334.8972 60.162162 
L 334.927636 60.039503 
L 334.958073 60.156811 
L 334.988509 60.364198 
L 335.049382 60.185237 
L 335.079818 60.169425 
L 335.140691 59.837537 
L 335.201564 59.932079 
L 335.232 59.995451 
L 335.353745 59.697133 
L 335.414618 59.630727 
L 335.627673 60.297179 
L 335.658109 60.200343 
L 335.688545 60.371763 
L 335.718982 60.361431 
L 335.9016 60.378787 
L 335.932036 60.705228 
L 335.992909 60.257802 
L 336.053782 60.328077 
L 336.114655 60.031616 
L 336.205964 60.381866 
L 336.266836 60.328756 
L 336.297273 60.319564 
L 336.388582 60.108395 
L 336.419018 60.245322 
L 336.449455 60.473795 
L 336.510327 60.245076 
L 336.540764 60.272269 
L 336.5712 60.165822 
L 336.723382 59.811343 
L 336.753818 59.799339 
L 336.784255 59.934489 
L 336.845127 59.721906 
L 336.875564 59.709286 
L 336.906 59.447439 
L 336.997309 59.491409 
L 337.119055 59.420975 
L 337.149491 59.492335 
L 337.179927 59.611748 
L 337.271236 59.556426 
L 337.332109 59.683819 
L 337.392982 59.824832 
L 337.423418 59.669586 
L 337.453855 59.69113 
L 337.697345 59.019458 
L 337.727782 59.060371 
L 337.758218 59.015081 
L 337.9104 59.70432 
L 337.940836 59.615301 
L 338.062582 58.970942 
L 338.123455 59.017859 
L 338.214764 58.956187 
L 338.397382 58.481204 
L 338.519127 58.078817 
L 338.549564 58.13437 
L 338.610436 57.805702 
L 338.671309 57.916049 
L 338.701745 57.990268 
L 338.732182 57.825357 
L 338.762618 57.84293 
L 338.823491 57.471075 
L 338.9148 57.543597 
L 338.945236 57.554896 
L 339.036545 57.726991 
L 339.066982 57.674177 
L 339.097418 57.645236 
L 339.280036 56.995168 
L 339.340909 56.838819 
L 339.401782 56.925898 
L 339.432218 56.927448 
L 339.614836 57.724338 
L 339.706145 57.687513 
L 339.736582 57.695067 
L 339.980073 56.820112 
L 340.040945 57.045111 
L 340.071382 56.864081 
L 340.101818 56.614483 
L 340.193127 56.745798 
L 340.254 56.946923 
L 340.314873 56.809493 
L 340.497491 56.607906 
L 340.649673 55.517735 
L 340.710545 55.556142 
L 340.801855 55.801045 
L 340.771418 55.506267 
L 340.832291 55.705609 
L 340.862727 55.704863 
L 341.075782 56.169729 
L 341.136655 56.273368 
L 341.167091 56.148231 
L 341.227964 56.081347 
L 341.2584 56.27542 
L 341.349709 56.19283 
L 341.471455 55.991982 
L 341.532327 56.075749 
L 341.654073 56.590684 
L 341.684509 56.511233 
L 341.775818 56.359882 
L 341.928 55.726151 
L 342.019309 55.663756 
L 342.049745 55.833244 
L 342.080182 55.722439 
L 342.110618 55.462581 
L 342.201927 55.624467 
L 342.354109 55.028871 
L 342.475855 55.103435 
L 342.506291 55.074797 
L 342.536727 55.192317 
L 342.871527 55.516738 
L 342.901964 55.415839 
L 342.9324 55.602477 
L 342.993273 55.487304 
L 343.054145 55.90621 
L 343.206327 56.387827 
L 343.236764 56.329297 
L 343.328073 56.736112 
L 343.358509 56.676502 
L 343.388945 56.6226 
L 343.571564 57.136354 
L 343.693309 56.878395 
L 343.723745 56.897738 
L 343.784618 56.656412 
L 343.845491 56.830491 
L 343.997673 56.549404 
L 344.028109 56.752026 
L 344.088982 56.541223 
L 344.119418 56.561816 
L 344.149855 56.49126 
L 344.302036 55.66373 
L 344.332473 55.548994 
L 344.393345 55.701319 
L 344.545527 55.605983 
L 344.575964 55.654043 
L 344.636836 55.62535 
L 344.667273 55.702926 
L 344.758582 55.554638 
L 344.789018 55.740988 
L 344.849891 55.526153 
L 344.880327 55.538234 
L 344.910764 55.459461 
L 345.032509 55.290578 
L 345.184691 54.605309 
L 345.276 54.740134 
L 345.306436 54.752328 
L 345.367309 54.362507 
L 345.428182 54.661886 
L 345.458618 54.504787 
L 345.519491 54.641041 
L 345.549927 54.809573 
L 345.641236 54.716256 
L 345.884727 53.927544 
L 345.915164 53.990706 
L 346.036909 54.371485 
L 346.097782 54.329493 
L 346.128218 54.331816 
L 346.158655 54.189221 
L 346.249964 54.235002 
L 346.341273 54.283617 
L 346.371709 54.204571 
L 346.402145 54.175733 
L 346.523891 54.427531 
L 346.706509 53.603527 
L 346.736945 53.70802 
L 346.858691 53.650807 
L 347.010873 53.745446 
L 347.436982 52.441575 
L 347.497855 52.567401 
L 347.741345 53.004866 
L 347.863091 52.901769 
L 347.893527 53.114184 
L 347.9544 52.756199 
L 347.984836 52.819739 
L 348.015273 52.785779 
L 348.045709 52.685388 
L 348.076145 52.88303 
L 348.137018 53.312928 
L 348.197891 52.963197 
L 348.228327 53.083961 
L 348.319636 53.007181 
L 348.350073 52.871109 
L 348.380509 53.057136 
L 348.441382 53.310133 
L 348.502255 53.183556 
L 348.624 53.127986 
L 348.745745 52.797815 
L 348.776182 52.867562 
L 349.019673 53.167844 
L 349.171855 52.839061 
L 349.202291 53.008701 
L 349.537091 53.324309 
L 349.780582 52.808713 
L 349.811018 52.804784 
L 350.084945 51.789115 
L 350.115382 51.797595 
L 350.176255 51.581633 
L 350.237127 51.640527 
L 350.328436 51.799344 
L 350.511055 50.974956 
L 350.541491 51.14103 
L 350.663236 50.896797 
L 350.724109 51.019931 
L 350.754545 51.016622 
L 350.876291 50.880064 
L 350.9676 51.148073 
L 350.998036 50.973256 
L 351.180655 50.462418 
L 351.241527 50.416358 
L 351.271964 50.438068 
L 351.332836 50.760137 
L 351.393709 50.595581 
L 351.758945 50.134388 
L 351.880691 50.548009 
L 351.911127 50.515985 
L 352.032873 50.229694 
L 352.3068 50.863899 
L 352.367673 50.770743 
L 352.428545 50.807421 
L 352.458982 51.07166 
L 352.519855 50.904259 
L 352.672036 50.437244 
L 352.702473 50.490459 
L 353.037273 49.508344 
L 353.067709 49.530552 
L 353.159018 49.720786 
L 353.189455 49.710992 
L 353.219891 49.555351 
L 353.3112 49.622303 
L 353.372073 49.564848 
L 353.463382 49.458467 
L 353.493818 49.52735 
L 353.524255 49.460047 
L 353.554691 49.626117 
L 353.585127 49.739468 
L 353.676436 49.676174 
L 353.706873 49.575545 
L 353.737309 49.651137 
L 353.919927 50.09238 
L 353.9808 50.160456 
L 354.041673 50.063493 
L 354.163418 50.280648 
L 354.224291 50.250019 
L 354.376473 50.016366 
L 354.437345 50.257957 
L 354.498218 50.139353 
L 354.6504 50.390654 
L 354.680836 50.337325 
L 354.924327 49.782036 
L 354.9852 49.851892 
L 355.106945 50.068978 
L 355.137382 50.008605 
L 355.167818 50.045565 
L 355.228691 50.344876 
L 355.289564 50.318221 
L 355.441745 49.698761 
L 355.472182 49.750199 
L 355.563491 49.669074 
L 355.593927 49.879584 
L 355.6548 49.708314 
L 355.685236 49.60343 
L 355.746109 49.655525 
L 355.837418 49.942583 
L 355.867855 49.841516 
L 355.959164 49.532337 
L 355.9896 49.744187 
L 356.080909 49.991555 
L 356.141782 49.93591 
L 356.3244 49.532307 
L 356.415709 49.453404 
L 356.476582 49.794029 
L 356.537455 49.691148 
L 356.567891 49.721511 
L 356.598327 49.938444 
L 356.6592 49.733268 
L 356.811382 49.88429 
L 356.933127 49.606634 
L 356.994 49.727753 
L 357.054873 49.94041 
L 357.146182 49.854569 
L 357.176618 49.94201 
L 357.207055 49.80468 
L 357.359236 49.319463 
L 357.694036 49.574682 
L 357.815782 49.420432 
L 357.907091 49.80069 
L 357.967964 49.557899 
L 358.028836 49.730365 
L 358.059273 49.772453 
L 358.089709 50.064877 
L 358.181018 49.911284 
L 358.3332 49.715446 
L 358.363636 50.033407 
L 358.454945 49.969371 
L 358.637564 49.379398 
L 358.728873 49.357716 
L 358.759309 49.516904 
L 358.881055 49.125437 
L 358.911491 49.184405 
L 359.398473 48.609603 
L 359.428909 48.863744 
L 359.489782 48.634085 
L 359.611527 48.590627 
L 359.824582 49.280988 
L 359.885455 48.855199 
L 359.946327 48.981111 
L 359.976764 49.002051 
L 360.0072 48.937137 
L 360.037636 48.787014 
L 360.098509 49.416449 
L 360.159382 49.20706 
L 360.220255 49.391443 
L 360.250691 49.29099 
L 360.342 48.937591 
L 360.402873 49.042931 
L 360.433309 49.018154 
L 360.585491 48.633614 
L 360.646364 48.76732 
L 360.6768 48.719891 
L 360.707236 48.633695 
L 360.737673 48.75884 
L 360.768109 48.685201 
L 360.981164 49.078694 
L 361.0116 48.912892 
L 361.102909 48.969666 
L 361.133345 48.968245 
L 361.163782 49.102875 
L 361.194218 48.919798 
L 361.224655 49.032764 
L 361.315964 48.75013 
L 361.3464 48.973995 
L 361.437709 49.040468 
L 361.468145 48.978995 
L 361.833382 48.14849 
L 361.985564 47.560153 
L 362.016 47.698892 
L 362.076873 47.561646 
L 362.137745 47.62665 
L 362.259491 47.201639 
L 362.442109 47.609334 
L 362.533418 47.335927 
L 362.563855 47.390285 
L 362.624727 47.592968 
L 362.655164 47.47017 
L 362.716036 47.348371 
L 362.746473 47.489543 
L 362.898655 47.840325 
L 363.050836 47.418171 
L 363.081273 47.680417 
L 363.142145 47.526824 
L 363.172582 47.386966 
L 363.203018 47.570051 
L 363.263891 47.407003 
L 363.476945 48.0198 
L 363.507382 47.891294 
L 363.568255 48.007192 
L 363.629127 48.220977 
L 363.69 48.077211 
L 363.750873 48.038908 
L 363.781309 47.785614 
L 363.842182 47.932309 
L 363.933491 48.008275 
L 363.994364 48.140893 
L 364.055236 47.828163 
L 364.085673 48.034512 
L 364.176982 47.91655 
L 364.390036 48.31468 
L 364.511782 47.869597 
L 364.572655 47.90658 
L 364.755273 48.054429 
L 364.785709 47.991486 
L 364.816145 47.882892 
L 364.877018 47.963605 
L 364.907455 48.039248 
L 364.937891 47.879027 
L 364.968327 47.833439 
L 364.998764 48.039675 
L 365.090073 47.904756 
L 365.120509 47.8834 
L 365.150945 48.084223 
L 365.211818 47.790783 
L 365.303127 47.585904 
L 365.333564 47.653393 
L 365.394436 47.945154 
L 365.424873 47.729825 
L 365.455309 47.710129 
L 365.516182 48.03767 
L 365.577055 47.863725 
L 365.881418 46.944568 
L 366.003164 47.127055 
L 366.0336 46.951945 
L 366.124909 46.978094 
L 366.185782 47.358299 
L 366.246655 47.290222 
L 366.277091 47.248121 
L 366.337964 47.313691 
L 366.398836 47.533301 
L 366.429273 47.68049 
L 366.459709 47.473083 
L 366.490145 47.31075 
L 366.551018 47.571943 
L 366.581455 47.339198 
L 366.764073 48.153054 
L 366.824945 47.974875 
L 366.946691 47.578546 
L 366.977127 47.61113 
L 367.129309 47.936533 
L 367.190182 48.001876 
L 367.220618 48.324053 
L 367.311927 48.199825 
L 367.342364 48.195616 
L 367.585855 47.530428 
L 367.616291 47.588049 
L 367.646727 47.451361 
L 367.677164 47.526924 
L 367.738036 47.615354 
L 367.890218 47.957885 
L 367.920655 48.141073 
L 368.011964 48.087822 
L 368.072836 47.979786 
L 368.133709 48.423426 
L 368.164145 48.28992 
L 368.225018 47.937997 
L 368.285891 48.114688 
L 368.407636 47.972907 
L 368.438073 48.0298 
L 368.468509 48.053845 
L 368.620691 48.332525 
L 368.712 48.377792 
L 368.742436 48.491511 
L 368.772873 48.202027 
L 369.107673 48.799996 
L 369.138109 48.761458 
L 369.198982 48.834283 
L 369.259855 48.717968 
L 369.290291 48.862314 
L 369.351164 48.657426 
L 369.564218 47.556371 
L 369.594655 47.707215 
L 369.685964 47.632758 
L 369.746836 47.295883 
L 369.807709 47.374486 
L 369.868582 47.697267 
L 369.929455 47.506313 
L 370.0512 47.052335 
L 370.233818 46.591103 
L 370.386 47.203937 
L 370.446873 47.038817 
L 370.599055 46.732965 
L 370.7208 46.88524 
L 370.781673 47.006044 
L 370.903418 47.62655 
L 370.933855 47.556778 
L 371.0556 47.33159 
L 371.116473 47.586067 
L 371.207782 47.530986 
L 371.238218 47.442994 
L 371.268655 47.557194 
L 371.299091 47.609872 
L 371.481709 47.17073 
L 371.542582 47.122347 
L 371.573018 47.244143 
L 371.786073 46.749718 
L 371.816509 46.863494 
L 371.877382 46.71265 
L 371.968691 46.304524 
L 371.999127 46.425661 
L 372.090436 46.72762 
L 372.120873 46.711792 
L 372.3948 45.584619 
L 372.425236 45.541586 
L 372.546982 45.901731 
L 372.577418 45.820976 
L 372.7296 45.355199 
L 372.760036 45.444782 
L 372.942655 45.287512 
L 372.973091 45.535853 
L 373.033964 45.358726 
L 373.216582 45.315319 
L 373.247018 45.461764 
L 373.277455 45.298301 
L 373.307891 45.302063 
L 373.338327 45.004543 
L 373.429636 45.014689 
L 373.490509 45.18569 
L 373.520945 45.118202 
L 373.551382 44.954332 
L 373.581818 45.108812 
" clip-path="url(#pe39589818b)" style="fill: none; stroke: #1f77b4; stroke-width: 1.5; stroke-linecap: square"/>
   </g>
   <g id="line2d_14">
    <path d="M 69.218182 242.116364 
L 373.581818 44.443636 
L 373.581818 44.443636 
" clip-path="url(#pe39589818b)" style="fill: none; stroke: #ff7f0e; stroke-width: 1.5; stroke-linecap: square"/>
   </g>
   <g id="patch_3">
    <path d="M 54 252 
L 54 34.56 
" style="fill: none; stroke: #000000; stroke-width: 0.8; stroke-linejoin: miter; stroke-linecap: square"/>
   </g>
   <g id="patch_4">
    <path d="M 388.8 252 
L 388.8 34.56 
" style="fill: none; stroke: #000000; stroke-width: 0.8; stroke-linejoin: miter; stroke-linecap: square"/>
   </g>
   <g id="patch_5">
    <path d="M 54 252 
L 388.8 252 
" style="fill: none; stroke: #000000; stroke-width: 0.8; stroke-linejoin: miter; stroke-linecap: square"/>
   </g>
   <g id="patch_6">
    <path d="M 54 34.56 
L 388.8 34.56 
" style="fill: none; stroke: #000000; stroke-width: 0.8; stroke-linejoin: miter; stroke-linecap: square"/>
   </g>
   <g id="legend_1">
    <g id="patch_7">
     <path d="M 61 71.91625 
L 148.859375 71.91625 
Q 150.859375 71.91625 150.859375 69.91625 
L 150.859375 41.56 
Q 150.859375 39.56 148.859375 39.56 
L 61 39.56 
Q 59 39.56 59 41.56 
L 59 69.91625 
Q 59 71.91625 61 71.91625 
z
" style="fill: #ffffff; opacity: 0.8; stroke: #cccccc; stroke-linejoin: miter"/>
    </g>
    <g id="line2d_15">
     <path d="M 63 47.658437 
L 73 47.658437 
L 83 47.658437 
" style="fill: none; stroke: #1f77b4; stroke-width: 1.5; stroke-linecap: square"/>
    </g>
    <g id="text_15">
     <!-- Numerical -->
     <g transform="translate(91 51.158437)scale(0.1 -0.1)">
      <defs>
       <path id="DejaVuSans-4e" d="M 628 4666 
L 1478 4666 
L 3547 763 
L 3547 4666 
L 4159 4666 
L 4159 0 
L 3309 0 
L 1241 3903 
L 1241 0 
L 628 0 
L 628 4666 
z
" transform="scale(0.015625)"/>
       <path id="DejaVuSans-75" d="M 544 1381 
L 544 3500 
L 1119 3500 
L 1119 1403 
Q 1119 906 1312 657 
Q 1506 409 1894 409 
Q 2359 409 2629 706 
Q 2900 1003 2900 1516 
L 2900 3500 
L 3475 3500 
L 3475 0 
L 2900 0 
L 2900 538 
Q 2691 219 2414 64 
Q 2138 -91 1772 -91 
Q 1169 -91 856 284 
Q 544 659 544 1381 
z
M 1991 3584 
L 1991 3584 
z
" transform="scale(0.015625)"/>
       <path id="DejaVuSans-72" d="M 2631 2963 
Q 2534 3019 2420 3045 
Q 2306 3072 2169 3072 
Q 1681 3072 1420 2755 
Q 1159 2438 1159 1844 
L 1159 0 
L 581 0 
L 581 3500 
L 1159 3500 
L 1159 2956 
Q 1341 3275 1631 3429 
Q 1922 3584 2338 3584 
Q 2397 3584 2469 3576 
Q 2541 3569 2628 3553 
L 2631 2963 
z
" transform="scale(0.015625)"/>
       <path id="DejaVuSans-63" d="M 3122 3366 
L 3122 2828 
Q 2878 2963 2633 3030 
Q 2388 3097 2138 3097 
Q 1578 3097 1268 2742 
Q 959 2388 959 1747 
Q 959 1106 1268 751 
Q 1578 397 2138 397 
Q 2388 397 2633 464 
Q 2878 531 3122 666 
L 3122 134 
Q 2881 22 2623 -34 
Q 2366 -91 2075 -91 
Q 1284 -91 818 406 
Q 353 903 353 1747 
Q 353 2603 823 3093 
Q 1294 3584 2113 3584 
Q 2378 3584 2631 3529 
Q 2884 3475 3122 3366 
z
" transform="scale(0.015625)"/>
       <path id="DejaVuSans-61" d="M 2194 1759 
Q 1497 1759 1228 1600 
Q 959 1441 959 1056 
Q 959 750 1161 570 
Q 1363 391 1709 391 
Q 2188 391 2477 730 
Q 2766 1069 2766 1631 
L 2766 1759 
L 2194 1759 
z
M 3341 1997 
L 3341 0 
L 2766 0 
L 2766 531 
Q 2569 213 2275 61 
Q 1981 -91 1556 -91 
Q 1019 -91 701 211 
Q 384 513 384 1019 
Q 384 1609 779 1909 
Q 1175 2209 1959 2209 
L 2766 2209 
L 2766 2266 
Q 2766 2663 2505 2880 
Q 2244 3097 1772 3097 
Q 1472 3097 1187 3025 
Q 903 2953 641 2809 
L 641 3341 
Q 956 3463 1253 3523 
Q 1550 3584 1831 3584 
Q 2591 3584 2966 3190 
Q 3341 2797 3341 1997 
z
" transform="scale(0.015625)"/>
       <path id="DejaVuSans-6c" d="M 603 4863 
L 1178 4863 
L 1178 0 
L 603 0 
L 603 4863 
z
" transform="scale(0.015625)"/>
      </defs>
      <use xlink:href="#DejaVuSans-4e"/>
      <use xlink:href="#DejaVuSans-75" x="74.804688"/>
      <use xlink:href="#DejaVuSans-6d" x="138.183594"/>
      <use xlink:href="#DejaVuSans-65" x="235.595703"/>
      <use xlink:href="#DejaVuSans-72" x="297.119141"/>
      <use xlink:href="#DejaVuSans-69" x="338.232422"/>
      <use xlink:href="#DejaVuSans-63" x="366.015625"/>
      <use xlink:href="#DejaVuSans-61" x="420.996094"/>
      <use xlink:href="#DejaVuSans-6c" x="482.275391"/>
     </g>
    </g>
    <g id="line2d_16">
     <path d="M 63 62.336562 
L 73 62.336562 
L 83 62.336562 
" style="fill: none; stroke: #ff7f0e; stroke-width: 1.5; stroke-linecap: square"/>
    </g>
    <g id="text_16">
     <!-- Theoretical -->
     <g transform="translate(91 65.836562)scale(0.1 -0.1)">
      <defs>
       <path id="DejaVuSans-68" d="M 3513 2113 
L 3513 0 
L 2938 0 
L 2938 2094 
Q 2938 2591 2744 2837 
Q 2550 3084 2163 3084 
Q 1697 3084 1428 2787 
Q 1159 2491 1159 1978 
L 1159 0 
L 581 0 
L 581 4863 
L 1159 4863 
L 1159 2956 
Q 1366 3272 1645 3428 
Q 1925 3584 2291 3584 
Q 2894 3584 3203 3211 
Q 3513 2838 3513 2113 
z
" transform="scale(0.015625)"/>
      </defs>
      <use xlink:href="#DejaVuSans-54"/>
      <use xlink:href="#DejaVuSans-68" x="61.083984"/>
      <use xlink:href="#DejaVuSans-65" x="124.462891"/>
      <use xlink:href="#DejaVuSans-6f" x="185.986328"/>
      <use xlink:href="#DejaVuSans-72" x="247.167969"/>
      <use xlink:href="#DejaVuSans-65" x="286.03125"/>
      <use xlink:href="#DejaVuSans-74" x="347.554688"/>
      <use xlink:href="#DejaVuSans-69" x="386.763672"/>
      <use xlink:href="#DejaVuSans-63" x="414.546875"/>
      <use xlink:href="#DejaVuSans-61" x="469.527344"/>
      <use xlink:href="#DejaVuSans-6c" x="530.806641"/>
     </g>
    </g>
   </g>
  </g>
 </g>
 <defs>
  <clipPath id="pe39589818b">
   <rect x="54" y="34.56" width="334.8" height="217.44"/>
  </clipPath>
 </defs>
</svg>
